<svg xmlns="http://www.w3.org/2000/svg" width="36" height="36" viewBox="0 0 36 36">
    <style>
        <![CDATA[.B{fill:#38140f}.C{fill:#fcefd9}.D{fill:#eea698}.E{stroke:#38140f}.F{stroke-width:.5}.G{fill:#f3cea0}]]>
    </style>
    <g>
        <path d="M.5 17.4999727964C.5 8.0819732861 8.0819732861.5 17.4999727964.5S34.5 8.0819732861 34.5 17.4999727964 26.9179723067 34.5 17.4999727964 34.5.5 26.9179723067.5 17.4999727964z" fill="#66ff80"/>
        <path d="M.5 17.4999727964C.5 8.0819732861 8.0819732861.5 17.4999727964.5S34.5 8.0819732861 34.5 17.4999727964 26.9179723067 34.5 17.4999727964 34.5.5 26.9179723067.5 17.4999727964z" fill="#afcc50"/>
        <g fill="#fff">
            <path d="M12.1867691409 10.2285709836s-9.3240129453 2.353874383-8.7769428297 6.9585043066 8.4809928894-2.5699878101 8.4809928894-2.5699878101l.2959499403-4.3885164965z" class="G"/>
            <path d="M10.5558475927 13.0130951474s-5.8174526132 1.8181806427-5.5243872111 3.3173356667 5.5546289296-2.0881538427 5.5546289296-2.0881538427l-.0302417185-1.229181824z" class="D"/>
            <path d="M12.1462569968 10.2833117425c.0025905725.0073850537.0081391745.0146287146.0148268936.018663847s.0137428951.0047747255.0183544816.0036218305l-.0199712928.0058732386-.0404019071.0119640045-.0808221869.0243956928-.1615157639.0498246407-.3222782408.1033363699-.6416903163.2189739117-.3192834655.115376509-.3182362128.1190527213-.6329632104.2499389307-.6276534555.2664818861-.3114933752.1401093692-.309876564.1445469273-1.2178452347.632808828-.592101982.354232421-.5760441071.3855998655-.554345766.4227209087-.5239203189.4674119037c-.1681483644.1642331529-.3289659599.3377656002-.4789435712.5218807533l-.2161290739.2841777364-.195404494.3011992518c-.1220876182.2066836162-.2274375659.4253094842-.3079657872.6543440361s-.1363449532.4679557221-.1613963403.7112600685c-.0126497103.1216630496-.0178400417.2442070849-.0153045878.3668163785s.0125854053.2448814197.0294976179.3668707603.0403008563.2407810715.0722788096.3545805072.0722145046.2221932953.1224367024.3213531507.1099064156.1893249306.1794109242.2667537952l.0537405994.0559045302.0572038825.0510536596c.0390239429.0327378669.0805925262.0615819941.1235941922.0878919277s.0880886509.0487370251.1344433628.0685537671.0941608793.0362944391.1429224352.0500312916.0986622286.0246023438.1491692057.0330750343l.1535051993.0178372431c.1033840523.0073850537.2084951529.005470813.3140839477-.0027299683s.2116736567-.0232427979.3176666543-.0433314491c.2120227409-.0403186952.4234759234-.0999212117.6328346004-.1719553952.4192134212-.1437311891.8299385835-.3352314012 1.2336636883-.546417839l.6002417307-.3344156577.5907607636-.361345608.5824562334-.3823152025.5749601087-.3996847618.5681988983-.4143134763.5620072463-.4268865575.2787162028-.2179515332.2771912558-.2207576361.2755193261-.2236181207.1369880032-.1130489663.135995869-.1137885594-.0239398294.0520107906.1522742181-2.1610798885.1645840306-2.1668878688zm.0810426612-.1094162595l-.1315680111 2.2215633695-.1436757222 2.2273713498-.0021863697.0325312159-.0217718326.0195448329-.264660969.2456971473-.2676189987.2400958179-.270099334.2360715618-.2724694322.2323083386-.551571465.4539469604-.5606476551.4389049439-.5700913023.4226556504-.5804352193.4040571041-1.1984435004.7356666244-.6226927847.3180793667-.6433622461.2678414532c-.2185451043.0781902077-.4414813208.1447535358-.6700212579.1906191786-.1142424093.0228294959-.2299179012.0405253462-.3469346115.0509122774s-.2355216219.0134649432-.3550186676.0060146313-.2400229711-.0251461622-.3597404911-.0580254219c-.0598587599-.0164668207-.1193776221-.0368382575-.1782075022-.0612339504s-.1167778632-.0535878213-.1732284587-.0871414158c-.1128001402-.0673247163-.2195372384-.1537809635-.3125314414-.2576611518s-.1729436794-.2230090548-.2375426359-.3503386973-.1145823071-.2625120171-.1532571658-.3993367233-.0659309884-.2761183266-.0852684177-.4151292252-.0308204634-.2802187385-.0335947645-.4217637883.003288741-.2836991762.0180145839-.4242871056c.0293781943-.2814477681.0944364721-.55632621.1863926089-.8147378312s.2108193189-.5007697235.3454923424-.7262368268.2860929039-.4343368694.4470850414-.6293283903.3325027344-.3758981455.5099477631-.5460806716c.3550186675-.3406260849.7348039429-.6375182952 1.1251352368-.9076872699l.5944720802-.384577487.6080312468-.3493163027 1.2453126522-.6116216636.3158844875-.1377165684.3174829257-.1318433297.6389711338-.2485032502.6437664489-.2288822827.3234357306-.1074367606.3245381019-.1025859005.6520158605-.1908911303.3276431143-.0874786257.1643451835-.0413519502.0823838796-.019816742.0412654312-.0097125964.0209083084-.00485086c.0114830341-.0029366193.0253361664-.0040351324.0388402144-.0016423315s.0258689792.0077222211.0352758807.0133344268z" class="B"/>
            <path d="M22.4664914711 10.2285709836s9.3240209834 2.353874383 8.7769508678 6.9585043066-8.4809825547-2.5699878101-8.4809825547-2.5699878101l-.2959683131-4.3885164965z" class="G"/>
            <path d="M24.0974313923 13.0130951474s5.8174514649 1.8181806427 5.5243676899 3.3173356667-5.5546277813-2.0881538427-5.5546277813-2.0881538427l.0302600914-1.229181824z" class="D"/>
            <path d="M22.4259793269 10.173895483c.0094069015-.0056122057.0217534597-.0111482769.0352575078-.013399685s.0273755532-.0012942878.0388585873.0016423315l.0208899355.00485086.0412838041.00970172.0823655067.0198276184.1643451835.0413410738.3276614872.0874895021.6520158605.1908802539.324519729.1025859005.3234541035.107447637.643748076.2288822827.6389711338.2485032502.3175012986.1318433297.3158661146.1377165684 1.2453298768.6116216636.6080312468.3493054264.5944537074.384577487c.3904047852.2701689747.7701716878.5670611849 1.1251352367.9076981462.1774450288.1702477843.3485514227.3514263181.5099569495.5460806716s.3121180523.403980927.4470850414.6293175139.2533616636.4675532965.3454831561.7262368269.156959296.5333009394.1864109817.8147487075c.0147166565.1406531876.020834817.2826767976.0180053974.4242871056s-.0143124536.283013965-.0336039508.4217529119-.0466486776.2780978893-.0852500449.4151292252-.0883183116.2720179626-.1532663523.3993475997-.1441534164.2469261716-.2375426358.3503386973-.1997313013.1903364355-.3125222551.2576611518c-.0564597818.0335535945-.1144812564.0625281956-.173237645.0871414158s-.1183946744.0448323879-.1782166887.0612339504c-.1197175199.0328031251-.240298564.0507165028-.3597404911.0580254219s-.2380019572.0043722999-.3550186675-.0060146313-.2326922023-.0280936579-.3469346116-.0509231538c-.2285215642-.0458547664-.4514761536-.1124180945-.6700212579-.1906083022l-.643362246-.2678414532-.6226744119-.3180793667-1.1984607249-.7356775008-.5804352194-.404057104-.5700913023-.4226447741-.5606292822-.4389158202-.551571465-.4539469605-.2724694322-.2323083386-.270099334-.2360606854-.2676189987-.2400958179-.2646793419-.2456971473-.0217534597-.0195448329-.0022047426-.0325420922-.1436757222-2.2273713499-.1315496382-2.2214872349zm.0810426612.1094162595l.1644003021 2.1668878688.1522742181 2.1610798885-.0239582023-.0520107906.1360142419.1137885594.1369880031.1130489663.2755193261.2236181207.2771912559.2207576361.2787162027.2179515332.5620072463.4268865575.5681988983.4143134764.5749601088.3996847617.5824562333.3823152025.5907056451.361345608.6002222095.3344156577c.4037434777.2111864378.81446864.4026866499 1.2336636883.546417839.2093770499.0720341835.4208853509.1316367.6328529733.1719553952.1059929976.020023393.2120962323.0350654096.3176666543.0433314491s.2106998954.010115022.3140839477.0027299683l.1535051993-.0178372431c.050506977-.0084726905.1003157856-.0194795746.1491508329-.0330750343s.0965309775-.0304864588.142940808-.0500312916.0912579683-.042581001.1344341763-.0685537671.0845151307-.0551540608.1235390737-.0878919277l.0571946961-.0510536596.0537589722-.0559045302c.0695045086-.0774288646.1293632686-.1674416867.1794109242-.2667537952s.0903944442-.2076951078.1224367024-.3213531507.0554676478-.232852157.0722604368-.3545805072.0270264689-.2441962086.0295068043-.3668707603-.0026640639-.2451533289-.0153045878-.3668163785c-.0250422007-.2433043464-.0805833398-.4825083021-.1613871539-.7112600685s-.1858965419-.4476604199-.30798416-.6543440361l-.1953953076-.3011992518-.2161198875-.2841777364c-.1499776113-.1841151531-.3107952068-.3576476004-.478961944-.5218807533l-.5239203189-.4674119037-.554345766-.4227209087-.5760441072-.3855998655-.5920836091-.354232421-1.2178440864-.632808828-.309876564-.1445469273-.3114933752-.1401093692-.6276534555-.2664818861-.6329632104-.2499389307-.3182362128-.1190527213-.3192834655-.115376509-.6416903163-.2189739117-.3222782407-.1033363699-.161515764-.0498246407-.0808221869-.0243956928-.0404019071-.0119640045-.0199712928-.0058732386c.004666705.001152895.0117035083.0005438184.0184096002-.0036218305s.0124567954-.0113549279.0150657407-.018663847z" class="B"/>
            <path d="M24.1985555834 12.796644553s-1.0746282597-5.3184894439-6.9135949742-5.4612635232c-5.2194155623-.1276015464-7.0237584842 5.4612635232-7.0237584842 5.4612635232-.7815444847 2.8555250924-.1768754703 17.4546240355 7.0801447735 17.4546240355 5.5221268398 0 8.1273057436-9.1789698426 6.8572086849-17.4546240355z" class="G"/>
            <path d="M21.1558822682 28.443941881c-.2455715733-2.43985207-.932036536-6.2356065246-3.7338785372-6.2948718524v-.0005438184l-.0286432802-.0001305164-.039023943-.000206651-.039023944.000206651c-.0095722561.0000652582-.0190342762-.0000761346-.0286249062.0001305164v.0005438184c-2.9502026758.0624085981-3.5278635941 3.9097605412-3.7450858529 6.3504392152.9958822053 1.0811551388 2.2450709557 1.7516940864 3.7998737039 1.7516940864 1.4665764287.0000652583 2.7634427364-.4955708197 3.8144067596-1.8072614492z" class="C"/>
            <path d="M17.4072687016 24.7007420355s-1.6023516967-1.2477042783-1.8477395414-.642510548c-.3908089881.9638093274 1.8477395414.642510548 1.8477395414.642510548z" class="B"/>
            <path d="M17.4072687016 24.7007420354s1.507694876-1.2071136738 1.7179905686-.822394794c.5373141298.9830061165-1.7179905686.822394794-1.7179905686.822394794z" class="B"/>
            <path d="M17.4072687016 24.7007420354l.0304254471 1.1198416991" fill="none" stroke-width=".1" class="E"/>
            <path d="M15.7295883014 26.1997665431l1.7262949732-.1068929422 1.6290843257.1068929422s-.2781282715 2.2264794877-1.7518701134 2.2139064065c-1.1679623685-.0100497638-1.6035091855-2.2139064065-1.6035091855-2.2139064065z" fill="#ea6a49"/>
            <path d="M12.8012676326 18.8468416367c0-.9492023337.4211793166-1.7133542104.9443279756-1.7133542104s.9443463485.7641518767.9443463485 1.7133542104-.4211793166 1.713343334-.9443463485 1.713343334-.9443279756-.7641518448-.9443279756-1.713343334z" class="B"/>
            <path d="M20.1870632775 18.8468416367c0-.9492023337.4211793166-1.7133542104.9443463485-1.7133542104s.9443463484.7641518767.9443463484 1.7133542104-.4211793165 1.713343334-.9443463484 1.713343334-.9443463485-.7641518448-.9443463485-1.713343334z" class="B"/>
            <path d="M15.2886214206 7.5871580666c0 .0001413928-.5502486194 5.1024521515 1.998066237 5.1024521515 2.2096297821 0 1.9951818244-4.0270404146 1.8991285411-5.0975251569-.5694115067-.1478315903-1.2007579777-.2394867413-1.9008004709-.2566387732-.7309823981-.0179025013-1.3949589151.0764064834-1.9963943072.2517117786z" class="C"/>
            <path d="M14.4413204895 14.9221152134c-.0032336224.0010223786-.0073307689.001359546-.0110237127.0019033644l-.0115014069.0015770733-.022727221.0025994519-.0448665107.0045136926-.0871608218.0073089191-.166421316.0116159608-.3079657872.0221442847-.2802044039.0319221393-.2577527758.051934656c-.1660722319.044364704-.3220577666.1136580429-.4868622714.2195938647l-.1246230721.0865976399c-.010858357.0073089192-.0208899356.0159882606-.0315278183.0239171327l-.0320238854.0244065692-.0321524954.0254180714-.0162783491.0128558667-.0161129934.0133888087-.032960901.0267232355-.0329057824.0279522651-.0675386131.0574163453-.0344674751.0297251131-.0353861177.0300731568-.073877248.0612339504-.0022598611.0017075897c-.0283493145.0215352081-.0660320391.0118334881-.084221165-.0217309827-.0065774819-.012094521-.0097008672-.0255594642-.0096457486-.0389591493l.0016719297-.0563178322.0016168112-.0280175233.0023700983-.0278108723.0066509733-.0551540608.0038031809-.0276150977.004666705-.0272670539.0104541542-.0544035915.0125302868-.053859773.014018488-.0536531221.0164069591-.0527612599c.0449583749-.1408598386.1108250583-.2749545765.1939622249-.3977705211.0421840739-.060690132.0877854988-.1195312814.1385864415-.1728472361s.1048355078-.1032602354.1627283723-.1472768956.1187988772-.0829105513.181836141-.1162574948.1283343887-.0602115718.1944950378-.0818120382.1332766865-.0375234687.2004662154-.0470185377.1343974307-.0131277759.2008336726-.0111374006c.1329459751.0038937397.2625480908.0302689315.384745946.075862665s.2374323988.1103733799.3424883808.1929358874c.0524728724.0415586011.1025756467.0871414583.1492243242.1385322959l.0674283761.081126827.0313992083.0443538277.0150106221.0234494488.0149371307.0252222968c.018942413.031911263.0124200497.0759279232-.0145329279.0982788589-.0058976863.00485086-.0122363211.0083312977-.0188321758.0103869312l-.0164988234.0049922528z" fill="#cd8e6c"/>
            <path d="M20.1620761953 14.8082505195l.0149555036-.0252222968.0150106221-.0234385724.0313992084-.0443647041.067428376-.0811268269c.0466854233-.0513908376.0968065704-.0969736948.1492059514-.138532296.1051294734-.0825625075.2202354069-.1471463792.3424883807-.1929358873s.2518734624-.0719689254.3847459461-.075862665c.0664546148-.001979499.1336441437.0016423315.2008336726.0111374005s.1343239392.0256355988.2004845883.0470185378.1313842825.0485303528.1944766649.0818120381.1239432764.0723060928.181836141.1162574948.1121111581.0939065591.1627283723.147287772.0964023675.1121462278.1386048143.1728363598c.0831187938.1228159445.1490405957.256986817.193962225.397770521l.0163885862.0527612599.014018488.0536531221.0125302867.0538597731.0104541543.0544035914.004666705.0272670539.0038215537.0276150977.0066326005.0551540608.0023700982.0278108724.0016168112.0280283996.0016719298.0563178322c0 .039840135-.0273020618.0721647-.0609611312.0721647-.012126084 0-.0234988809-.0042309071-.032960901-.011474568l-.0021863697-.0017075897-.0738956208-.0612448268-.0353861178-.0300731568-.034467475-.029725113-.0675386131-.0574163453-.0329057825-.0279522651-.0329609009-.0267232356-.0160946206-.0133888087-.0162783491-.0128558666-.0321524953-.0254180715-.0320422583-.0244065692-.0315278183-.0239171326-.1246230721-.08659764c-.1648045049-.1059249454-.3207900396-.1751639025-.4868622714-.2195829883-.0829534381-.0224923285-.1684974486-.0384153309-.2577527758-.0519455324l-.2801860311-.0319221393-.3079657872-.0221442847-.1664396889-.0116159608-.0871608217-.0073089191-.0448481379-.0045136926-.0227455938-.0025994519-.0114830341-.0015661969c-.0036929437-.0005546948-.0078084632-.0008918622-.0110237127-.0019142408l-.0162783491-.005057511c-.031821784-.009908371-.0508009427-.0485303528-.0424412939-.0862604725.0018556583-.0079941303.0049606707-.0157163514.008837343-.0223400594z" fill="#cd8e6c"/>
            <path d="M13.5416018047 18.5790655054c0-.5231968079.2061985461-.944395011.4623345106-.944395011s.4623161378.4211982031.4623161378.944395011-.206198546.9443840922-.4623161378.9443840922-.4623345106-.4211982172-.4623345106-.9443840922z"/>
            <path d="M20.4020991666 18.5790655054c0-.5231968079.2061985461-.944395011.4623345106-.944395011s.4623161378.4211982031.4623161378.944395011-.206198546.9443840922-.4623161378.9443840922-.4623345106-.4211982172-.4623345106-.9443840922z"/>
            <path d="M18.800261847 27.2236351732c-.4926314195-.4295403912-2.4687054125-.3725482243-2.7773692963-.0818011618.2488602424.6001362193.6692127806 1.2663681253 1.3102600548 1.2718389383.775720282.0066237079 1.2201045856-.6071841056 1.4671092415-1.1900377765z" class="D"/>
            <path d="M11.2283491859 22.087977471c0-.5626888851.4678831127-1.0156787252 1.0490532463-1.0156787252s1.0490532462.4529898401 1.0490532462 1.0156787252-.4678831127 1.0156787252-1.0490532462 1.0156787252-1.0490532463-.4530007164-1.0490532463-1.0156787252z" class="D"/>
            <path d="M21.4174382248 22.087977471c0-.5626888851.4678831127-1.0156787252 1.0490532463-1.0156787252s1.0490532462.4529898401 1.0490532462 1.0156787252-.4678831127 1.0156787252-1.0490532462 1.0156787252-1.0490532463-.4530007164-1.0490532463-1.0156787252z" class="D"/>
            <path d="M10.3629142475 12.8356689604l-.0686961029.3162303921-.0506172142.3257363375-.0671344103.6628819847-.0507458242 1.340860368.0243072865 1.3449716349.0842762836 1.3422960804.140037897 1.3356723086.197250966 1.3248721074c.1515393039.8783754588.3428374649 1.7470383213.5846058573 2.5945248957s.5345398288 1.6736337154.8948498784 2.4549593448c.1805684141.3901788164.3781684642.7686764138.5955744515 1.1295434191l.3411471624.5268730062.3728035907.493656579c.2590756213.3167089523.5400149394.6072493638.8419360574.8616258525s.6244198331.4730241095.9632703887.6472315714c.1693609727.0872067166.342708855.1634826835.5190147667.2286212499l.0663260048.0235799653.0331813752.0118226117.0332548667.0113440516.1338094993.0425048451.1348016335.0380672871.135646713.0338363801c.3628087578.0847486574.7331871317.1254153964 1.1044106648.126231124s.7401688084-.0423090705 1.1020589235-.1295157871.7152736704-.2216386218 1.0527462618-.399543369.6594568666-.3973578988.961708696-.6510600528.5844221288-.5425240993.8451696799-.8570469017.5019280121-.6531802647.7223838932-1.0106212142.4223184336-.731979549.60599186-1.1192217461l.4998518796-1.1952258039.4047172389-1.2481175802c.2399678526-.8461161521.4233656862-1.7156056184.559141081-2.595688667s.2226973694-1.7715754069.2663512717-2.6661457454c.0867015004-1.7893474237.0014882012-3.5920183659-.2528472236-5.3620275759v-.0001305164c-.0098662229-.0688909132.0292128386-.1341708724.0873996688-.1459173496s.1118723111.0334883363.1228409052.1008021762c.1447780935.8915032347.2441201178 1.7936544334.2981546828 2.6998407646l.0324464611.6803168022.0156904177.6813283045-.0011574898.6817416489-.0183544816.6815458212c-.0356065921.9083724492-.1175311503 1.8148415659-.2487868228 2.7122071628s-.3140288292 1.7853231357-.555742103 2.6524850594l-.4097330282 1.2816059165-.5110409479 1.2327492725c-.1887627071.4003590966-.3963024716.7893197598-.6252833572 1.1611175147s-.4795315025.7260954341-.7529379503 1.0557255112-.570256658.6335592973-.8890256836.9034563628-.6610185592.5027499023-1.0208325417.6904216277-.7364023813.3306524557-1.1214423648.4249070586c-.1926210066.0464747193-.3872814.080506874-.5827318262.1029230679s-.3917276308.0334230781-.5876557432.0320526557c-.3911580803-.0018381061-.7833450325-.0457133736-1.1684951814-.1367594479-.1925658162-.045517599-.3831290631-.1036735374-.5704954333-.1737934802s-.3716461008-.1520733738-.5515714649-.2457080236c-.3598691011-.1870626488-.7020635162-.4204586242-1.0200792548-.691585399s-.612422359-.5788185385-.8822277274-.9120704461l-.3870609257-.5179108792-.3521157565-.549702502c-.2237446221-.3755609781-.4259011402-.7675235188-.6099420237-1.1700687653l-.4989699826-1.2368496632-.0555411391-.1580118706-.0541448022-.1586318235-.0525831096-.1593170347-.0512051455-.1598499767-.1919963295-.6446314397c-.2422828323-.8647799991-.4323132664-1.7478649252-.5818866749-2.6390853743l-.3284515199-2.695740342-.0892553272-2.7213760046.0662157676-1.3630046526.033714188-.3402997939.0438743766-.3397450992.0576172717-.3389837534.0788930372-.3376242074c.0185382102-.0663023378.0789849015-.1023139914.1349669892-.0803763577s.0857277391.0918509256.0685307473.1574680522l-.0001837286.0007504694z" class="B"/>
            <path d="M13.7255140782 8.1622895164l.0264936562-.0175000757.025630132-.0164668208.0512602641-.0317154883.1028144938-.060896783.20821956-.1133208755.4245782947-.2015499706c.2863776831-.1238383231.5786897982-.2286756318.8751725512-.3147947116l.1113578712-.0314327027.1117069553-.0298012476.1120927853-.0277456141.112386751-.0260489008.4525784531-.0862495962.4562714687-.0570030433.4585680845-.0265818428.4593948449.0049269946.2294585799.014965882.229054377.0222748012.4557387277.0706746375.4509617137.1044240067.0560555791.0149006238.0557064948.0164776972.1113394983.0331402925.1107331941.0360225299.055302292.0182505451.0549532078.0196753493.1097961785.0394377094.1089694001.0425157215.0544387679.0213938153.054034565.0228186196.1079405202.0458003845.4234942963.206944649.0521237882.0279522651.0260343348.0139435035.0257954877.0146939728.1029798495.0588411495.1018958511.0613753432.1011976826.0627457655c.0498088085.0311607935.0688063401.104228232.0424780396.1632107743s-.0805282213.0785273751-.1284446259.0554912282l-.0028294196-.0013704223-.1026307652-.0504337172-.1028144938-.0496179897-.1030900866-.0483889601-.0257403691-.0120945209-.0260343349-.0113440516-.052013551-.0227642376-.4188092184-.1700411333-.1058643876-.0377953779-.0528770753-.0189357563-.053281278-.0174891993-.1063972004-.0352068024-.1069667589-.0324550813-.0534466338-.0162057879-.0537405994-.0149006238-.1074260803-.0299970223-.107958893-.0271365375-.0539610737-.0135302015-.054163175-.0123664301-.1082896045-.0245370856-.1086938072-.0219376337-.1088775358-.0205128296-.0544938864-.0098322364-.054549005-.0092992945-.1093369289-.0169453809-.0547143607-.0076569629-.0547878521-.0073850537-.0547694793-.0073741773-.0548429707-.0062974169-.1097410599-.012094521-.4402135939-.0296598548-.4410954818-.0025341937-.4409117713.0239932673-.4397542725.0491394294-.4377883052.0732632131-.1090428915.0220137683-.1088224172.0236452235-.1086386887.024874253-.1083998415.0264513264c-.288913137.0721755763-.5752908201.1599261112-.8581041695.2620334516l-.2113245724.07956063-.2097261342.0852272177-.2074111544.0918509255-.1025205281.0483237019-.0506172142.025080904-.0250605735.0125730811-.0238295923.012301172-.0033622324.0017075897c-.0516093483.0266579773-.1116885825-.0012290296-.1342688207-.0623977217s-.0016168112-.123359763.0434701738-.153291527z" class="B"/>
            <path d="M11.3274707359 10.9279431821s-.3820451364-4.0215696016 1.2787323004-5.4493749735c0 0 .6187058753 3.0340599891 1.7584475314 3.3195972714 0 0-1.3764207678 2.2012028091-3.0371798318 2.1297777021z" class="C"/>
            <path d="M11.2633311009 11.0217844831c-.0080289374-.0084726905-.0159843834-.0194143165-.0223413911-.0319221394s-.0109685941-.0263751917-.0135591666-.0395029676l-.0015065741-.0088859924-.0002388471-.0015009388-.0004593213-.0030018775-.0017270484-.0119640045-.0032887409-.0236452235-.0061732791-.0470294141-.0112625598-.0936237735-.019328243-.1869973906-.0282941959-.3743972068-.0189975315-.7509696871.0335488323-.7513286072.0948957935-.7459883107c.043176208-.2467956604.0988275843-.4912637781.1698937855-.7303372175s.1574186174-.4725346729.2621255152-.6954125209.2277315315-.4346740368.3700844082-.6279470916.3035195563-.367838757.4801010609-.5171060279c.045840272-.0387524982.1095022129-.0261794171.1422426396.0280936579.0102153071.016945381.0162232305.0359463954.0182442445.055219319l.0002204743.0025341937.0028845381.0286265999.003417351.0302145496.0076798531.0609620412.0177665503.1222721261.0434150552.2438590412.1142424093.4803221522c.0879692274.3158925449.1994373356.6223559588.33804215.9094050562s.3050812489.5539334091.5016340464.7844688998c.0982029073.1152242398.2037733292.2210948034.3161049617.3155451809s.2313693567.1771542778.3556065988.2472089624l.0004593214.0002719092c.0506172141.028572218.0721501996.1003344924.0480266416.1603394132-.0024252167.0060146314-.005548602.0122359137-.0086536144.0175653339h0l-.0168662805.0308888844-.0165723147.0291812947-.0335304595.0572749525-.0693942714.1116132858-.1462662947.2152106885-.3189894998.402828032c-.2235241479.2565082569-.4685077898.4888057191-.7333524874.6875604632s-.5499546538.3635969736-.8508285191.4773855329c-.1503818141.0567963924-.3044565719.1007477944-.4604788523.1297876963l-.2352276562.0317807465-.1181190816.0071131445-.02954355.0008157276-.0295619229.0003480438-.014771775.0001305164c-.0119056097.0003480438-.0254096578-.000206651-.0384543845-.0022514081-.0261996905-.0036979651-.0520686697-.0136715943-.0728483681-.0250156458zm.1282608973-.1876826018c-.0017821669-.0121597791-.0087087331-.0229600123-.0160946206-.0276042213s-.007569616-.0034151795-.0099397143-.0034913141l.0136877766-.0015661969.0273571804-.0032194049.0273020618-.0036870886.054549005-.0077222211.0543836493-.0090165089.1081793673-.0211871644.1074260803-.0254289477c.1427019609-.0368382576.2831440607-.0851619595.4205362666-.1438617162.2749497676-.1171493569.5374794856-.2755092712.7854211571-.4629090874s.4816627536-.4035785014.7020083976-.6383448991l.319853024-.3665988512.1517597782-.1930772801.0733076894-.0988335537.035863812-.049748506.0339897808-.0487261275.0398323486.1781005218c-.1349118706-.0761345742-.2642751391-.1660821355-.3860687916-.2683852504s-.2358707061-.2168638964-.341569738-.3409088705c-.2115634196-.2481008246-.3887144827-.5332356813-.5351093874-.8360663883s-.2629522936-.6242708793-.3547247018-.9537588839l-.1190928429-.5007697236-.0453809506-.2549203071-.0187586844-.1289067105-.0081942932-.06512769-.0037480623-.0329445179-.0017270483-.0167496063-.0017454212-.0179025013.1606522398.0858471705c-.1634816594.1381842522-.3127611022.2994807858-.4448251803.4791583809s-.2472986216.3774099606-.3456668846.5868126688-.1803479398.4305077082-.2479416715.6580957032-.1209852469.4618105743-.1625446438.6992416821l-.0916254253.7206354974-.0326118168.7300000501.0185382102.7318381563.027522536.3645540939.0187770573.1812546685.0107848656.090001943.0058241949.0446366132.0030682667.0220681502.0015616927.0109416259.0004042028.0026647101.0001653556.0013704224c.00012861.0009571203.0004042028.0019794989-.0010839984-.0060146314s-.0065958547-.0232427979-.0127140153-.03383638-.0138531323-.0193381819-.021588104-.025907508z" class="B"/>
            <path d="M11.2378663246 9.3454099229s1.4208095842.162460305 2.2960556269-1.2846186703" fill="none" class="E F"/>
            <path d="M11.5981396285 7.0498328711s.477565607.3819127769 1.4030246611-.1748267351" fill="none" class="E F"/>
            <path d="M23.083984738 10.9271274546s.3820267636-4.0215696016-1.2787323004-5.4493749735c0 0-.6187242481 3.0340491127-1.7584659042 3.3195972714 0 0 1.3764207678 2.2011266745 3.0371982046 2.1297777021z" class="C"/>
            <path d="M23.0198634758 10.8332861537c-.0077349718.0065584498-.015414825.015585835-.0214778669.0262446754s-.0103990357.0226228449-.0126956425.03383638l-.0011023713.0060146314.0001653557-.0013704224.0004042028-.0026647101.0015616927-.0109416259.0030682667-.0220681502.0058241948-.0446366132.0107848656-.090001943.0187770573-.1812546685.0275225361-.3645540939.0185382102-.7318381563-.0326118168-.7300000501-.0916254254-.7206354974c-.0415593969-.237496366-.0948957935-.4716428108-.1625446437-.6992416821s-.14951829-.4486175403-.2479416715-.6580957032-.213400705-.4072003319-.3456668846-.5868126688-.2813986395-.3409741287-.4448251803-.4791583809l.1606522397-.0858471705-.0017270483.0179025013-.0017454212.0167496063-.0037480623.0329445179-.0081942931.06512769-.0187586844.1289067105-.0453809506.2549203071-.1190744701.5007697236c-.091790781.3294880046-.20834817.6505039985-.3547430747.9537588839s-.3234908491.5879003055-.5351093873.8360663883c-.1056990319.1239797159-.2198128312.2385187445-.341569738.3409088705s-.251156921.1922506762-.3860687916.2683852504l.0398323485-.1781005218.0340081537.0487261275.0358454391.049748506.0733076895.0988335537.1517597782.1930772801.319853024.3665988512c.220345644.2347663977.453956489.4508798247.7020083976.6383448991s.5104713894.3457597305.785421157.4629090874c.137392206.0586997567.2778343058.1069582004.4205362667.1438617162l.1074260803.0254289477.1081793673.0211871644.0543836493.0090165089.054549005.0077222211.0273020618.0036870886.0273571803.0032194049.0136877766.0015661969c-.0023700982.0000761346-.0064121262.001033255-.0099397143.0034913141s-.0144226907.0150311402-.0162048576.0272670539zm.1282608972.1876717254c-.0207796984.0113549279-.0466486775.0212632989-.0730872152.0251570386-.0130447267.0020447571-.0265487747.0025994519-.0384360116.0022514081l-.0147901479-.0001305164-.02954355-.0003480438-.0295619229-.0008157276-.1181007087-.0071131445c-.0787460544-.0063517987-.1571981431-.0174239411-.235246029-.0317807465-.1560222804-.0290399019-.3100970383-.0729913039-.4604788524-.1297876963-.300910611-.1137885593-.5861491771-.2787721816-.8508101462-.4773855329s-.5098467124-.4310522063-.7333524874-.6875604632l-.3189894998-.4028171556-.1462846675-.2152215649-.0693942715-.1116132858-.0335304595-.0572749525-.0165723147-.0291812947-.0168479076-.0308888843c-.0323362239-.0542621987-.0213676298-.1293091361.0245277608-.1675830742.0046115865-.0038284815.0094069015-.0071784027.0143124536-.0099736292l.0009921342-.0005546948c.1242188692-.0700546846.2432565936-.1528891013.355588226-.247198086s.2179204272-.2003209411.3161049617-.3155560573c.1965527974-.2304593561.3630476049-.4976917115.5016340464-.7844688998s.2500729226-.5935777695.3380421499-.9093941798l.1142424093-.4803330286.0434150552-.2438590411.0177849232-.1222612498.0076614803-.0609729176.0034173509-.0302036732.0028845382-.0286374763.0001653557-.0019794989c.0067060919-.0662262032.0575070346-.1133861337.1133788851-.1054572616.0174358389.0024580591.033714188.0103869312.0471079989.0216004663.1765815046.1492563945.3379319129.323680704.480101061.5170951516s.2654326289.4052208329.3700844082.6279579679.1911328054.4564043398.2621255151.6954125209.126662459.4835415571.1698937856.7303372175l.0948957935.7459883107.0335488323.7513177308-.0189975315.7509805635-.0282758231.3743972068-.0193466158.1869865142-.0112625598.0936346499-.0061732791.0470185377-.003288741.0236452235-.0017270483.0119640045-.0004593214.0030127539-.0002388471.0015009387c0 .0000652582.0001102372-.0000652582-.001506574.0088859925s-.0071470404.0269951447-.0135591667.0395029676-.0140184879.0232319215-.0220474254.031704612z" class="B"/>
            <path d="M23.1735707766 9.3445941954s-1.4207912114.1624494286-2.2960372541-1.2846186703" fill="none" class="E F"/>
            <path d="M22.8133158455 7.0490062671s-.4775656071.3819127769-1.4030246611-.1748267351" fill="none" class="E F"/>
            <path d="M15.3937876397 25.9652720546c.530222208 1.1767686078 2.2399999761.8007943277 2.017761937-.4883271589" class="C"/>
            <path d="M15.4448825481 25.9330127479c.0341735094.055219319.0699638299.1076434115.1084182144.156369539l.0143675722.0182505451.014900385.0175653339.0302417185.0343040638.0630923824.0643119625c.0863524161.0818772963.1820749881.1472225137.2833829078.1955353392s.2079806412.0805177504.3164539741.0955488906c.0541448022.0082007813.1088040444.0114854444.1633530494.011148277s.1089877729-.0051989038.1628569823-.0134649433c.1077016731-.0172281665.2129965022-.0515322303.3103910039-.1034125045.0061732791-.0030018775.0121812026-.0064931915.0181156346-.0099736292l.0179502788-.010321673.0351656435-.0221442847.0343388651-.0236452235.0331446295-.0255594642c.0432313266-.0355439697.0838169622-.0749816792.1197726385-.119607416l.013504057-.0167496063.012879371-.017358683c.0088924616-.0113440515.0165723148-.0237104816.0247114893-.0358050026l.006063042-.0090926434.0055302292-.0094298108.0112625598-.0189357563.0212390198-.0389591492c.0267325033-.0531745619.0482654877-.1105147726.0641947528-.1711396464s.0262731828-.1243168833.0314543278-.1899992681.0049055521-.1331267412.0013963369-.2017457453l-.0000551186-.0011637713c-.0016903026-.0325312159.0192731244-.0605596156.0467405419-.0625391145s.0433599366.0155097004.0503416213.040253437c.0201550124.071425107.0339530262.1463306516.0403651524.2234223461s.0051811449.1563042809-.004795315.2351796997-.0288637455.1571852666-.0566986201.2313403419l-.0222678996.0548821516-.0124200497.0267232356-.0062835162.0133344268-.0067612105.0129102485-.0281655859.0510536702-.014900385.0249503876-.0158741474.0239932672c-.0428822413.0633548421-.09166217.1210322203-.1449985666.1709221191l-.0406407631.0363596974-.0420922097.0336949872-.0434150552.0308997608-.0221025439.0144873218-.0222862726.0140087617c-.1197175199.0727193947-.2489154327.1185741611-.3798955125.1413383988-.0655175991.0116159607-.1316598753.0163363043-.1977102872.0164015625s-.1319538411-.0068303589-.197250966-.0183810615c-.130336958-.0243304346-.2581385339-.0707398958-.3761290055-.1414797915s-.2264638046-.1639612438-.3160498431-.2776192867l-.0636803137-.0883704879-.0289739916-.0465399775-.0140368608-.0235799653-.0130447267-.0243304346c-.0347981864-.0647252645-.0642498722-.1328657084-.0872710589-.2033989532-.011611644-.035609228.0033438595-.0755146212.0333651038-.0893276082s.0528770752-.0010223786.068053053.0235799652l.0007532871.0013051642z" class="B"/>
            <path d="M19.4292932665 25.5880687449c-.2489154327 1.2838029428-1.9018293596 1.309362407-1.9766436142 0" class="C"/>
            <path d="M19.4857530484 25.6033826707c-.0062835163.0731979549-.0189791587.1461892588-.0375173689.2178101404l-.0069816847.0269298865-.0080289374.0265165845-.0171418733.0527612599-.0409347198.1027925516c-.0601527256.1344427816-.1437308408.2558883038-.2429626279.3555375851s-.2138783993.1778286126-.3354515775.2323083386c-.0610162498.0265818427-.1237044293.0480409163-.1874949802.0628001473s-.1286100532.0239932673-.1937234496.026114159c-.1301165556.00485086-.2616661938-.0151072748-.3868771972-.0633548421l-.0234437623-.0092340362-.0232049153-.0101802802-.0458770177-.0218723756c-.0303152099-.0155097004-.0598220142-.0332816853-.0887960058-.0522826997-.0579479831-.0379258943-.1122765138-.0841287045-.1618648481-.1364114042-.0246379979-.02632081-.0481919974-.0541316823-.0701291856-.0835957625l-.0319320212-.0450390388-.0151208592-.0232319215-.0142573351-.0239932672c-.0378113346-.0640400533-.068696103-.133268134-.0923603306-.2047584991s-.0399977043-.1454387895-.0494046058-.2195938648-.0124200496-.1483754087-.0088924615-.2214428472c.0015616926-.0325964741.0251708106-.0574707271.0526382281-.055632621s.0413389137.0211871644.0459505001.046550854l.0002388471.0012290295c.0118872369.0656062502.0262548091.1292330015.0447930193.1901297845s.0409898384.1187916885.0677039688.172781978c.0532812781.1081219717.1234288366.1999728973.2060331904.2712566114.0409898384.0360877882.0855440106.066367596.1318436039.092275104l.0711764383.0346521076.0364884891.014759231.0184096002.006830359.0187035659.0060146313c.0997462271.0316502301.2044714977.0444952204.3088844298.0391658002.0521972797-.0029366192.1043761865-.0092992944.1558569965-.0209805133s.102410291-.0265927192.1519435067-.0467575049c.0994522615-.0390896657.1936131408-.0959513163.2791571513-.1677135906s.1614606454-.1601980205.2250123491-.2620334517l.0454360692-.0787992842c.0076247346-.0132582923.0140919794-.0273431886.0210185455-.0412214338l.0101601886-.0209805134.0096457486-.0213938153c.0256117592-.057198818.0479531502-.1172037388.0684572558-.1793295513l.0004593214-.0013704224c.0117218812-.0355439698.0455463063-.0531093037.0755675506-.0392963166.0249319635.0114745679.0393546543.0411452991.0368192004.0712837142z" class="B"/>
        </g>
    </g>
</svg>