<svg xmlns="http://www.w3.org/2000/svg" width="112" height="104" viewBox="0 0 112 104">
    <style>
        <![CDATA[.B{fill:#38140f}.C{fill:none}.D{fill:#5c3e32}.E{fill:#fcefd9}.F{fill:#eea698}.G{stroke:#38140f}.H{stroke-width:.5}.I{fill:#afcc50}.J{stroke:#5c3e32}.K{fill:#f3cea0}.L{stroke-width:.399782512}]]>
    </style>
    <g>
        <path d="M90.8082268209 83.5000116715c.1865135077 0 .3411983491-.1839233073.3445422168-.409812411l.0169670322-.8951073943.0085454396-.4475187838.0085454396-.4437481466.0137470116-.5968779161.0188247365-.4204260567.0052015719-.1355334623.0310855846-.6336067162.0291040334-.637307527.0651434961-.9685649946.1050222142-.0895875487c.286086456-.2182780026.60759314-.4005254711.8909549632-.5614758217l.1150538171-.0659163257.4844892711-.2752565215.1689272407-.0957322909.5082678856-.289710631 1.3230569741-.7536386697c.4593483401-.256054202.9962248713-.5762790643 1.4956996234-1.0101118314.2307268691-.2000532557.421822714-.4211243228.5679621158-.6579063787.0307140438-.0511829098.0538734236-.1091390013.0766612625-.1661175202l.0286086456-.0714326284.0962290807-.246418129c.0459472187-.1235232842.0760420277-.247116395.0946190703-.388515293.0156047158-.114655304.0173385731-.225121011.0156047158-.3397763149l-.0325717481-.5254452877-.0655150369-.4924871247c-.0292278803-.162696016-.0858259368-.3219705277-.143043228-.4698633011-.0535018827-.1400721922-.1396993604-.2646428757-.1998889784-.3459908837-.12062693-.1609503506-.2977280694-.2566826415-.4553852376-.3287437095-.0776520381-.0350529614-.1756149761-.0525794421-.2919072628-.0525794421l-.0636573326.0020947985c-.1280577471.0037706373-.2614409129.0339357355-.4187265403.0950340248-.2839810579.1094881343-.5594166762.2752565214-.8671763487.5220237834l-.7648787674.651133197c-.2330799611.2175797363-.4608345034.4715391398-.7170738444.7986070105l-.5155748557.7094384216-.1098522452.1568305802-.6976298732 1.0522871076-.1528271372.2402733867c-.0271224822.038753772-.050158015.0809988749-.07269816.1218474454l-.0390117895.072061068-.0754227929.1297378531-.0755466399.131762825.1519602084-1.3038025795.0297232682-.2797254249.1546848414-1.1854464649.0876836411-.6840913598.0413648815-.3194567696.1442816975-1.020725477.0169670323-.1008994605.0170908792-.1008994606c.1853988852-.1424462972.3631192594-.3318859072.5061624874-.4839682775l.1025452752-.1101864006.5719252182-.5556103858.5259779996-.3744801432.1025452751-.0710136688c.4161257543-.2763039207.6915613726-.4544316189 1.0114580462-.596528783l.4260335104-.1684916251.1202553891-.0446192079.0565980564-.0212971179.092885213-.0367288002.0927613661-.0367288002.2031089991-.098804662c.0416125755-.0254168884.082977457-.0566992125.1211223178-.0895875487l.6475957051-.5347322276.5999146291-.5542836802c.0456995248-.0415468367.0876836411-.0875625768.1302869921-.1342067565l.077899732-.0868643107.0463187595-.0504148169.190848151-.2114349942.0551118931-.0700360961c.2704817403-.342499553.52473953-.6637718146.7222754164-1.0354588931.0781474258-.1465660676.1344977884-.280423691.1722711084-.409812411l.0102792969-.0507639501.0273701761-.1740079278c.0055731127-.1005503275.0085454396-.18943961-.0102792969-.2663187146-.0691065985-.3411728472-.2657755562-.6246689093-.5128502228-.7396035198-.0858259368-.0404994374-.183293487-.0604000231-.2971088347-.0604000231-.1326400842 0-.278779486.028768566-.4602152687.0912633875l-.1083660819.0387537721-.2507900751.0892384156-.4967501192.1918835416c-.306397356.1190543808-.6266655704.2756056545-.9507730403.4653943976-.6120516303.3569536625-1.1647805712.8322634396-1.6420867191 1.4133605405s-.8912026571 1.2640014082-1.2649727543 1.914785472l-.2078151832.3740611835.0663819656-.2927830021.0842159264-.3970341403.0463187596-.2015196146.2577255043-1.1702940891.2578493514-1.1683389439.2422446355-.9277164241.1047745203-.3758068489.1735095779-.6239706432.0273701761-.0967796902.2273830014-.0819764475.0447087492-.0175264807.1134438068-.0467140063.092885213-.0387537721.0565980565-.0233220898.6306286729-.2577300408.0843397734-.0329581629.1338785537-.0521604823 1.0857662166-.4029694027.2011274479-.0679412976.0772804972-.0250677553.4069610799-.1297378531.7197984774-.2114349941.7491502047-.2168814702.5191664172-.1684916252.0824820692-.0271625537.1014306526-.0349831348c.0808720588-.0270927271.1549325353-.06005089.2288691648-.0971288232l.0787666607-.0367288002.4090664781-.1939085134c.1041552855-.0576767851.2097967344-.1448204022.2967372938-.2450914232.0837205387-.1101165739.1538179127-.2337096848.2206952661-.3887945996.0490433925-.1139570378.1035360508-.2508870323.1361077988-.4019220034.0398787181-.1822474685.0395071773-.3600260336.0361633096-.5127368435-.0035915616-.1383265268-.0215493694-.2653411419-.0535018827-.3772033812-.0408694937-.1616486167-.122980022-.2955062402-.1966689577-.4084158787-.0188247365-.0284892595-.0432225858-.0504846436-.0670012003-.0714326285-.0608088528-.0593526238-.1161684397-.1039718316-.178339609-.1448204022-.0910275087-.0617965554-.2042236216-.11081484-.3362444711-.1458678014-.1711564858-.0541854543-.3543261259-.0816971411-.5439358074-.0816971411-.0843397734 0-.1704134041.0058654358-.2547531775.0175264807-.2119021326.0274418602-.4121626519.0854677784-.632857918.1530599429-.3097412236.0899366818-.7158353749.2159038976-1.1088017494.3915876642-.5791083414.2526326978-1.1257687817.5865435769-1.624624299.9925853507-.3649769637.3026983816-.7326785603.6747345932-1.1569782133 1.1707130488l.115425358-.2168814702.1841604157-.6246689094.8968996168-2.9313911787c.0423556572-.0078904077.1044029794-.0374270664.1868850486-.0865151776.0582080668-.0349831348.1200076952-.0658464992.1816834766-.0946848917l.1032883569-.0525096155.1752434352-.0872134437.1117099495-.0541854543.0411171877-.0192023195.0858259368-.0404994374.0739366295-.0350529614.07554664-.0349831348.047681076-.0192023194.0636573326-.0271625538.4531559926-.1702372905.2115305917-.0696171365.4192219281-.1356032888.6993637305-.2577300408.1031645099-.0404994374.0943713764-.0367288002.3798385977-.1492893056.4812692504-.1881129043.8484754591-.3236463666 1.5401606786-.6451979345c.308874295-.1537582091.5916168834-.3291626693.8409207952-.521744477.1348693293-.1025752993.2501708403-.2062678245.3528399625-.3163843984.1159207458-.1211491793.2105398161-.265341142.2894303237-.4410249086.070221221-.1448902288.1235992568-.2958553732.1637256688-.4619728934.0380210139-.1431445634.0447087492-.2982993048.0206824408-.488437181-.0136231646-.11081484-.0513964846-.2182780025-.1035360508-.357582102-.0486718516-.1307852524-.1311539208-.2663187146-.2516570038-.4142813145-.1144345824-.1228250181-.238653074-.2161832041-.3506107174-.2628972104-.0861974776-.045666607-.1914673857-.0713628018-.3415698899-.0837221129l-.3009480902-.0192023195-.0465664535.0020249719-.7271054474.038753772-.627656346.0834428065c-.3098650706.0562802527-.6264178766.1496384387-.9682354605.2848227679-.5483942976.2166021637-1.1166041073.5635706201-1.7363342485 1.0605266483-.5435642665.4513592477-1.0363512833.9534824455-1.4646140387 1.4926835765l-.4537752273.6009278599.1341262476-.2110858611.296241906-.966121063.2163606228-.7053186513.2148744594-.7052488245.0584557608-.1918835416.1442816975-.4650452646.1941920187-.5852168711.060189618-.1822474686.0494149333.0013965323c.0574649851 0 .0726981601-.0075412745.085454396-.0140351498l.0931329069-.0446192078.3643577289-.1843422671.3950717727-.2052204253c.1579048621-.06005089.3527161155-.0988744886.4951401088-.127014615l.1379655031-.0219255575.6549026752-.1551547414.2800179554-.0792532095.3384737163-.0930090529.6632004208-.1569004068.163230281-.0349831348.1065083776-.021297118.3935856093-.0871436171.7423386224-.201449788 1.1136317805-.3857920551.2336991959-.0851186452.6650581252-.2481637944.7767680746-.3353074114.1601341073-.0874927502.1165399806-.0617965555.5262256934-.3181300638c.271224822-.1781276982.5113640594-.392355757.7141015176-.6363299543.1831696401-.2413207859.3161812651-.4705612945.3959387013-.6816471555.0536257297-.1300869862.0873121003-.2704384849.1068799185-.4410249086.0398787181-.3332126129-.0295994212-.6479909992-.2002605193-.9105390765-.248436983-.3813231516-.7053083841-.4300621297-1.0757346136-.4300621297h-.0480526168l-.7463017248.0483898451-.1150538172.0134067103-.2374146045.0388235987-.2148744594.048389845-.2130167552.0483898451c-.0705927619.0154316822-.1413093707.0387537721-.2100444283.0620758619l-.0858259369.0291875256-.0788905075.0229729568-.2255252972.0738067334-.1201315422.0483898451-.2885633951.1122113724-.0962290806.0367288002-.2203237253.0930090529-.2112828979.0968495168-.1597625663.0737369068-.3813247612.1802224967c-.0448325961.0192023194-.0876836411.0425244093-.130658533.0659163257l-.0635334857.0349831348-.4808977094.2557050689-.7715665028.4358577389-.1098522452.0638215273-.0448325962.0250677553-.3059019682.1802222239c-.6515588075.3771335546-1.3178554022.8665483082-1.9801888944 1.4555358166.0191962774-.0978270894.0143662463-.1671649194.0070592762-.2409716528l.150597892-.3751085827.1390801256-.3291626693.0258840127-.06005089.0515203315-.1159820096.2422446355-.5463929998.2422446356-.5463932725.4948924149-1.0536836399.0447087492-.0930090529.2027374583-.4166554195.0705927618-.149289442.0344294523-.0738067334.1098522453-.2306373136.0515203315-.1005503275.2315937977-.1180768082.0447087492-.0253470617.0584557608-.0329581629.3710454642-.1973998442.7093953335-.3177808626.5426973379-.2089910626.5942176693-.172332089 1.0685514905-.2460690299.2319653386-.0483898451.78345581-.1763820157.4109241824-.1085105703.2489323709-.0658464949.1875042833-.0580259181.1716518736-.056280257.0720789253-.0233220899.0532541888-.0196212792.1701657102-.0600508815.1254569611-.0525096154.6083362217-.2656204654.190848151-.0930090189.190848151-.090984081c.2858387622-.1407006318.5737829225-.3181300638.8565255109-.5274703277.2696148117-.1925818077.51743256-.4280371579.7362701218-.7001514816.1315254616-.1904870092.1993935906-.3058405794.2499231465-.4255930899.0699735271-.1331593573.1153015111-.3033966478.1378416561-.5209763842.0292278804-.2152056314-.025017084-.4674891961-.1567902396-.7296881403-.0705927618-.1318326516-.1634779749-.2372010156-.2763025469-.313730987-.1430432281-.0950340248-.3220020718-.1166802759-.4182311525-.1283413208-.0697258332-.0137558434-.1317731555-.0175264807-.1923343144-.0175264807l-.2029851521.0096360731-.0481764639.0037706372-.4504313596.0542552809-.6567603794.1221965785-.1099760922.0233220899-.1910958449.0446192078-.4464682572.1335084903c-.3860309453.1142363443-.8446362037.292084736-1.3633072331.529215925l-1.0896054721.5292159249c-.519909499.2824486629-1.0400666918.6445693586-1.5900709998 1.1068913851-.2614409129.2268666764-.5116117533.4704918088-.7648787674.7444216245l.2042236217-.3521356259.5533481756-1.2403999437.1969166516-.4444464128.1312777677-.2996260105.0221686042-.050414817.0240263084-.052230309c.0329432889-.017456654.0697258332-.0751334391.087931335-.1382567002l.0640288735-.0597715836.1685556999-.1609503505.1050222142-.1263163489.0822343752-.0926599198.3228690004-.3603751667.7728049723-.7204014731.9651392866-.6874430375.2474462075-.1626960159.6135377937-.4516385542c.1893619875-.135952422.3704262294-.3140102935.5399727049-.4845967171l1.1392680993-1.2304148058.8260591611-1.0787513952.0764135685-.1036226985.0359156157-.0483898451.5107448246-.7502869921.2936411201-.4863423825.1494832695-.2344079509.1257046549-.2189762688.070345068-.12010178c.1326400842-.2399242536.2249060624-.4774045756.2823710475-.7262666361.1288008288-.4876690882.1053937551-.9946103225-.0653911899-1.4273956903-.0682396698-.167793359-.1315254616-.3229481004-.2240391338-.4468205177-.0818628344-.0861660445-.1202553891-.1266654819-.165831067-.1578779794-.0639050265-.0439907683-.1217415525-.0707343623-.1939443247-.0895875487-.0359156157-.0154316822-.0824820692-.0233919165-.1384608909-.0233919165l-.0517680254.0020947985c-.0492910863.0017456654-.0954859989.0127084442-.140566289.0233220898-.1424239933.0291875256-.2152460003.0700360962-.2632986171.0974779564l-.0513964846.0250677552-.2152460002.1184259413c-.2355569002.1643718547-.4474590329.3360056776-.6293902034.5100136054l-1.1480612328 1.1936860056-.5293218672.6046984971-.4693799431.5814462339-.0909036618.1142363443-.3232405413.4325060613-.4742099741.676061299-.0998206423.1434936965-.2889349359.4612746272-.0961052337.1609503506-.0876836411.1434936965-.4280150616.7227753053c-.351477646.6270430143-.6256747948 1.2167287889-.8388153969 1.8025740997l-.1426716872.4087650118-.1427955341.4066702133-.0787666607.2107367279-.1200076952.1716338229-.2817518128.4186806641c-.1148061233.1671649194-.2417492477.3878868535-.3987871812.6940067393l-.5170610191 1.0443967-.092885213.1956541788-.1183976848.2460688595-.092885213.1976791507-.1597625664.342848686-.1449009323.3106586159c.0016100103-.0085886738.0022292451-.0185738799.0022292451-.0295366586l.0188247365-.1678631856.0137470115-.06933783.0998206423-.6942860458.0617996284-.7595039691.070221221-1.6144614682v-.1569004068l-.0033438677-.6356316881-.032571748-.8991573381-.022540145-.2814710903-.0084215927-.0717119349-.0070592762-.090984081-.0344294522-.3026983817-.037649473-.2419492254-.0396310243-.2402733867c-.0471856882-.3294419757-.1275623592-.6596520442-.2389007678-.9812036122l-.1720234145-.4558281512c-.055359587-.1208000462-.1234754098-.2381785882-.2358045941-.4056926407-.0989537136-.1478927733-.2060813259-.2672962872-.3275751846-.3651233766-.130534686-.1105355336-.3070165907-.1286904538-.3652246575-.1345558896h-.0033438677c-.0958575398 0-.1366031866.0058654358-.1689272407.0116610449-.112948419.0182247469-.1704134042.045317474-.2245345216.0741558665-.0757943338.0349831348-.1190169196.0641706604-.1605056481.0971288233l-.0775281911.0679412977-.0624188632.084071246-.0465664534.0758317053c-.1248377263.2117841272-.2029851522.4177028187-.2395200026.629836079-.0486718516.3205739954-.0362871566.6139854371-.0240263085.8981797654l.0017338574.0617965554.0670012003.8490916542.0876836411.6105639329.0206824407.1279921876.1461394018.8409219401.1290485226.6548340076.1597625664.8329619786.3761231892 2.168046473.070345068.4667909299.0154808688.1163311428.0344294523.2594757743.0447087492.325741165.0448325962.3253221713.0806243649.677876791c.0108985316.1066950697.0864451715.204173026.1478732591.2553559699l-.2123975204.3534623317-.2614409129.5313106552-.560035911 1.1587030072-.0995729483.2073152238-.1923343145.3991289387-.1065083775.244044024c.0660104247-.1548056084.0906559679-.3644949371.1046506733-.8113852814l.0137470115-.3740611835c.0052015719-.0872135801.0018577043-.1781278346-.0014861634-.2742790852l-.0037154085-.1791052708-.0310855846-.82960996-.0169670323-.3215515681-.0066877353-.1122113724-.0085454396-.1163311768-.0085454396-.0988744887-.0102792969-.129737836-.0258840127-.2735108603-.0156047158-.1376282565-.0084215926-.0851186452-.0362871566-.2543783802-.0428510449-.2422983245-.0429748919-.24020356c-.0154808688-.0913332142-.0361633096-.180571698-.0584557607-.2639446778l-.0292278804-.1180768082-.2182183271-.8237445924c-.1634779749-.5912916505-.3999018037-1.125674745-.7033268329-1.5883459046-.1868850486-.2899899374-.3795909038-.5347322276-.5729159939-.7272442087l-.0583319137-.0580259181-.0463187596-.0462953194-.3165528059-.2986484379c-.1037837447-.0858169114-.2276306954-.1458678014-.3670823618-.2096893287-.107994541-.050414817-.2291168588-.0854677784-.3807055264-.1108846667-.0432225858-.0167583879-.0985821728-.0253470617-.1689272407-.0253470617-.0918944375 0-.1643449036.0185040533-.2221814296.0569785189-.055111893.0328883363-.1050222141.0699662695-.1515886676.1087898682-.0609326997.0590034907-.1148061233.1376282607-.1695464755.2477448346-.1814357827.338799015-.2514093099.6954035444-.2961180591.9994984584-.0465664534.3294419757-.0189485834.6956825782.0876836411 1.1528374351.0902844271.3651932032.233699196.7183062654.3852878636 1.077983166l.0824820691.2131806595.2029851522.4458430133.0222924511.0504148169.0858259369.184342267.3143235608.6973583957.163230281.3566045166.4086949372 1.0244960802.1597625664.4320871017.5773744841 1.5925357742.354078432 1.1216249376.0447087492.1530596702.1165399805.4145606209c.0188247366.0676619912.0310855847.1373489543.0411171877.2028463203l.0102792969.0676619912.0104031438.0620758619.0085454396.0521604824-.1543133005.371058639-.1771011395.4691650349-.1753672822.4612746272-.1135676537.3335617461-.037649473.1085105617-.0222924512.0638215273-.0428510449.1297378531-.200879754.6084691344-.200879754.608538961.1027929691-.520278118.0240263084-.3882359866.0052015719-.2385277213v-.1163311427l.005201572-.1451695353.0018577042-.0525096155v-.2117841272l-.0085454396-.2247718779-.0396310242-.5972270491-.0154808688-.1471945072-.0843397734-.6514125034-.0376494731-.222746906-.0463187595-.2673661138-.0532541888-.2574504615-.022540145-.095732291c-.120503083-.551211309-.238653074-1.0443966999-.4660360754-1.4988283188-.0808720588-.1592046851-.1789588438-.3084939908-.2650324745-.4382318438-.0858259368-.1356032889-.1753672822-.263944746-.2751879244-.384046526-.0946190703-.1101864006-.2123975204-.2262382368-.3594038509-.3552778238l-.5311795714-.4595289618c-.1171592154-.0912633875-.2263922259-.1599029513-.334139073-.2096892606-.0968483154-.0476915789-.2002605192-.0761808383-.346399921-.0954529844-.027741717-.0037706373-.055359587-.0057956092-.0845874673-.0057956092-.1229800221 0-.238653074.0256961948-.2964896.0408485705-.1409378298.0301650983-.2668901787.0936374243-.3643577289.1828758399-.0842159264.0775773707-.1551802292.1784768313-.2228006642.3171524913-.0510249437.1115829328-.0961052338.2419492254-.1341262476.388515293-.0448325962.2035445865-.0243978493.4187503543-.0018577043.6047684601.0188247365.1513142776.0532541888.2948079741.0876836411.4344612066l.0118893073.0483898451.158152556.5354304938.1476255652.4300621298c.0617996284.18015267.1358601049.3507390936.2097967344.5216746503l.0824820692.1994245434.2403869313.5734859996.2818756597.6761311256.489690843 1.2341854431.2681286482.6239706432.0551118931.1238724173.0515203315.1239422439.0240263084.0562802528.0292278803.0679412976.0221686042.0559311197.0429748919.1105355336.4792876991 1.2458464879c.1945635596.5762790643.3159335712 1.0677187898.3829347715 1.5468690308l-.0304663498.0747843061-.4760676784 1.5427492604-.4759438315 1.5461707647-.0655150369.2131108329.0189485834-.1258973892c.0102792969-.64219539-.0352963809-1.23837504-.1357362579-1.7724090014-.0575888321-.3552079971-.1455201671-.6919119409-.2459600441-1.0642972856l-.0617996283-.2381785882c-.0551118931-.2172306033-.1253331141-.4265707989-.1977835803-.6359808212l-.0396310242-.1180069815c-.0946190703-.2883140987-.2173513984-.5903840408-.3646054228-.897900459-.0575888321-.1238724173-.1421762994-.2717651906-.2580970452-.4519876873l-.1238469507-.1822474685c-.03777332-.0500656839-.08285361-.0888892826-.1263238897-.126665482-.1016783465-.0932883593-.1655833731-.1245706834-.2173513984-.1496384387l-.2255252972-.1050192309c-.0672488942-.029117699-.1361077988-.0466441797-.203356693-.0620758619-.2401392374-.0607491562-.4126580397-.0967796902-.5831952908-.1008994605-.1447770853 0-.2754356183.0305142313-.3986633342.0933581859-.120503083.0534871881-.2349376655.1407006319-.3603946265.2742091222-.1595148725.1705864237-.2930218853.4059719472-.4203365506.7416983183-.0943713764.2615006781-.1600102603.5683188301-.2063290199.9661210631-.0292278803.2645730492-.0033438676.5639197532.0772804973.8892419585.0655150369.2728824165.1741288126.5718101609.3424368186.9407740014.125456961.282797796.2758071592.553585414.3783524343.7327605114l.1131961129.2110160345.3213828371.5543535067.4157542134.6702656899.1032883569.1647209878.1390801256.2210710672.0875597941.1376282607.4158780604.6510633704c.1268192775.1980282838.2239152868.36959228.3055304273.5398295706.1110907148.2344079509.2023659174.5117592708.2197044905.5649671524l.1254569611.4125356491c.0204347468.06933783.032571748.139024793.0444610553.2086419295.0154808688.1008994605.0413648815.1980282838.0775281911.3030475147l-.1460155549.5237694489-.3384737162 1.1799301621-.2766740878 1.0248452474-.2781602512 1.032735655-.0858259368.3195265962-.0609326998.2272158094c.0018577043-.0178756137-.0008669286-.0377761994-.0060685006-.0621456885-.130534686-.8532114245-.2977280694-1.5784306614-.5103732837-2.2171347206-.1179022971-.354509731-.2444738807-.6623752822-.3868978739-.9404248683-.1035360508-.2062678245-.2194567966-.3943109022-.3850401697-.649666838l-.0687350576-.1064157632-.3854117105-.5467424056-.4178596116-.447867917c-.1073753063-.1015977267-.218466021-.1805018031-.3497437888-.2488620605l-.1825504053-.0833729798c-.077652038-.0305142313-.158028709-.0421752763-.2355569002-.0535570147l-.0611803936-.0047482099c-.0170908792-.0020947985-.0329432889-.0020947985-.04508029-.0020947985-.0517680254 0-.08285361.0037706373-.1138153477.0078904076l-.0791382015.011661045c-.0688589046.0116610449-.1540656067.042943369-.233451502.0858169114-.1233515629.0617965554-.2338230429.1451695353-.3378544815.2546576696s-.1896096815.2505378993-.2551247184.3751085828c-.0748035582.1366506881-.1396993604.299346704-.1929535492.4832700113-.0367825443.1397230593-.0541211174.2876158326-.0708404557.4311095291-.0204347469.1629753224-.0222924512.2656204484-.0241501554.3685448808l-.0033438677.265690275c.0018577043.1856689727.0411171876.3702905462.1275623592.5985537549.100439877.2457198627.2249060624.4760080433.3543261259.709717728l.0517680254.090984081.2355569002.4128847822.6032584967.941751574.489690843.7324113783.0325717481.0504846436.0946190703.141398898.5015801502.7537084963.1820550175.2865684333.4124103458.6472927331.0413648815.0638215272c.1187692257.1884620374.2532670142.4019220034.3397121857.6191526067.0286086457.1060666302.0423556572.2203728011.0557311279.3329333065l.012508542.0881910164.0121370011.0909840811c.0069354293.0335866024.0139947055.0590034907.0225401451.0844203791l-.0688589046.4060417737-.0532541888.333212613-.1460155549.8951073943-.125456961.7595041054-.1098522453.6782259241-.0565980564.3908893981-.251161616-.8569820618-.0258840127-.0809988749-.1837888748-.5130859766-.0310855846-.0820462741-.097962938-.2615006781-.2973565286-.7074134497c-.1357362579-.2985786112-.2706055872-.5577051843-.4127818866-.7928114014l-.1234754098-.2052204253-.3163051121-.5041481696-.2781602512-.3933333296-.1668218426-.2193254018-.0617996284-.0792532095-.2148744594-.2673661138c-.1960497229-.2334303783-.3506107174-.4074383061-.5563205024-.5241185819-.1626110463-.0916125206-.3494960949-.1379773938-.5552058799-.1379773938-.0739366296 0-.1482448.0058654357-.2206952662.0175264806-.2397676965.033307296-.4491928901.1523616768-.6056115888.3445943515-.1991458967.2360837897-.3065212029.5453458732-.3620046368.7632747427-.0672488942.2625480773-.0568457504.5601491159.0310855846.8844937486.0733173948.2686928195.2002605193.5195798519.2891826298.6849991059.1202553892.2217693333.2693671178.4489153162.4556329316.6943558724.2005082131.2639446096.4385420524.4987016936.6483387868.7055979577l.0772804972.0775773707.8350999885.7907864296.2545054836.2268666763.5581782067.4980034274.0362871566.0291875257.4065895391.4313888354c.1257046549.1458678015.2474462074.3089129505.3829347715.5130859766l.1424239932.2571016012c.0565980565.1063459366.0977152441.2186271356.1421762994.3462701902l.0206824408.0487389782.0152331749.0648689265.0182055018.0569785189.0179578078.0559311197c.032819442.0837919395.0822343753.1592745117.160753342.2457896893l-.0082977457.1997041226-.0221686042.1777785651-.0532541888.4438179732-.0895413453.9747097369-.1031645099 1.1061234287-.0273701761.3061897125-.0221686042-.2076643569c-.0465664534-.3281152699-.1325162372-.661677016-.218342174-.9733132045-.095485999-.3408237142-.2282499301-.6877921705-.4057226105-1.0605266483-.2044713155-.4345310332-.4735907394-.8076146441-.7788734728-1.2156813898-.198402815-.2663187145-.416868836-.5395502641-.6711266257-.7331096444-.0702212211-.0535570147-.1524555963-.0926599199-.2322130325-.1304361193l-.0639050266-.0308633644c-.0411171876-.021297118-.0839682326-.038753772-.1271908183-.0562802527-.1354885641-.0535570147-.2727109854-.0816971411-.3977964056-.0816971411-.1850273443 0-.3399598796.0590034908-.4608345035.1754044601-.0837205387.0819764476-.1777203742.1839233074-.2432354111.3150576928-.0559788218.1122113724-.0988298667.2478146612-.1311539208.4139321814-.030094809.1571797133-.0367825444.3088431239-.0206824408.4780330151l.0480526169.3164542251c.0788905076.4537333527.3302998174.8446925773.552481247 1.1895662352l.4514221352.6792733233.6172532022.9307887953.1284292878.1955843522.4489451963.6782259241.1226084811.1812000693.5028186198.7546860689.2985949981.5227220496c.0918944374.1798733636.1768534456.3843955227.2589639739.6257163087l.1340024006.4660926637-.0258840127.6726397948-.0465664535 2.2264216606-.0033438676.1994248162-.005201572.4283164643c0 .1119320659.0374017791.210736728.107994541.2865684333.0757943339.0875625768.163230281.1304361192.2584685861.1304361192h0z" stroke="#9ab233" class="I L"/>
        <path d="M23.6314394129 78.9638742369c-.1288008287.0291875256-.2580970452-.0731084672-.2885633951-.2285425151l-.1227323281-.6150328363-.0611803936-.3075164182-.0608088528-.3047931801-.0833489978-.4098124111-.0651434961-.2872666994-.0204347469-.0926599199-.0998206422-.4324362347-.0989537136-.4352292994-.1649641383-.6582555118-.0833489978-.045317474c-.2246583685-.105717497-.4687607083-.1808509362-.6842544025-.247116395l-.0876836411-.0274418602-.3681969844-.1136079048-.1285531348-.0394520382-.3865263331-.12010178-1.0062564742-.3119853216c-.3487530131-.1043209647-.7586864199-.2409716528-1.1571020602-.4616237603-.1839127218-.1015977267-.3430560534-.2244925714-.4733430455-.3648440702-.027741717-.0305840579-.0507772498-.0668938984-.0733173948-.1026451259l-.0286086456-.0446192079-.0968483155-.1547357817c-.0471856882-.0782756368-.0831013039-.1585762456-.1134438068-.2533309639-.025017084-.0765299714-.0398787181-.1527108098-.052758801-.2319640193l-.042603351-.3676371348-.0157285628-.3500408275c0-.1166802758.0194439713-.2358044832.040374106-.3466891499.0195678182-.1050192309.0636573326-.2045221592.095362152-.2704384849.0632857918-.1300869862.1737572718-.2237244787.273577914-.2985786113.0490433925-.0363796671.1148061233-.0638215273.1950589474-.0823954073l.0442133614-.0085188471c.0887982636-.0175264807.1846558034-.0175264807.3007003962-.0003491331.2094251936.0308633644.4199650098.1018770332.66282888.2237244786l.6084600687.3291626692c.1878758242.1136079047.3764947301.2529818309.5935984346.4386508036l.4433720835.4084158787.0952383051.0909142544.6118039363.6164293687.1351170232.1417480311c.0235309206.0226238236.0448325962.048040712.0655150369.0727593341l.0359156157.0435718086.0681158229.0775773707.0684873637.078973903-.26602325-.8759050748-.0549880462-.1884620374-.2536385549-.793788974-.1451486262-.4582022561-.067868129-.2141582322-.2258968381-.6819965614-.0242740023-.0668938984-.0243978493-.066963725c-.1453963201-.0689886969-.2915357219-.1719131294-.4090664781-.2543085366l-.0843397734-.0597017569-.4634352894-.2934812683-.409438019-.1756837666-.0793858954-.0329581629c-.3215066839-.1252689496-.5336565104-.2048712922-.7715665027-.2526326978l-.3148189486-.0493674177-.0885505698-.0117308715-.0416125754-.0057956092-.0684873637-.0109627787-.0684873637-.0106834723-.1525794433-.0363796671c-.0319525133-.0109627788-.0641527204-.0260453279-.0946190703-.0428735424l-.5130979167-.2670169807-.4825077198-.2883140987c-.0367825444-.0216462511-.0714596906-.0466441797-.1065083776-.072061068l-.0645242613-.047691579-.0383925547-.0275116868-.1579048621-.1159820097-.0465664535-.0394520382c-.2292407057-.1935593803-.444362859-.3754577158-.6264178765-.6009976864-.0720789253-.0888892826-.1274385123-.1722622624-.1695464755-.2556352423l-.0133754707-.033307296-.0404979529-.1157027032c-.0163477975-.0686395638-.0292278803-.12938872-.0258840127-.1853198396.0055731128-.2464181289.1060129898-.4729356722.2624316885-.5910124804.0541211175-.0415468367.1190169196-.0703154026.1975358864-.0885401494.0916467435-.0209479849.1960497229-.024020356.3286898071-.00928694l.0795097423.0096360731.1840365687.0219255575.3664631271.0542552808c.2265160728.0340055622.4666553102.0916125206.7137299768.1716338229.4666553101.1499875718.9068073728.3912385311 1.30819534.7172590026s.7715665027.7321320719 1.1100402189 1.1226723368l.1899812224.225470144-.0822343753-.1914645819-.1071276123-.2608722384-.0569695973-.131762825-.3226213065-.7671152066-.3222497657-.7657186743-.2818756598-.6019752591-.1186453787-.2429966247-.1970404985-.4032487091-.0309617377-.0624948216-.1670695365-.0209479849-.0329432889-.005097343-.0839682325-.0144541096-.0688589046-.012010178-.0419841163-.0071921415-.466903004-.0786247699-.0620473223-.0095662464-.0989537136-.0150825492-.7989366789-.1074631624-.1470063304-.0150825492-.0563503626-.0051671696-.2969849877-.0254168883-.5228818258-.0326090298-.5439358074-.0319107637-.379219363-.0346340016-.0603134649-.0058654358-.0743081704-.0082395407c-.0593226894-.0061447423-.1144345825-.017107521-.1700418633-.0308633644l-.0590749955-.0130575773-.3065212029-.06933783c-.0791382015-.0233220898-.1624871993-.0668938984-.2349376655-.1224758849-.0712119966-.0628439547-.1351170232-.1373489543-.2006320601-.2337795114-.0478049229-.0710136688-.1025452751-.1568305802-.1436624628-.2559843754-.050158015-.1194733404-.0718312314-.2423681851-.0885505697-.3483649887-.0146139402-.0961512506-.0179578079-.1863672388-.0097839091-.2687626461.0082977457-.1180768081.0481764638-.2234451721.085330549-.3126835878.0094123683-.0226238236.0236547676-.04147701.0374017791-.06005089.0346771462-.0504148169.0672488942-.0899366818.1052699081-.1279921876.055111893-.0569785189.1271908183-.1087898682.2140075308-.153409076.1113384086-.0641706604.2343184307-.111932066.3652246575-.1417480311.0580842199-.0134067104.1183976849-.0226936503.1780919151-.0281401264.1493594225-.0144541096.2948795896-.0058654358.4556329316.0061447422.2249060624.0134067104.5207764276.0363796671.813550619.095732291.4309873883.0834428065.8494662347.2279140756 1.2439187726.4293638636.2891826298.1517332372.5890160974.3504597872.9432183764.6260654417l-.1065083776-.1314835185-.2042236217-.4022013098-.9816109311-1.8818273092c-.030094809.0009775726-.0766612624-.00928694-.1396993603-.0302349249-.0444610553-.014733416-.0910275088-.0264642876-.1372224214-.0367288002l-.0776520381-.0199005856-.1317731555-.0326090298-.0837205386-.0199005857-.0307140438-.0068430084-.0642765674-.0144541095-.055359587-.0123593111-.0563503625-.012010178-.035296381-.0057956092-.0471856882-.0085886738-.333891379-.0463648732-.1545609945-.014733416-.306149662-.0277909933-.5147079271-.0679412977-.0761658746-.0117308715-.0696019863-.0106136457-.2806371903-.0432226755-.3551930545-.0539061478-.6257986418-.0895875487-1.142611967-.2031954534c-.2322130325-.0576069584-.4491928901-.1341369299-.6449949191-.2274951159-.1058891429-.0497863774-.1980312742-.102994259-.2827425884-.162696016-.0948667642-.0652180596-.178339609-.1499875718-.2543816367-.2587774399-.0663819656-.0888892826-.1221130934-.1846914002-.1701657103-.2931321353-.0440895144-.0926599198-.0678681289-.1987265499-.0745558643-.333561746-.0043346432-.07862477.0085454396-.1585762456.0271224822-.2632463434.0173385731-.0978270895.0574649851-.2045919858.1223607873-.325392032.0635334857-.1029244324.1378416561-.186716372.2093013467-.2365027494.0538734235-.0448985143.1233515628-.0796023426.2252776032-.1115131062l.2054620912-.0607491562.0322002072-.0058654358.5065340283-.0874927502.4434959304-.0411977036c.2205714191-.0099153795.4506790535.0048180365.7033268329.0442700747.4054749165.0631930878.8403015603.2131806596 1.3294970155.4585513893.4309873884.2261684101.8329945903.4949310563 1.1954946149.7996544098l.3875171087.3432676457-.1187692257-.1246405101-.323859776-.6201301793-.2364238289-.4526859535-.2355569002-.4530350865-.0639050265-.1232439778-.1570379335-.2982294782-.2064528667-.3734327439-.0639050266-.1163311428-.0338102175.0085886738c-.0398787182.0088679803-.0510249437.0061447423-.0605611589.0037706373l-.0696019863-.0161299483-.2743209958-.0696869631-.2979757633-.0796721692c-.1165399806-.0164790814-.2556201062-.0126386175-.3572984527-.0099153795l-.0977152441.0064938753c-.1572856274.0051671696-.3146951017.0020947985-.4711138004-.0041197704l-.2029851521-.0106136456-.2450931154-.0109627788-.4769346071-.0041197704-.1169115215.0016758388-.0760420277.0020947985-.2824948945.0016758388-.5371242251-.0222746906-.8163990989-.090984081-.1716518736-.0219255575-.489690843-.066614592-.577622178-.1091390013-.1214938586-.0349831347-.0883028758-.0243694891-.4023787428-.1365808615c-.2090536527-.0803704353-.4013879671-.1904870092-.5713059835-.3267885642-.1560471578-.1376282608-.2763025469-.2749073884-.3575461466-.4080667457-.0530064949-.081348008-.0937521416-.1726113955-.1281815939-.2876158325-.0687350577-.2237943052-.0599419242-.4516385542.0255124718-.6596520442.1242184915-.3023492485.4334643274-.4077176125.6890844336-.4660926637l.0331909828-.0075412746.5211479684-.084071246.0808720588-.0089378069.1686795469-.0106136457.1543133005-.0003491331h.1530748311c.0505295558-.000349133.1022975812.0044689035.1524555962.0099153796l.0630380979.0065637019.0572172912.0034215042.1647164445.0154316822.0887982636.0144541096.2131406021.0322598967.0708404558.0102645126.1634779749.0295366587.1576571682.0335866024.1192646135.0257660214.2855910683.0641706604c.0331909828.0065637019.0657627308.0157808153.0982106319.0250677553l.0484241577.0141049764.3637384941.1008994606.5865391585.1794544039.0837205386.0268134206.0338102176.0102645126.233327655.0761808384c.4965024253.1575288464 1.0166596182.3909592247 1.5466007201.6929593401-.0252647779-.0645197934-.0304663498-.1129096385-.0348009931-.1650701209l-.1503501981-.2351062171-.1366031866-.2052204253-.025264778-.0374270663-.0499103211-.072061068-.2346899715-.3391478754-.2346899716-.3390780487-.4717330351-.6493177049-.0423556571-.057327652-.1914673858-.2557050689-.0668773534-.0919616536-.0329432888-.045317474-.1044029795-.1417480311-.0480526168-.0614474223-.1743765066-.0449683409-.0340579114-.0102645126-.0444610553-.0134067104-.2803894964-.0779265038-.5289503263-.1077424689-.4002733446-.0590034908-.4312350823-.0254168883-.7679749412-.0017456654-.1660787608.0031421977-.56251285.0016758388-.2971088347-.0102645126-.1801973132-.0062145688-.1366031866-.0106136457-.1254569611-.0116610449-.052634954-.0048180366-.0392594834-.0051671696-.1250854202-.014733416-.0931329069-.0164790814-.4529082986-.0875625769-.143043228-.0342848686-.1426716872-.0329581629c-.2146267656-.0521604823-.4353220317-.12938872-.6562649917-.2292407813-.2100444283-.0906349479-.4099334067-.2141582322-.5947130571-.3675673082-.1144345825-.1108846666-.1753672822-.1795242305-.2249060625-.2543783631-.0648958021-.0806497418-.1172830623-.1911154488-.1595148725-.3376815164s-.0404979528-.3263696046.0179578079-.5282383523c.0322002072-.1018770332.0833489978-.18943961.1518363615-.2601041457.0868167125-.088260843.2079390302-.1314835185.2727109854-.1544564753.0465664535-.0202497187.0889221106-.0329581629.130658533-.0422451028l.1411855238-.0254168884.0338102175-.0047482099.3174197346-.0333072959.4683891675-.0188531864.0788905075-.0013965324c.045327984-.0020947985.0921421314-.002723238.1375939623.0006982662l.3247267046.0219255575c.2806371903.0182247469.6191109065.0686395638 1.0062564743.150685838l.8175137215.1939085134c.3938333031.1132587717.7974505154.2814710903 1.2341348635.5137842427.2085582649.1157027032.4115434171.2443931571.6199778351.3933333296l-.1844081096-.211085861-.5353903678-.7691401785-.190848151-.2756056545-.1274385122-.1860181059-.0216732164-.0312124974-.0231593798-.0322598968c-.024893237-.0068430084-.0574649851-.0408485705-.0775281911-.081697141l-.0515203315-.0312124975-.1363554927-.0847695122-.0881790289-.0707343623-.0682396698-.0511130831-.2675094134-.1976791508-.6224547742-.3758068489-.7511317558-.3226687939-.190848151-.0734576003-.4794115461-.2151358048c-.1476255652-.0641706604-.2946318957-.1585762457-.4324735518-.2495603267-.2657755562-.1695390244-.5290741733-.357232969-.9386360392-.6699165567l-.7034506799-.6143345702-.0653911899-.0594224505-.0308378907-.0277909933-.4452297877-.4372542712-.2629270763-.2892916713-.1321446964-.1383265269-.1138153477-.1314835185-.0632857918-.0717119349c-.1211223177-.1444712691-.2142552247-.2941097079-.2846002926-.4568057238-.1491117287-.3164542251-.1956781821-.6699863834-.1311539208-.9953085887.0263794005-.1263163489.0507772498-.2436948909.0992014075-.3435469522l.0949906112-.1352541558c.0386402486-.0404994374.0754227929-.0679412976.1226084811-.0923107867.022787839-.0164790815.0541211175-.0291875256.0925136722-.0377761994l.0359156157-.0068430084c.0340579114-.0064938753.0676204351-.0061447423.0998206422-.0061447423.1019260404-.0024439315.1570379335.014384283.1939443248.0256961948l.0386402486.00928694.1631064341.048040712c.1829219461.0761808384.3503630234.1612994837.4976170478.2529120042l.9398745087.6432427894.4401520627.3339108791.3956910074.3274170038.0770328034.0645197935.2766740878.2474655281.4108003354.3919367973.0864451716.0834428065.2563631879.2728125898.0864451715.0958021176.0781474259.0851186453.3847924758.4313888354c.3201443675.3775525143.582452209.7413491852.8019090056 1.1119888646l.1492355756.2598248392.1487401878.2584283069.080376671.1328102242.1041552855.0995727548.2464554318.2446724635c.0998206423.0974779564.2146267656.229659741.3610138613.4159571533l.4860992814.6394721521.0881790289.1204509131.1123291842.1509651444.0885505698.1218474454.1528271371.2114349942.1384608909.1915344085c-.0021053982-.0058654358-.0035915616-.0123593111-.005077725-.0199005857l-.0338102175-.1129096385-.0179578079-.0456666071-.1546848414-.4633694257-.1366031866-.5144126823-.2483131361-1.1031208842-.0195678182-.1084407351-.0764135686-.4393490698-.0885505697-.625646482-.0194439713-.1976791507-.0030961737-.0508337767-.0063161945-.0638215273-.0137470115-.2141582321-.0039631025-.1729605286-.002353092-.171982956c-.0082977457-.2347570839.0063161945-.4753097771.0434702797-.7148848976l.0624188631-.3415219803c.0231593798-.0919616537.0557311278-.1839233073.1125768782-.3170826646.0499103211-.1177276751.1089853166-.2169512968.180816548-.3037457809.0764135685-.0967796902.1960497229-.1369299945.2353092063-.1503367049.0008669286-.0003491331.0014861634-.0003491331.002353092-.0006982661.0661342717-.0150825492.0949906112-.0175264807.118149991-.0185040534.0800051301-.0051671696.1232277159.0043990769.1639733627.0157808153.0567219034.0123593111.0901605801.0256961948.1227323281.0418261432l.0617996284.0347038283.0535018827.048040712.0417364224.0449683409c.1123291842.126665482.1917150796.2563335084.2432354111.3967548338.0729458539.213459966.1010591118.4179821251.1278100531.6160802356l.0063161945.0428735424.0588273016.596528783.014861634.4351594728.0014861634.0916125205.0034677147.6033717915-.0079262049.4723072326-.0073069701.5998804606.0084215927 1.5554577046.0091646743.3332824396.0037154085.0826747137.0081738988.1846914001.0094123682.2316148862.0094123683.2316847129.0283609517.4805467734c.0058208067.0754825722-.0344294523.1543866486-.070345068.1993549895l.1902289163.210736728.2462077379.3253920319.529941102.7114633934.0943713764.1272939216.1823027114.2450914232.1037837447.1516634105c-.0647719552-.0964305571-.1077468471-.2371311889-.1725188023-.5432510747l-.0557311278-.256054202c-.0143662463-.0593526238-.0234070737-.1225457116-.032819442-.18943961l-.0198155121-.1242215504-.0812435996-.5773264635-.0281132578-.2247718779-.0090408274-.0786247699-.0085454396-.0816971411-.0064400415-.0696869631-.0087931335-.0912633875-.0161001035-.1928611142-.0064400415-.0974779563-.0045823372-.06005089-.0063161944-.181269896-.0003715409-.1740079278v-.1726113954l.0076785109-.1911852755.0054492659-.0860962179.0486718516-.6026735252c.0396310242-.4338327671.1367270335-.8398745408.288811089-1.2067435828.0931329069-.229659741.1960497229-.4286655975.3052827334-.5920598796l.0331909828-.0494372444.0262555535-.0394520382.1813119358-.2560542019c.0611803937-.0754825722.1390801256-.1365808615.2273830015-.2024971873.0684873637-.0518113493.1476255652-.0950340248.2489323708-.1362317284.027741717-.0185738799.0648958022-.0329581629.1135676538-.0439209416.0632857918-.0144541096.115673052-.0130575773.1603818012.0041197703s.0813674465.0315616306.1181499909.0511130832c.0492910864.0312124974.0961052337.0768791045.1476255652.144122136.1670695365.2052902519.2595832086.440396469.3278228785.6432427893.0729458539.2199538414.0988298666.4770554426.0821105283.809639616-.0173385731.2663187145-.0724504662.532288296-.1323923903.8044724463l-.0304663499.1599029513-.0848351612.3397763149-.0091646743.0381253325-.0365348505.1407006319-.130534686.5306124572-.0684873637.2718350173-.1553040762.7711651503-.0568457504.3232972335-.2014989887 1.1899153683-.1052699081.8295402016-.0118893073.1126303321-.0292278803.3043742204c-.0045823372.0497863774-.0043346433.0995727548-.0033438677.1465660676l.0012384695.0483898451.0006192348.0446192078.0004953878.0374270664.1525794432.2316847128.1801973133.2958553733.1779680681.2906882036.1196361543.2124125668.0396310243.0689886969.0234070736.0404994374.0456995248.0827445404.2138836839.3881661599.2140075307.38816616-.135488564-.342848686-.0647719552-.2639446096-.0331909828-.1640925483-.0143662463-.0803006087-.0215493694-.0991537952-.0076785109-.0356814009-.0261317066-.1462169345-.0219209103-.1565512737-.0465664535-.4183312583-.0075546639-.1040416583-.0225401451-.4626013329-.0014861634-.1596236449-.0012384695-.1918137149.0048300311-.1860181059.0037154085-.069686963c.0148616341-.3991987654.0355440749-.7581773998.1363554927-1.1075897877.0361633096-.122475885.0852067021-.2409018262.1286769818-.3442452184s.0883028758-.2096893287.1424239932-.3081448577c.0517680254-.090984081.1187692258-.1895094366.2042236217-.301720809l.3098650706-.4005254711c.0693542924-.081697141.1363554927-.1462169345.2045951625-.1973300176.0608088528-.048040712.1286769818-.084071246.2273830015-.12010178.0184531956-.0072619681.0374017791-.0127084442.057712679-.0175264807.0849590082-.0192023195.1678126182-.0199005857.2097967345-.01857388.1010591117-.0013267057.195678182.0226936503.2741971488.0689886969.0678681289.0404994375.1290485226.0988744887.1929535491.183993134.0490433925.0689886969.0964767746.1520125437.1409378299.247116395.0559788217.1335084904.0687350576.285171901.0760420277.4170045526.0058208067.1073933358-.0002476939.2121332603-.0066877353.3136611604l-.0023530921.0354020944-.0429748919.3943109023-.0486718516.3202248623c-.0204347468.1342067565-.050281862.2635954765-.080376671.3929841965l-.0322002071.150685838-.0949906112.433832767-.1108430209.5109911781-.1852750382.9287638233-.1077468471.4729356722-.022540145.0944055852-.020063206.0937073191-.0097839091.0425244093-.0118893073.0514622162-.0085454396.0422451029-.0161001036.0830238468-.1768534455.9349085656c-.0630380979.4280371579-.0860736308.7866666592-.0726981601 1.1278395064l.0304663499.0466441797.5191664172.9898621126.519909499.9921663909.0714596905.1369998212-.0286086456-.0837919395c-.0866928655-.4413740416-.1286769817-.860054433-.1253331141-1.2444499557-.0043346433-.2543085365.0146139402-.500447359.0380210139-.7729108157l.0131277768-.1740079279c.0108985316-.1585762456.0336863705-.3140801201.0578365259-.469863301l.0127562359-.0878418833c.0294755743-.2138789257.0770328034-.4413740416.1405662891-.6768293918.0243978492-.0947547183.0645242613-.2100384618.1221130933-.352484759l.062914251-.1451695353c.0198155121-.0404994375.0460710656-.0745049996.0715835375-.1071140294.0584557607-.0803006088.0989537136-.1122113724.1315254616-.1376282607l.1426716872-.107742469c.042603351-.0305840579.0883028758-.0535570147.1327639311-.0748541327.158276403-.0796023425.2727109854-.1317628249.3898702007-.1612994836.1001921831-.0226238237.1938204779-.0222746906.2867056909.0017456654.0897890392.0181549202.1795780785.06005089.2824948945.1324610911.1311539207.0926599198.2526477794.2340588178.381696302.4458429451.0973437032.165419254.180692701.3672181751.2620601476.6342351558.052882648.1781276982.0720789253.3885152931.0565980565.6260654417-.0116416134.1983075903-.0496626273.4217527624-.1200076952.7028747196-.0513964846.2148564984-.1219892465.4255932264-.1704134042.565246459l-.0520157193.1633942821-.153074831.4331345009-.2039759278.5281685256-.0507772497.1297378531-.0688589046.1743570609-.0434702797.1087898682-.2063290198.514831642c-.0630380979.1568305802-.1089853166.2903390705-.1440340037.4207751898-.047804923.1791750974-.0764135686.3850937888-.0818628344.424545827l-.0356679218.3044440471c-.0054492658.0511130831-.005077725.1008994605-.0048300311.151034971.0018577043.0720610681-.0039631024.1430747368-.0161001035.2213503737l.165583373.3383797826.3794670569.7609006378.3177912754.6637718145.3198966736.6689389841.0989537136.2069660907.070345068.1471945071c-.0033438676-.0119403513-.0039631024-.0260453278-.0033438676-.0439209416-.015233175-.6091674006.010031603-1.1360092205.0778997319-1.610341425.0374017791-.2632463435.0866928655-.4955594959.1505978921-.7097177281.0456995248-.1585762456.1025452751-.3068879786.1853988851-.5090360328l.0344294523-.0844203791.1980312742-.4379525374.2332038081-.3747594496c.0614280875-.0867944841.1284292878-.1589253787.2106636631-.2265175433l.1156730519-.0861660445c.0495387803-.0332374694.1037837447-.0538363212.155799464-.0740860399l.0417364224-.0130575773c.0115177664-.0041197703.0221686041-.0065637019.0307140437-.0082395407.0355440749-.0082395407.0574649852-.0103343392.0793858954-.0123593111l.0559788217-.0044689034c.0490433925-.002723238.1114622556.0055163027.1716518737.0223445172.0926375191.0233220899.1793303846.0634723942.2649086275.122475885s.1618679645.1431445634.2224291234.2186271356c.0684873637.0823954072.1332593189.1846914001.1929535492.3033966478.042603351.090634948.0730697009.1901378762.1022975812.2862891268.0344294523.1091390013.0480526169.179803537.0620473223.2505378993l.035296381.1828759081c.0219209102.1284111474.0177101139.2622687708-.0139947055.4331345009-.0388879425.1853896662-.0964767746.3638664975-.1566663926.5457648329l-.0243978493.0710136688-.1113384086.3219705278-.2998334676.7447008628-.2474462075.5824936331-.0161001036.0398011713-.0478049229.1125605055-.2530193203.5989028879-.0900367331.2265175433-.2045951625.5114101378-.0206824408.05076395c-.0583319138.1485910395-.1250854202.3171524912-.1579048621.4808260798-.0066877354.0775773707-.0018577043.1589253787.0027246329.2385277213l.0021053982.0628439547.0030961737.0645197934c-.0006192347.0243694891-.002476939.0428735424-.0052015719.0617965554l.0977152441.2693910857.077899732.2216995067.2115305917.5947831177.1804450072.5045671293.1598864133.450591155.0873121002.2608722385.0672488942-.6308136517.0079262049-.06005089.0632857918-.383068817.0112700725-.0614474223.0352963809-.1959334853.1177784501-.5350813607c.0565980565-.2272158095.1177784501-.4276181982.1866373547-.6123095983l.0599419241-.1612994837.155799464-.397802233.1434147689-.3150576927.087931335-.1774294321.0328194419-.0645197934.1150538172-.2182780026c.1066322245-.1918835415.1918389266-.3363548106.3190297449-.4492644492.1006875709-.0888892825.2240391338-.1503367049.3660915862-.1825966016.0511487907-.0116610449.102916816-.0192023195.1543133006-.0226238237.1695464755-.0148032427.328813654.0346340017.4605868096.1424462972.1664503017.1314136919.2790271798.3280454434.3441706759.4697934745.0788905076.1705864236.1087376227.3775525143.0880551819.6150328363-.0173385731.1970507112-.0740604765.3902609585-.1148061232.5182531462-.0557311279.1719829559-.1302869922.352135626-.228621471.5508621759-.1058891428.2135297927-.241006166.4128847822-.3600230856.5889875085l-.0438418206.0655671927-.4784207704.6771086982-.1473778714.1963524451-.323735929.4313888354-.0214255225.0257660214-.2272591545.3617018725c-.0688589046.1205207397-.1323923903.2519344316-.2006320601.4142813144l-.0663819656.1997739493c-.0258840127.0823255806-.0404979528.1661175201-.0553595869.2611515449l-.0081738988.0370779333-.002476939.0473424458-.0054492658.0422451029-.0054492658.0415468367c-.0122608482.062774128-.0371540852.122825018-.0807482119.1949559127l.0304663499.1365808614.0374017791.1190543808.0916467435.2979501718.1823027114.6586046449.2079390302.7471447943.0568457503.2069660907-.0102792969-.1469152006c-.0085454396-.2337096848.0094123683-.4774045757.0300948091-.7059470908.0237786145-.2501887662.0724504661-.5107118716.1488640347-.7958837725.0873121002-.3318859073.2270114606-.6318610509.3871455678-.9613728532.1040314386-.2152056314.22094296-.4379525374.3721600868-.6116113321.0421079632-.0480407121.0937521417-.0878418833.1440340036-.126665482l.0404979529-.0312124975c.0258840127-.0212272913.0532541888-.0398011713.0806243649-.0586543577.0866928655-.0580259181.1780919151-.0992236217.2645370867-.1187750743.1278100531-.0291875256.2419969416-.0127084442.3395883387.0483898451.067868129.0435718086.1455201671.0988744887.2070721016.1791750974.0522634131.0686395638.0988298666.1554340479.1418047585.2649221822.040126412.1036925252.0635334857.2073152238.0733173948.3267885643l.0058208067.2258192771c.0018577042.3256713384-.1235992568.634933422-.2340707368.9078158385l-.2273830015.5398295706-.3107319992.7396035198-.0645242613.1551547414-.2258968381.5388519979-.0622950162.1441221361-.253638555.5999502872-.1414332176.4077176125c-.0411171877.13867566-.0743081704.2931321353-.1014306526.4726563658l-.0346771462.3424995529.1010591117.460227228.3073881316 1.528993417.0271224822.1373489543.0565980565.294807974c.0137470115.0772282376.0002476939.1513142775-.0390117895.2148564983-.0461949126.0731084673-.1010591117.1163311428-.1666979956.1310645588h0z" stroke="#9ab233" class="I L"/>
        <g>
            <path d="M89.7060884141 44.8172083158s-2.5381273617 28.9665194807 1.6658641832 34.4156304691 17.2827047699 8.890682963 16.8156753768 10.0381414478-22.6545606003-5.4491109885-25.4571731631-5.7360425664-6.5392839118 2.007539014-3.736671349 4.5885840816 9.2801008668 10.3247159234 10.7123049521 11.4717280305-14.682636399-8.030156056-20.2878615246-7.7435815803-24.7564831041 11.1851535548-24.7564831041 9.4641890164 11.2104502512-10.6117367768 9.1085271795-10.6117367768-28.7084951068 6.5962123711-27.9002085576 4.875604935 12.5083034152-5.7360425663 10.7454564781-7.1700755268-27.6869040918 3.1545511211-28.3875935828.8605269069 11.9111397422-2.5811343431 14.9471216001-10.3247159234 2.6950155046-34.129145269 2.6950155046-34.129145269h63.8360260068v.0008927554z" fill="#6a4a39" stroke-width=".9137898845" class="J"/>
            <path d="M25.6734611113 44.8172208642c0 4.5934055177 14.48648987 8.3171779182 32.1143782025 8.3171779182s32.1590153056-3.7237724005 32.1590153056-8.3171779182-14.5311281089-8.3171779182-32.1590153056-8.3171779182-32.1143782025 3.7237724005-32.1143782025 8.3171779182z" fill="#f4cfa1" stroke-width=".799568024" class="J"/>
            <path d="M81.4298047954 44.8171762264c0-3.4128256653-10.544220899-6.1603699437-23.6418357419-6.1603699437s-23.6418368778 2.7475442784-23.6418368778 6.1603699437 10.544221467 6.1604592193 23.6418368778 6.1604592193 23.6418357419-2.7475442784 23.6418357419-6.1604592193z" stroke="#d8ae80" stroke-width=".3485785745" class="C"/>
            <path d="M73.0227665309 44.0467776101c0-1.7722089119-6.7947542242-3.1989214513-15.2348704621-3.1989214513s-15.2347256286 1.4267125394-15.2347256286 3.1989214513 6.7947542242 3.1989214513 15.2347256286 3.1989214513 15.2348704621-1.4267125395 15.2348704621-3.1989214513z" stroke="#d8ae80" stroke-width=".4568964423" class="C"/>
            <path d="M82.7304667185 83.5354270029c-2.2862920849-.2339019369-5.1935936773 1.2496791269-4.6660772894 3.205884944-2.7258406077-5.592131078-.579279297-18.8880277809-.579279297-18.8880277809 1.0813504347 13.7346860235 5.2453565864 15.6821428369 5.2453565864 15.6821428369z" class="D"/>
            <path d="M53.7700267738 90.7050118586s1.827114369-5.1336118612.9087589373-17.5461270125c0 0-2.6654990764 16.6527465994-7.2254332598 18.7546501116l6.3166743225-1.2085230991z" class="D"/>
            <path d="M36.6152712206 88.4110479933s1.2267518648-1.5178628744.6143210417-11.1137344727c0 0-5.051100276 9.2680517845-10.408270562 11.1137344727h9.7939495203z" class="D"/>
            <path d="M79.2535815151 87.5369686005c.0017448172.0008927554.0063976629.0044637774.0059614587.0044637774l-.0066884658-.0052672574c-.0050890501-.0040173997-.0082878815-.0052672573-.0149763473-.0109808924l-.0375135689-.0307107887-.0822972094-.0764198694c-.056124952-.0534760536-.1118136997-.1157903864-.1675024473-.1789974746l-.0822972094-.0996315121-.0799707865-.1052558716c-.0543801348-.0689207234-.1043982267-.1461440728-.1554341286-.2216711867-.2022533891-.3053223757-.3809517466-.6480512061-.5403117138-1.0083673195-.320900956-.7200072981-.5552880611-1.5169701189-.73616744-2.3348234181s-.3030165801-1.6661495603-.3888034238-2.5214093142l-.0532169233-.6442123575-.0132315302-.1610530893-.0085786843-.1618565693-.0171573688-.3243380675-.0442020347-1.3005661895-.0011632114-.6525149834.0058160572-.653407739.0174481716-.6537648411.0103235015-.3269270584.0164303616-.3269270583.0332969275-.6543004944.0213740102-.3269270584.0239912359-.3268377828.0482732748-.6538541167.0610686006-.6529613612.6832413194-5.2016398291.0002908029-.0016962355c.0296618917-.1807829855-.0660122492-.3571914692-.2133038978-.3931695152s-.2851322042.0767769716-.3182837302.2518463221l-.8261709251 5.2358323642-.079098378.6612639872-.0660122492.6639422537-.0332969274.3321943157-.0303888989.3326406934-.0510359019.6669776223-.0254452503.3334441734-.0191929887.3348725821-.0350417446.670012991-.0232642288.6713521242-.0161395588.6726912574.011486713 1.3493999145.0093056915.3378186752.0046528458.1689986132.0095964944.1689093376.038240576.6766193816c.0671754607.9017723146.1733185046 1.8044373848.3456191991 2.6982641756s.4062515954 1.780690089.7546334216 2.6271115636c.1733185045.4229875485.3731000693.8363333377.6146118445 1.2269138621l.1894580632.2882707459.100763191.1408768154.1064338468.137395069.2326422879.2649698278c.0392583861.043477192.0865138509.0856152509.1301342798.1281996875l.0728461165.0640105682.0418756118.0338354329.0218102145.0170516297.0348963432.0254435313c.2641943983.1764084837.5946918486.0562435955.7379122571-.2680944719s.0458014505-.7310774661-.2182475464-.907039572z" class="D"/>
            <path d="M84.2166497695 83.8202548852s-4.3973754468.5151199144-6.9229982855-14.7093071857" stroke-width=".5711183028" class="C J"/>
            <path d="M54.5789507798 90.9320347712l.0210832073-.0772233494.0186113831-.0710633366.0350417446-.1399840599.0660122492-.2772898534.120392384-.5520799915.2083602492-1.1057669428.3166843145-2.2243002891.1997815648-2.2384058258.0927661123-2.2453693185-.0110505087-2.2453693185-.0424572175-1.1206759594-.0321337161-.559489862-.0367865617-.5590434843-.5221365351-4.4336915616c-.0367865618-.2264027908-.2157757221-.3729932413-.4002901367-.3278198138s-.2993815443.257202855-.2687018426.479231144l.0004362043.0016962354.4106136382 4.3520937103.0231188274.5468127341.0190475873.5467234586.0164303616 1.0939825704-.0396945904 2.1860903544-.1404577813 2.1768949729-.2429657895 2.1598433431-.3537616792 2.1299360344-.2226095892 1.0461308765-.1250452298.5143164345-.066593855.2522926998-.034169336.1237359102-.0332969275.1136477731-.0053798529.0180336608c-.1010539938.3474604345.0465284576.7301847106.3297704432.8539206207s.5946918486-.0570470754.6957458425-.4050431632l.0036350357-.0127664034z" class="D"/>
            <path d="M37.210216634 89.2939575439l.020647003-.0636534661.0171573688-.0552615644.0322791174-.1074877603.0588875792-.2106902943.1054160367-.4172739134.177535146-.83508348.2548887067-1.6801658214.14540143-1.6902539584.0478370705-1.6933786026-.0410032033-1.6898075806-.1247544269-1.6807014747-.4727000489-3.3156045931c-.0546709376-.29219887-.2919660713-.4747673665-.5299882122-.4076321541s-.383132768.3514778341-.3336962818.6401949578l.0002908028.0013391332.4066877997 3.2072240773.0946563309 1.6152624977.0146855444 1.6161552532-.0703742921 1.6099952403-.161977193 1.5945505705-.2623041796 1.5643754351-.1743363146.7608954993-.0995999795.3699578726-.0533623248.1789974746-.027044666.0859723532-.0136677344.0407989256-.0110505087.0320499219-.0063976629.0189264163c-.1169027497.3400505639.0127953258.731880946.2897850499.87579313s.5960004615-.015801772.7131940141-.355852336c.0004362043-.001785511.0021810214-.0074098705.0029080286-.0096417592z" class="D"/>
        </g>
        <g>
            <path d="M58.4999632479 25.4999842647C58.4999632479 13.8660187709 67.8659571316 4.5 79.4999641249 4.5s20.999999123 9.3660187709 20.999999123 20.9999842647S91.1339693642 46.5 79.4999641249 46.5s-21.000000877-9.3659893752-21.000000877-21.0000157353z" fill="#f0b90b"/>
            <path d="M72.0237409505 25.725700588l-3.2130020549 3.2354366393-3.2353975935-3.2354366393 3.2353975935-3.2354366393 3.2130020549 3.2354366393zm7.8315363994-7.8315638459l5.5338870883 5.5338386967 3.2354537227-3.2354366393-5.5331574091-5.5114103494-3.2361834019-3.2354366393-8.7468347679 8.7461092141 3.2353975935 3.2354956613 5.5114371744-5.5331599441zm11.0445367003 4.5961272066l-3.2129459257 3.2354366393 3.2354537227 3.2354366393 3.2129459257-3.2354366393-3.2354537227-3.2354366393zM79.8552773499 33.5572662783l-5.5331030339-5.533899563-3.2130020548 3.2354366392 8.7461050887 8.7469078552 8.7686111318-8.7685984278-3.2354537227-3.2130082921-5.5331574091 5.5331617885zm0-4.596129051l3.2354537227-3.2354366393-3.2354537227-3.2354366393-3.2354537227 3.2354366393 3.2354537227 3.2354366393z" fill="#fffdfa"/>
            <path d="M58.9224582711 26.1637157445c0-11.032266058 8.8815430209-19.9138030183 19.9137891871-19.9138030183s19.9137874331 8.8815369603 19.9137874331 19.9138030183-8.881543021 19.9138048627-19.9137874331 19.9138048627-19.9137891871-8.8815664713-19.9137891871-19.9138048627z" stroke="#191326" opacity=".1" stroke-width="3" class="C"/>
        </g>
        <g>
            <path d="M12.4999632479 27.9999015559C12.4999632479 12.7649518181 24.7650137994.5 39.999962573.5s27.5000006749 12.2649518181 27.5000006749 27.4999015559S55.2349126964 55.5 39.999962573 55.5 12.4999632479 43.2349494485 12.4999632479 27.9999015559z" fill="#66ff80"/>
            <path d="M12.4999632479 27.9999015559C12.4999632479 12.7649518181 24.7650137994.5 39.999962573.5s27.5000006749 12.2649518181 27.5000006749 27.4999015559S55.2349126964 55.5 39.999962573 55.5 12.4999632479 43.2349494485 12.4999632479 27.9999015559z" class="I"/>
            <path d="M31.4050276765 16.2374034208s-15.0828993321 3.8077500287-14.1980511301 11.2563910291 13.7193918929-4.1573646927 13.7193918929-4.1573646927l.4786592372-7.0990263364z" class="K"/>
            <path d="M28.7668728051 20.7417171703s-9.410668892 2.9411678805-8.9365513885 5.3663547425 8.985325659-3.3779636026 8.985325659-3.3779636026l-.0487742705-1.9883911399z" class="F"/>
            <path d="M31.3394687381 16.3259672277c.004344267.0119467342.0132302677.0235972685.0240909352.030113669s.0221162683.0077999339.0296200023.0059240004l-.0321870692.0094784008-.0653614717.0193517348-.1309204102.0394933364-.2612484203.0805664063-.5213120404.1671555463-1.0380823472.3542552274-.5163753734.1866060145-.5147956399.1926287483-1.0238639748.4043130314-1.0153736787.4310697667-.5039349725.2265930176-.5011704388.2338005515-1.9701250862 1.0236672794-.9577134076.5730483111-.9318452723.6237972484-.8968936696.6838271197-.8475269991.756100311c-.2719116211.2656914206-.5319752412.5463903091-.7746617934.8441700655l-.3497134938.4597024357-.3159466912.4872490378c-.197466682.3343110926-.3678804285.68797392-.4982084386 1.0585201488s-.2205702838.7569883325-.2610509536 1.1505394297c-.0205365349.1967755486-.0288301356.3950320973-.0248808019.5933873794s.0203390682.3961182604.047786937.5934862091.0651640051.3895030302.1169002757.5735419296.1169002758.3594881187.1980590821.5198310524.1777200137.3062708237.2902760225.4315634455l.0868853401.0904397404.0926118738.0825410489c.0629918716.0530198041.1303280101.0996219411.1998362822.1421760111s.1425709444.0788879394.2174108168.1108775419.1524442785.0587463379.2312334846.0809613396.1597505458.0397895846.2413042854.053513519l.248413086.0288301356c.1672542796.0119467343.3372730928.0088860007.5080817727-.004344267s.3424072266-.0376174029.5138083065-.0701007203c.3429996267-.0652627384.6850119199-.1616264792 1.0236672795-.2782305549.6782980526-.232516994 1.3425759708-.5422434907 1.9955982881-.8838608445l.971141142-.5409599512.9555412741-.584600112.9423110065-.6183670111.9300680721-.6466046501.9190091666-.6702017258.9091366039-.6905409869.4510139016-.3525767607.4482493681-.3571184944.4456823013-.3617589614.2217550839-.1828541475.2199778837-.1840389476-.0387034697.0841208065.2462409524-3.4958517902.2661850874-3.5052310719zm.1311178768-.1770288804l-.2128690832 3.5936961454-.2324182847 3.6030761986-.0035544002.0526248707-.0351490694.0315946691-.4281077666.3975004309-.4328469669.3884169634-.4369937672.3818018296-.4407456342.3758778292-.8921544692.7342796641-.906963699.7099914551-.9223668716.6837283864-.9387566061.6536148138-1.9387278838 1.1900329228-1.0072775448.5145981612-1.0408468807.4332419485c-.3534653608.1264774098-.7140395221.2341954848-1.0836971508.3083442239-.1848288143.0369262695-.3720272288.0655589384-.5613977769.0823436064s-.3809132295.0218200683-.5742331112.0097746007-.3882194967-.0406781364-.5819343118-.0938954072c-.0967586741-.0266580021-.193122415-.059634938-.2883013557-.0990295411s-.188778148-.0866878733-.2802052217-.1409912109c-.1824592142-.1089028751-.3550450942-.2488080193-.5055147059-.4168522139s-.2798102884-.3606728705-.3842701631-.5666306319-.1854212144-.4246520875-.2478206859-.6460122621-.106829475-.4466695865-.1380292107-.6715841373-.0497616039-.4532847685-.0543033376-.6822474826.0053316004-.458912569.0290276023-.6862954533c.0475894703-.4553581686.1528392118-.8999542103.3015316234-1.3179911761s.3410249598-.8101070628.5590281767-1.1748280244.4626644359-.7025864545.7231229894-1.018039479.5378992417-.6080002995.8250157973-.8833675875c.5742331112-.5509320428 1.1885519589-1.0312697467 1.8200504079-1.4682635139l.9616627413-.6221187816.9835815429-.5650509105 2.014357623-.9894068101.5110437729-.2227424173.5136108399-.2133627499 1.0335406135-.4019434312 1.0414385094-.3702500287.5232867073-.1737706801.5248664407-.1659707462 1.0546695485-.3088378907.5301980411-.1414848776.265790154-.0668424719.1332900103-.0320883358.0667437385-.0156986012.0337668026-.0078986673c.0185618681-.0047392004.0410730699-.0065164005.0627944049-.0026658002s.0418629366.0125391343.0570678711.0216226017z" class="B"/>
            <path d="M48.0340918998 16.2374034208s15.0829008748 3.8077500287 14.1978552061 11.2563910291-13.719195969-4.1573646927-13.719195969-4.1573646927l-.4786592371-7.0990263364z" class="K"/>
            <path d="M50.6722467711 20.7417171703s9.4106704348 2.9411678805 8.9365529313 5.3663547425-8.9855246684-3.3779636026-8.9855246684-3.3779636026l.0489717371-1.9883911399z" class="F"/>
            <path d="M47.9685329614 16.1489383473c.0152049345-.0090834673.0351490694-.0180682014.0570678711-.021721335s.0442325368-.0020734001.0627944049.0026658002l.0337668026.0078986673.0667437385.0156986012.1332900103.0320883358.265790154.0668424719.5301980411.1414848776 1.0546695485.3088378907.5248664407.1658720128.5232867073.1738694135 1.0414392808.3702500287 1.0335406135.4019434312.5136116112.2132640166.511043773.2228411506 2.0143576229.9894068101.983581543.5650509105.9616627412.6221187816c.631498449.4369937672 1.2458172967.9172327378 1.8200504079 1.4682635139.2871165556.2754660213.5639648437.5685069631.8250157973.8833675875s.5049223059.653515984.7231229894 1.018039479.4099408319.756297392.5590281767 1.1748280245.2537446864.8626330074.3015316234 1.317991176c.0236960019.2274816177.033569336.4572341022.0290276023.6862954533s-.0231036018.4578265986-.0543033376.6822474826-.0754322725.4498290534-.1380292107.6715841373-.142768411.4399557855-.2478206859.6459135288-.2332081514.3994750856-.3842701631.5667293652-.3230554917.3079493388-.5055147059.4168522139c-.0914270737.0543033376-.1852237477.1011029412-.2802052217.140991211s-.1915426815.0724702722-.2883013557.099029541c-.193714815.0530198041-.3888118968.0820474063-.5819343118.0938954073s-.3850600299.0070100672-.5744305779-.0097746008-.3763714959-.0454173369-.5612003102-.0823436064c-.3696576287-.0742474724-.73023179-.1818668141-1.0838946174-.3083442239l-1.0406494141-.4333406818-1.0072775448-.5144994279-1.9387278837-1.1900329228-.9389548442-.6536148138-.9221694049-.6837283864-.9069644704-.7099914551-.8921544692-.7343783974-.4407456342-.3757790958-.4369937672-.3818018297-.4328469669-.3884169634-.4281077666-.3975004309-.035346536-.0315946691-.0035544003-.0526248707-.2324182847-3.6030761986-.2126716165-3.5935974121zm.1311178768.1770288804l.265790154 3.505231072.2464384191 3.4958517902-.0387034697-.0841208066.2199778838.1840389476.2215576172.1828541476.4456823012.3617589614.4484468348.3571184943.450816435.3525767607.9091366038.6905409869.9192074047.6702017258.9300680721.6466046502.9421143111.6183670111.9555412741.584600112.9709436754.5409599512c.653219784.3416173538 1.3176951689.6513438505 1.9957957548.8838608444.3386553596.1166040757.6806676528.2129678165 1.0236672794.2782305549.17140108.0323845841.3429996266.056672986.5138083065.0701007204s.3408274931.0162910012.5080817728.004344267l.2484130859-.0288301356c.0815537397-.0137239344.1621201459-.031495984.2413042854-.053513519s.1559986788-.0492679372.2312334846-.0809613397.1475076114-.0688171386.2174108169-.1108775419.1366469439-.0891562069.1998362821-.142176011l.0924144072-.082541049.0870828068-.0904397403c.112358542-.1252926218.2093146829-.2709242947.2902760225-.4315634456s.1461253447-.3359895714.198059082-.5198310523.0896498736-.3766676477.1167028091-.5735419297.0438376034-.3950321937.047786937-.5934862091-.004344267-.3966118307-.0246833352-.5933873793c-.0404806698-.3935510972-.1303280101-.7804870606-.2610509536-1.1505394298s-.3007417567-.7242090562-.4982084387-1.0585201488l-.3161441578-.4872490378-.3495160271-.4597024356c-.2426865522-.2977797565-.5027501724-.5784786449-.7748592602-.8441700655l-.847526999-.756100311-.8966962029-.6838271197-.9318452723-.6237972484-.9579108743-.5730483112-1.9699276195-1.0236672794-.5013686769-.2338005514-.5037375058-.2265930176-1.0153736787-.4310697668-1.0238647461-.4043130314-.51479564-.1926287482-.51657284-.1866060145-1.0380823472-.3542552275-.5213120405-.1671555463-.2612484203-.0805664062-.1307229434-.0394933364-.0653614718-.0193517349-.0323845358-.0094784007c.0077012006.0018759335.0189568015.0008886001.029817469-.0059240005s.0201416015-.0183644014.0244858685-.030113669z" class="B"/>
            <path d="M50.8359466505 20.3916087431s-1.7384966682-8.6034258674-11.1837229045-8.834363152c-8.4432804847-.206451416-11.3620355112 8.834363152-11.3620355112 8.834363152-1.2641809267 4.619239744-.2861292222 28.2354646571 11.4530676516 28.2354646571 8.9329976632 0 13.1471341235-14.8484080329 11.0926907641-28.2354646571z" class="K"/>
            <path d="M45.9138921353 45.7033817067c-.3973029641-3.9467665729-1.5076581169-10.0869930492-6.0401107721-10.1828631233v-.0008886001l-.0462072036-.0001974667-.0631893383-.0002962-.0631893382.0002962c-.0154024012.0000987334-.0308048024-.0000987333-.0462072036.0001974667v.0008886001c-4.7723748666.1010042078-5.7069846724 6.3246603573-6.0582778997 10.2728091969 1.6109331916 1.748863669 3.6318072151 2.8336468865 6.1469404399 2.8336468865 2.3723647174.0000987333 4.4702506504-.8017147289 6.1702413156-2.9235929601z" class="E"/>
            <path d="M39.8500853613 39.6482633703s-2.5921452308-2.0184056899-2.9890532616-1.0393658806c-.6322883157 1.5590981876 2.9890532616 1.0393658806 2.9890532616 1.0393658806z" class="B"/>
            <path d="M39.8500853613 39.6482633703s2.4389109892-1.9527480181 2.7789485192-1.3303330365c.8692483341 1.5901004567-2.7789485192 1.3303330365-2.7789485192 1.3303330365z" class="B"/>
            <path d="M39.8500853613 39.6482633703l.0491692038 1.8114606072" stroke-width=".1" class="C G"/>
            <path d="M37.1361031877 42.073154225l2.7925739131-.1729808134 2.6351927746.1729808134s-.4498290051 3.6015948127-2.8338442567 3.5812557445c-1.8893613097-.0161922679-2.593922431-3.5812557445-2.593922431-3.5812557445z" fill="#ea6a49"/>
            <path d="M32.3990749536 30.1786501916c0-1.5354022219.6812600528-2.771543615 1.5276022518-2.771543615s1.5276022519 1.2361413931 1.5276022519 2.771543615-.6812600529 2.7716424448-1.5276022519 2.7716424448-1.5276022518-1.2361416221-1.5276022518-2.7716424448z" class="B"/>
            <path d="M44.3467965471 30.1786501916c0-1.5354022219.6812600528-2.771543615 1.5276022518-2.771543615s1.5276022519 1.2361413931 1.5276022519 2.771543615-.6814575196 2.7716424448-1.5276022519 2.7716424448-1.5276022518-1.2361416221-1.5276022518-2.7716424448z" class="B"/>
            <path d="M36.4228535324 11.9645206227c0 .0001974667-.8901798024 8.2539098403 3.2321347472 8.2539098403 3.5743443141 0 3.2273953539-6.5143271053 3.0719890752-8.2459124397-.9209845084-.2392308852-1.9422821982-.38742963-3.0747536088-.4151736988-1.1824305881-.0290276023-2.2564518715.1236141429-3.2293702136.4071762982z" class="E"/>
            <path d="M35.0520398261 23.8298989955c-.0051341338.0015797335-.011848001.0021721335-.0177720014.0030607336l-.0185618681.0025670668-.0367288029.0041468004-.0726677389.0073062672-.140991211.0118480009-.2691470875.0187593348-.4982084387.0358402028-.4531860351.0516375373-.4170496324.0840220732c-.2685546875.0717791389-.5209171071.1838414809-.7874971277.3552425609l-.2016134824.1401026109c-.0175745347.0117492675-.0337668026.0258681353-.0511438706.0387034696l-.0517362707.0393946031-.0519337373.0411718032-.0264605354.0208327349-.026065602.0216226017-.0533160042.0432452034-.0531185374.0452198701-.1091990752.0928093406-.055883071.048083137-.0572653377.0486755371-.1194673426.0990295411-.0035544003.0027645335c-.0460097369.0348528694-.106829475.0191542682-.1362520106-.0351490694-.0106632008-.0195492015-.0157973345-.0412705365-.0155998679-.0629918715l.0025670669-.0911308738.0027645335-.0453186035.003751867-.0449236701.0106632008-.0892549403.0063189339-.0446274701.0075037339-.0441338035.0169821346-.0880701401.0201416016-.0870828068.0227086684-.0867866067.0264605354-.0853056066c.0728652056-.227876551.1792997472-.4447937012.3137745577-.6435439166.0683234719-.098140941.1419785443-.1933198817.2243221507-.2795140884s.1694264132-.1670568129.2632230871-.2382435518.1921350816-.1341786104.2940278895-.1880870146.2077349494-.0974498075.3147618911-.1324014102.21543615-.0606222714.3242402918-.0760246726.2174108168-.0212276683.3248326918-.0179694681c.2150412167.0062202005.424750833.0488730038.6224149817.1226268095s.3840726964.1786086139.5540915096.3121948243c.0847132066.0671386718.1658720129.1408924776.2413042854.2240259507l.1090016085.1312166102.0509464039.0717791389.0242884019.0379136029.0240909352.0408756032c.0306073357.051538804.0201416016.1228242762-.0234985352.158960679-.0094784007.0077999339-.0197466682.0134277343-.030409869.0167846679l-.0268554687.008096134z" fill="#cd8e6c"/>
            <path d="M44.3063158773 23.6456625812l.0240909352-.0407768698.0242884019-.0379136029.050946404-.0717791389.1090016084-.1312166102c.0754322725-.0831334731.1565910788-.1568872788.2413042854-.2241246841.1700188132-.1335862103.3562298943-.2380460851.5540915097-.3120960908s.4073737649-.1164066091.6224149816-.1227255429c.107421875-.0031594669.2162260167.0026658002.3248326918.0180682014s.2172133502.0414680032.3242402919.0760246726.2126716165.0784930061.314761891.1323026769.2004286823.1169990091.2940278895.1880870146.1814718808.1519506118.2632230871.2382435518.1559986788.1814718808.2243221507.2796128217c.1344748105.1986514821.2411068187.4157660989.3137745577.6434451833l.0264605354.0854043399.0227086684.0867866067.0201416016.0870828068.0169821346.0879714068.007503734.0441338034.0063189338.0447262035.0106632008.0891562069.003751867.0450224035.0025670668.0453186035.0027645336.0911308738c0 .0644728716-.0440350701.116702809-.0985358743.116702809-.0197466682 0-.0381110697-.0068126005-.0533160042-.0185618681l-.0035544002-.0027645335-.1194673426-.099029541-.0572653378-.0486755371-.055883071-.0480831371-.1091990752-.0929080739-.0533160041-.0452198702-.0533160041-.04314647-.0258681354-.021721335-.0264605354-.0207340016-.0519337373-.0411718032-.0519337374-.0394933364-.0509464039-.0387034697-.2016134823-.1400038775c-.2665800207-.1714010799-.5189424403-.2833646886-.7874971278-.3552425609-.1342773438-.0364326028-.2727014878-.0622020048-.4170496324-.0840220732l-.4531860351-.0516375373-.4982084387-.0358402028-.2691470875-.0187593348-.1409912109-.0118480009-.072667739-.0073062672-.0367288029-.0042455337-.0185618681-.0024683335c-.0059240004-.0008886001-.0126378676-.0014810001-.0177720013-.0031594669l-.0264605354-.0081948673c-.051538804-.0159948013-.0821461397-.0784930061-.0687184054-.1395102108.0031594669-.0129340677.008096134-.0253744687.0144150678-.0361364029z" fill="#cd8e6c"/>
            <path d="M33.5967103798 29.7455070247c0-.8463422291.3335212259-1.5277010334.7478063247-1.5277010334s.7480037913.6813588043.7480037913 1.5277010334-.3335212258 1.5277008887-.7480037913 1.5277008887-.7478063247-.6813587861-.7478063247-1.5277008887z" fill="#fff"/>
            <path d="M44.6945353741 29.7455070247c0-.8463422291.3335212259-1.5277010334.7480037914-1.5277010334s.7478063246.6813588043.7478063246 1.5277010334-.3335212258 1.5277008887-.7478063246 1.5277008887-.7480037914-.6813587861-.7480037914-1.5277008887z" fill="#fff"/>
            <path d="M42.1033776694 43.7294060203c-.7969755284-.694885254-3.9935662728-.6026683135-4.4927620449-.132302677.4024370979.9707462087 1.0825123506 2.0485193589 2.1194099942 2.0573066263 1.2549007519.0107619342 1.9736794864-.9821992762 2.3733520507-1.9250039493z" class="F"/>
            <path d="M29.8547167562 35.4216865091c0-.910222285.756889792-1.6430211418 1.697028665-1.6430211418s1.6968311983.7327988568 1.6968311983 1.6430211418-.7566923254 1.6430215274-1.6968311983 1.6430215274-1.697028665-.7327988568-1.697028665-1.6430215274z" class="F"/>
            <path d="M46.3370632348 35.4216865091c0-.910222285.756889792-1.6430211418 1.697028665-1.6430211418s1.697028665.7327988568 1.697028665 1.6430211418-.7568897921 1.6430215274-1.697028665 1.6430215274-1.697028665-.7327988568-1.697028665-1.6430215274z" class="F"/>
            <path d="M28.4546779809 20.454699348l-.111173742.511636173-.0817512063.5268411075-.1086066751 1.0723432022-.0821461397 2.1690727683.0392958697 2.1756877093.1364494772 2.1713437074.2264942843 2.160680362.3191061581 2.1431060924c.2450561523 1.4209702436.554486443 2.8261427669.94566794 4.1970552066s.8647066004 2.7073669433 1.4474307789 3.9712524414c.2922506894.631202249.6117517808 1.2434476965.9634399415 1.8271592084l.5519193761.8523649328.6030632468.7985552619c.4190242992.5123273065.8735926011.9822980096 1.3619277056 1.3938185748s1.0100420784.7651833927 1.5582095876 1.0469683479c.2740837546.1410899443.554486443.2644078872.8396283318.3698550954l.1072244083.0381110696.0537109375.0191542682.0539084042.0183644014.2164234834.0687184053.218003217.0616096048.2193854836.0546982709c.5868709789.1371406106 1.1861823587.2028970157 1.7866786351.2041805492s1.1972404808-.0684222053 1.7827292049-.2095121496 1.1569571934-.3585007612 1.702952569-.6463084502 1.0667150161-.6427540498 1.5556425207-1.0531885483.9454704734-.8776406681 1.3672593061-1.3864135742.8119829963-1.056545482 1.1684103573-1.6348266602.6832347197-1.1841089585.9804220761-1.8104732738l.8086260627-1.9334950166.6546020508-2.01899809c.3882194967-1.3687403062.6848144531-2.7751963629.9043974035-4.1989311401s.3603766946-2.8657354151.4308723001-4.3128699217c.1403988108-2.8944666969.0025670668-5.8105557303-.4089534984-8.6738230047v-.0001974667c-.0159948013-.111469942.047194537-.2171146168.1413861443-.2360714183s.1810769473.0542046042.198651482.1631074793c.2341954849 1.4420991785.394933364 2.9014770774.4824111041 4.3673709912l.0525261374 1.1004816258.0252757353 1.1021602855-.0017772001 1.1028514671-.029817469 1.1024565096c-.0574628044 1.4694482417-.1899629481 2.9357372816-.4024370979 4.3874135943s-.507884306 2.8880485717-.8988683364 4.2907531471l-.6628956514 2.0732026942-.8265955308 1.994117288c-.305480957.6476907169-.6411743164 1.2769182991-1.0116218118 1.8783030791s-.7756491268 1.1745318244-1.2179744945 1.7077905991-.9223668715 1.0248520795-1.4381498449 1.4614509134-1.0692820829.8132665298-1.6512163947 1.1168715533-1.191316396.5349372415-1.814126311.68738152c-.3116024242.0751360725-.626561794.1302292768-.9427059519.1664644129s-.6336705704.0541058709-.950604595.051835004c-.6326833455-.0029620002-1.2671437947-.0739512724-1.8901511764-.2211626838-.3116024242-.0736550724-.6198479147-.1677479463-.9229592716-.2811925551s-.6010885799-.2459447524-.8921544692-.3975004309c-.5821317785-.3025189568-1.1358283548-.6800752527-1.6502290613-1.1186487534s-.9906903436-.936387006-1.4270917107-1.4754710478l-.6261668486-.8377523983-.5694939109-.8892912024c-.361956428-.6075062471-.6889612534-1.2415717629-.9867410098-1.8927181468l-.8070463293-2.0008311552-.0898473403-.2555218865-.0876752068-.2566079532-.08510814-.2577927534-.0827385397-.25858262-.3106150908-1.0427228142c-.3919713637-1.3989527086-.6994269876-2.8274263004-.941323673-4.2691305455l-.5313820699-4.3607555922-.1443481445-4.4022233543.1072244083-2.2049129711.0545008042-.5504387617.0708897675-.5495497759.0932042739-.5483649759.1277609433-.5461928424c.0298174689-.1072244083.1277609432-.1654770795.2182006836-.1300318101s.1388190774.1485936782.1109762752.2547320198l-.0003949333.0011848001z" class="B"/>
            <path d="M33.8942926695 12.8948848949l.04285027-.0283364689.0414680033-.0266580021.0827385397-.051242604.1664644129-.0985358743.3366806928-.1833478142.6869865866-.3260174919c.463256836-.2003299489.9359920726-.3699538287 1.4156386432-.5092665729l.180089614-.0508476706.180682014-.0481818704.1814718807-.0448249368.1816693474-.0421591366.7322064568-.1395102108.7381304573-.0922169405.741684954-.0430477367.743264591.0079974006.3710398834.0241896686.3706449741.0360376694.7371431238.1143332089.7294418269.1689327464.0908346737.0240909352.090044807.0266580021.1800896139.0536122042.1791022806.0582526711.0894524069.029521269.0888600069.0318908691.1777200138.0637817383.176337747.0687184054.0878726735.0346554026.0874777401.0369262696.1745605469.0740500057.6852093865.3348047593.0843182732.0452198702.0420604033.0225112017.0416654699.0237947352.1666618796.0951789407.1648846794.0992270077.1636998794.1014978746c.0805664062.0504527372.111173742.1686365464.0687184053.2641116871s-.1303280101.1269710766-.2079324161.089748607l-.0045417337-.0022708668-.1660694795-.0815537397-.1662669463-.0802702062-.1666618796-.0782955394-.0416654699-.0195492016-.0420604032-.0183644014-.0843182732-.0368275362-.6773107192-.275071088-.17140108-.061115938-.0855030733-.0306073358-.0860954734-.0283364688-.1721909466-.0569691378-.1729808135-.052427404-.0864904067-.0262630687-.08688534-.0240909352-.1737706802-.0484780705-.1747580136-.0439363367-.0872802734-.0219188017-.0874777401-.0199441349-.1753503172-.0396908031-.175745347-.0355440027-.1761402803-.0331744026-.0880701402-.0158960679-.0882676068-.0150074678-.1769301471-.0274478688-.0884650735-.0123416677-.0886625402-.0119467342-.0886625402-.0119467343-.0886625402-.0101695341-.1775225471-.0196479349-.7120648553-.0479844037-.7136445887-.004048067-.7132497517.0388022031-.7112749885.0794803394-.7081155216.1185787426-.1765352137.0355440027-.1759428137.0383085363-.1757453469.0401844698-.1753504136.04285027c-.4674036363.1167028091-.9306604722.2586813534-1.3881907744.4238622329l-.3418148265.1286495433-.3392477597.1379304774-.3354958927.1484949448-.1658720128.0781968061-.081948673.0405794031-.0404806699.0203390683-.0385060029.0199441349-.0055290671.0027645335c-.0833309398.0430477367-.1806820141-.0020734001-.2172133502-.1010042078s-.0025670669-.1995400822.0704956054-.2479194192z" class="B"/>
            <path d="M30.0150597019 17.3686900419s-.6180707146-6.5054411047 2.0684634938-8.8151101505c0 0 1.000958611 4.9080343807 2.844507554 5.3699089499 0 0-2.2264368394 3.5607192096-4.9129710478 3.4452012006z" class="E"/>
            <path d="M29.9111922272 17.5205419203c-.0128353343-.0137239344-.0258681353-.0313972024-.0361364028-.0516375373s-.0177720013-.0426528033-.0219188017-.063979205l-.0023696001-.0143163344-.0003949334-.0024683335-.0007898667-.0048379337-.0027645336-.0193517349-.0053316004-.0382098029-.0098733341-.0761234059-.0183644014-.1514569451-.0311997358-.3025189568-.0458122702-.6056303137-.0306073357-1.2148150275.0541058709-1.2153086943.1536290785-1.206817627c.0697057388-.3991788976.1597505458-.7946059283.2748736214-1.181344425s.2545345531-.7643935259.4239609662-1.1249676872.3682753619-.7031788546.5987189798-1.0157686122.4909021714-.5950658461.7766364602-.8365675982c.0740500058-.0626956715.1771276138-.0423566033.2300486845.0455160702.0165872013.0273491355.0262630687.0581539379.0294225357.0892549403l.0003949333.0041468003.0047392004.0463059369.0055290671.0488730038.0124404009.0986346077.0286326689.197762882.0702981388.3944396972.1848288144.7770313936c.142176011.511043773.3224630916 1.0067838781.5467852424 1.4711267808s.4934692383.8960050695.8113905963 1.2689208985c.1589606789.1864085478.3297693589.3577108944.5114387063.5104513729s.3741993624.2866228889.5752204446.3999687644l.0007898667.0003949333c.0817512064.0462072036.1167028091.1623176126.0776044061.2593724868-.0039493337.0097746008-.0088860007.0198454016-.0140201345.0284352022h0l-.0272504021.0499590706-.0268554687.047194537-.0541058709.0926118738-.112358542.1805832807-.2365650851.3481337603-.51598044.6516400506c-.3615614947.4149762322-.7578771254.790755328-1.1863798253 1.1122310863s-.8895874024.5881545123-1.3763427735.7722921932c-.2432789522.0918220071-.4924819049.1629100126-.7448443244.209907083l-.3805182962.0514400706-.1911477482.0114530676-.047786937.0013822667-.0477869371.0004936667-.0238934685.0001974667c-.0191542681.0005924001-.0410730698-.0002962-.0622020048-.0035544002-.04225787-.0060227338-.0841208065-.0221162684-.1178876092-.0404806699zm.2075374828-.3036050235c-.0029620002-.0196479349-.0140201344-.0371237362-.026065602-.0447262035s-.0122429343-.0054303337-.0159948012-.0056278004l.0221162683-.0024683335.0442325368-.0052328671.0442325368-.0060227338.0882676068-.012440401.0878726735-.0146125344.1749554802-.0342604694.1737706802-.0411718032c.2308385512-.0595362046.4581227022-.1377330106.6802727194-.2327144847.4448924345-.1894692813.8694458008-.4456823012 1.2706980986-.7487936581s.7790060604-.6528248506 1.1354334214-1.0326520134l.5175601735-.592992446.2454510857-.3122935576.1184800092-.1599480124.0580552045-.0804676729.0550932043-.0787892061.0643741383.288103889c-.2182006836-.1231204762-.4275153665-.2686534208-.6245871151-.4341305003s-.3815056296-.3507995606-.5525117762-.5515244428c-.3422097599-.4013510312-.6287339155-.8625344669-.8656939338-1.3524493049s-.425343233-1.0098446117-.5736407112-1.5428071864l-.1927274816-.8101070628-.0734576057-.412310432-.0302124024-.2085248162-.0134277343-.1053484748-.0059240005-.0533160042-.0027645336-.0271516687-.0029620002-.028928869.2598661535.1389178108c-.2644078872.223532284-.5059096392.4843857709-.7195685891.7750567268s-.4000674977.6105669807-.5590281767.9492223403-.291855756.6964649874-.4012522978 1.0646416159-.1956894819.747016458-.2628281538 1.1310891545l-.1482974781 1.1657445571-.0527236041 1.1808507582.0300149356 1.1839114919.0444300035.5897342457.030409869.2931392894.0175745347.145631678.0092809341.0721740723.0051341337.0357414694.0023696002.017673268.0007898667.004344267.0001974667.0021721335c.0001974667.0015797335.0005924.0032582003-.0017772001-.0096758674s-.0106632009-.0376174029-.020536535-.0547970042-.0225112017-.0312984691-.0349516027-.0418629366z" class="B"/>
            <path d="M29.8701191574 14.8087319767s2.2983147116.2628281537 3.7141508215-2.0780406279" class="C G H"/>
            <path d="M30.4528433359 11.0952722886s.7724896599.6178732479 2.2696820427-.2827722886" class="C G H"/>
            <path d="M49.0328783773 17.3674065085s.6180707146-6.505539838-2.0684634938-8.8152088838c0 0-1.000958611 4.9080343807-2.8447050207 5.3700076832 0 0 2.2266343061 3.5606204763 4.9131685145 3.4452012006z" class="E"/>
            <path d="M48.9292083692 17.21555463c-.0124404009.0106632008-.0248808019.0252757353-.034754136.0424553366s-.016784668.0366300696-.0205365349.0547970043l-.0017772002.0096758674.0001974667-.0021721335.0007898667-.004344267.0023696002-.017673268.0051341338-.0357414695.009280934-.0721740722.0175745347-.145631678.0302124024-.2931392894.0446274701-.5897342458.0300149356-1.1839114918-.052723604-1.1808507583-.1482974782-1.1657445571c-.0671386719-.3841714298-.1534316119-.7629125258-.2630256204-1.1310891544s-.2416992188-.7256900563-.4010548311-1.0645428826-.3451717601-.6587488511-.5590281767-.9493210736-.4553581687-.5515244428-.7195685892-.7750567268l.2598661535-.1389178108-.0029620002.0290276023-.0027645336.0270529354-.0061214671.0533160041-.0132302677.1053484749-.0302124023.2085248162-.0734576057.4123104319-.1927274817.8101070629c-.1484949448.5329625747-.3368781594 1.0522999483-.5738381778 1.5428071863s-.5232867073.9510982738-.8654964672 1.3525480383c-.1710061466.2005274156-.3556374942.3857511633-.5525117761.5514257094s-.4063864316.3110100242-.6245871152.4341305004l.0643741384-.288103889.0550932042.0788879394.0580552045.0804676729.1184800092.1598492791.2454510857.3122935576.5173627068.5930911793c.3566248277.3797284295.7343785903.7293431899 1.1356308881 1.0325532801s.8258056641.5593243767 1.2706980986.7488923914c.2221500172.0948827407.4494341682.1729808135.6802727194.2327144848l.1737706802.0410730698.1749554802.0342604693.0878726735.0146125345.0882676069.0125391343.0442325367.0059240005.0442325368.005232867.0221162684.0024683336c-.003751867.0001974666-.0102682675.0016784668-.0159948013.0057265337s-.0234985351.0242884019-.0262630687.0440350701zm.2075374828.3036050236c-.0337668026.0183644014-.0756297392.034457936-.1182825425.0406781365-.021128935.0033569336-.0430477367.0042455336-.0622020048.0036531336l-.0238934686-.0001974667-.047786937-.0005924-.047786937-.0012835335-.1911477482-.0115518009c-.1273660099-.0102682674-.2543370864-.0281390022-.3805182962-.0513413373-.2523624196-.0469970703-.5015653722-.1180850758-.7448443244-.2100058163-.4867553711-.1840389476-.9482350069-.4509151683-1.3763427735-.7721934599s-.8248183306-.6972548541-1.1863798253-1.1122310863l-.5159804401-.6516400505-.236565085-.3481337604-.112358542-.1805832806-.0541058709-.0926118739-.0268554687-.047194537-.0272504022-.0499590705c-.0523286707-.0877739402-.0345566693-.2092159496.0396908031-.2711217544.0075037339-.0062202005.0152049345-.0116505342.0231036018-.0160935346l.0015797335-.0008886c.2010210822-.1133458755.3935510972-.2473270192.5752204446-.3999687644s.3524780273-.3240428251.5114387063-.5104513729c.317921358-.3728170956.5872659123-.8050716625.8113905963-1.2689208985s.4046092314-.9602804745.5467852424-1.4711267808l.1848288144-.7770313936.0702981388-.3944396972.0288301355-.197762882.0122429343-.0986346077.0055290671-.0488730038.0047392004-.0463059369.0001974666-.0032582003c.0108606676-.1071256749.0930068073-.1833478142.1834465476-.1705124799.0282377355.0039493337.0545008042.016784668.0762221393.0348528694.2857342888.2415017521.5465877757.5236816406.7766364602.8365675982s.4292925666.6554906509.5987189798 1.0157686122.3090353573.7383279239.4239609662 1.1249676872.2049704159.7821655274.2748736213 1.181344425l.1534316119 1.206817627.0543033376 1.2153086942-.0308048024 1.2148150276-.0456148035.605729047-.0313972025.3024202235-.0181669347.1514569451-.0100708008.0761234059-.0053316004.0382098029-.0027645336.0193517349-.0005924.0048379337-.0003949334.0024683335c0 .0000987333.0001974667-.0000987334-.0025670668.0144150678s-.0114530676.0436401367-.0219188017.0638804716-.0227086685.0375186696-.0355440028.051242604z" class="B"/>
            <path d="M49.1778189219 14.8074484432s-2.2983147117.2627294204-3.7141508215-2.0781393612" class="C G H"/>
            <path d="M48.5950947433 11.0939887551s-.7724896599.6177745146-2.2696820427-.2828710219" class="C G H"/>
            <path d="M36.5928723456 41.693820729c.8577952665 1.9035788143 3.6235137108 1.2953814338 3.2641243496-.7899654613" class="E"/>
            <path d="M36.6756108853 41.6415907916c.0552906709.0893536736.1131484088.1741656135.1753504136.2529548196l.0231036018.0295212689.0242884019.0284352023.0487742704.0554881376.1020902746.1040649414c.1398064108.1324014103.2946202895.2381448185.4585176356.3162428912s.3362857594.1303280101.5118336397.154616412c.0876752068.0132302677.1759428136.0185618681.2642104205.0180682014s.176337747-.0084910673.2634205537-.0218200684c.1743630802-.0278428021.3445793601-.0833309398.5021577723-.1672542796.0100708008-.0049366671.0197466682-.0105644675.029225069-.0161922679l.0292250689-.0166859347.0568704044-.0358402027.0554882341-.038209803.0535134708-.0413692699c.0701006721-.0574628044.1356596105-.1212445427.1939122817-.1935173483l.021721335-.0270529355.0209314683-.0280402688c.0144150678-.0183644014.0266580021-.0384072696.0398882698-.0579564712l.0098733341-.0147112678.0088860006-.0152049345.0181669348-.030706069.0343592027-.0629918716c.0432452033-.08599674.078196806-.1788060805.1038674747-.2768482881s.0424553366-.2011198156.0509464039-.3073568905.0078986673-.2153374167.0021721335-.326313692v-.0018759335c-.0027645335-.0526248707.0311997358-.0980422076.0756297392-.1012016745s.0701006721.0250782686.081356273.0650652717c.0325820025.1156167423.0548957376.2367625517.0653614717.3614627614s.0082936007.2528560863-.0077012006.3804195628-.0467996036.2543370864-.0918220071.3742980957l-.0359389361.0887612736-.0201416016.0432452033-.0100708007.0215238684-.0110581342.0209314683-.0456148036.082541073-.0240909352.0403819365-.0256706686.038802203c-.0693108054.102485208-.1482974782.1957882152-.2345904182.2764533548l-.0655589384.0588450712-.0681260053.0545008042-.0702981388.0499590706-.0357414695.0234985351-.0361364028.0226099351c-.1935174447.1176901425-.4026346609.1918388816-.6145164107.2286664178-.1058421416.0187593348-.2128690832.0264605354-.3196985582.0265592687s-.2134614832-.0110581342-.319106158-.029817469c-.2108944164-.0392958697-.4176420324-.1144319422-.6083948472-.2288638844s-.3664981618-.2651977539-.5114387064-.4490392348l-.1028801413-.1429658778-.0469970703-.0752348058-.0227086684-.038209803-.0209314683-.0392958697c-.0562780044-.1047560748-.1040649414-.2149424834-.1411886776-.3290782255-.0187593348-.0575615378.0053316004-.1221331429.0539084041-.1444468779s.0855030733-.0016784668.1099889419.0381110696l.0013822668.0020734002z" class="B"/>
            <path d="M43.1209233854 41.0836486816c-.4026345646 2.0767570944-3.0765308089 2.118027631-3.197577885 0" class="E"/>
            <path d="M43.2121529924 41.1084307502c-.0100708008.1183812759-.0306073357.2364663517-.0606222713.3522805607l-.0112556009.0435414034-.013032801.0429490033-.0276453355.0853056066-.0663488052.1662669463c-.0971536075.2175095502-.2324182847.4139888987-.3929586971.5752204446s-.3459615304.2876102223-.5426383457.3757790958c-.098733341.0429490033-.2000337488.0777031394-.3033088235.1015966079s-.2081298828.038802203-.3133796243.0422578699c-.210499483.007799934-.4231710995-.0244858685-.6257719243-.1024852079l-.0379136044-.0150074679-.0375186681-.0164884679-.0742474754-.0353465361c-.0491692038-.0250782686-.0967586742-.0538096708-.1437557325-.0846144732-.0935992072-.0613134048-.1814718807-.1360545439-.2618408203-.2205702838-.0396908031-.0426528033-.0778018727-.0875764735-.1133458754-.1352646772l-.0517362707-.0728652056-.0244858686-.0376174029-.0229061351-.038802203c-.0612146714-.1035712747-.1111737419-.2155348834-.1494822783-.3312503591s-.0647690716-.2351828182-.0799740062-.3551438275-.0199441348-.240020752-.0144150677-.3582045611c.0025670668-.0528223375.0408756031-.0930068073.0853056066-.090044807s.0667437385.0342604693.0742474724.0753335392l.0003949334.0019746668c.0191542681.1061383415.0424553366.2090184829.0724702723.3075543572s.0663488051.1921350815.1095940085.2795140883c.0860954733.1748567469.1996388154.3234504251.3331262925.4387709674.0663488051.0583514045.138424132.1073231416.2134614711.1492848116l.1151230786.0560805377.0588450683.0237947351.0298174689.0110581342.0304098691.0097746008c.1613302912.0511438706.3307567044.0719766056.4995907174.0633868049.0845157399-.0048379337.1688340131-.0151062012.2521649529-.0339642693s.1656745462-.0430477367.2456485524-.0756297392c.1609353459-.0632880716.3131821577-.155208812.4516063017-.271319221s.2612483239-.2591750202.3641284652-.4238622329l.0734576057-.1274647433.0339642693-.0667437385.0163897346-.0338655359.0155998679-.0346554027c.0414680032-.0925131405.077604406-.1895680147.1107788086-.2900785558l.0007898667-.0021721336c.0189568015-.0575615377.0736550724-.08599674.1222318761-.0635842715.0402832032.0185618681.0635842716.0665462718.0594374713.1153205422z" class="B"/>
        </g>
    </g>
</svg>