<svg version="1.1" id="Layer_1" xmlns="http://www.w3.org/2000/svg" xmlns:xlink="http://www.w3.org/1999/xlink" x="0px" y="0px"
	 viewBox="0 0 5000 6300" style="enable-background:new 0 0 5000 3910.99;" xml:space="preserve">
<style type="text/css">
	.st0{fill:#F3CEA0;}
	.st1{fill:#EEA698;}
	.st2{fill:#38140F;}
	.st3{fill:#FCEFD9;}
	.st4{fill:none;stroke:#38140F;stroke-width:22.8793;stroke-miterlimit:10;}
	.st5{fill:#EA6A49;}
	.st6{fill:#CD8E6C;}
	.st7{fill:#FFFFFF;}
	.st8{fill:none;stroke:#38140F;stroke-width:33.7197;stroke-miterlimit:10;}
</style>
<g>
	<g>
		<path class="st0" d="M1609.61,810.48c0,0-1615.22,344.41-1520.45,1018.14s1469.18-376.03,1469.18-376.03L1609.61,810.48z"/>
		<path class="st1" d="M1327.08,1217.9c0,0-1007.77,266.03-957,485.38s962.24-305.53,962.24-305.53L1327.08,1217.9z"/>
		<g>
			<path class="st2" d="M1602.59,818.49c0.45,1.08,1.41,2.14,2.57,2.73c1.15,0.61,2.38,0.7,3.18,0.53l-3.46,0.86l-7,1.75l-14,3.57
				c-9.33,2.4-18.66,4.82-27.98,7.29c-18.63,4.95-37.25,9.96-55.83,15.12c-37.17,10.28-74.22,21.01-111.16,32.04
				c-18.47,5.52-36.9,11.17-55.31,16.88c-18.41,5.7-36.79,11.51-55.13,17.42c-36.68,11.84-73.25,23.98-109.65,36.57
				c-36.39,12.62-72.66,25.56-108.73,38.99c-18.04,6.71-36.02,13.55-53.96,20.5c-17.95,6.92-35.84,13.97-53.68,21.15
				c-71.32,28.76-141.85,59.34-210.97,92.59c-34.56,16.62-68.8,33.82-102.57,51.83c-33.77,18-67.06,36.81-99.79,56.42
				c-32.71,19.64-64.81,40.2-96.03,61.85c-31.2,21.68-61.63,44.35-90.76,68.39c-29.13,24.03-56.99,49.42-82.97,76.36
				c-12.97,13.48-25.52,27.31-37.44,41.58c-11.92,14.27-23.25,28.96-33.85,44.07c-21.15,30.24-39.4,62.23-53.35,95.74
				c-14,33.47-23.62,68.47-27.96,104.07c-2.19,17.8-3.09,35.73-2.65,53.67c0.43,17.95,2.18,35.83,5.11,53.68
				c2.91,17.81,6.98,35.23,12.52,51.88c5.55,16.63,12.51,32.51,21.21,47.02c8.67,14.53,19.04,27.7,31.08,39.03
				c2.98,2.87,6.14,5.54,9.31,8.18c3.24,2.57,6.49,5.12,9.91,7.47c6.76,4.79,13.96,9.01,21.41,12.86
				c7.48,3.8,15.26,7.13,23.29,10.03c8.04,2.86,16.31,5.31,24.76,7.32c8.46,1.99,17.09,3.6,25.84,4.84
				c8.76,1.23,17.64,2.07,26.59,2.61c17.91,1.08,36.12,0.8,54.41-0.4c18.29-1.21,36.67-3.4,55.03-6.34
				c36.73-5.9,73.36-14.62,109.63-25.16c72.62-21.03,143.77-49.05,213.71-79.95c34.97-15.5,69.58-31.96,103.98-48.93
				c34.39-17,68.49-34.66,102.34-52.87c33.88-18.15,67.5-36.82,100.9-55.94c33.4-19.11,66.62-38.58,99.6-58.48
				c32.99-19.88,65.83-40.05,98.43-60.62c32.65-20.49,65.07-41.37,97.36-62.46c16.14-10.55,32.23-21.18,48.28-31.89
				c16.06-10.68,32.07-21.45,48.02-32.3c15.97-10.83,31.88-21.74,47.73-32.72l23.73-16.54c7.89-5.52,15.8-11.09,23.56-16.65l0,0
				l-4.15,7.61c8.42-105.61,17.16-210.84,26.38-316.2C1583.32,1030.19,1592.97,924.58,1602.59,818.49z M1616.63,802.48
				c-7.48,107.94-14.91,216.37-22.79,325.05c-7.86,108.68-16.22,217.48-24.89,325.9l-0.38,4.76l-3.77,2.86l0,0
				c-15.22,12.23-30.47,24.11-45.85,35.95c-15.38,11.82-30.83,23.51-46.36,35.13c-15.54,11.59-31.14,23.11-46.79,34.54
				c-15.67,11.41-31.41,22.73-47.2,33.99c-31.58,22.5-63.46,44.6-95.55,66.42c-32.13,21.74-64.47,43.21-97.12,64.22
				c-32.66,20.99-65.54,41.67-98.76,61.84c-33.22,20.16-66.72,39.89-100.55,59.12c-67.73,38.31-136.71,74.7-207.61,107.64
				c-35.44,16.49-71.35,32.13-107.87,46.54c-36.52,14.4-73.6,27.69-111.45,39.19c-37.86,11.44-76.48,21.18-116.07,27.89
				c-19.79,3.34-39.83,5.93-60.1,7.45s-40.8,1.97-61.5,0.88c-20.69-1.07-41.58-3.68-62.32-8.49c-10.37-2.41-20.68-5.39-30.87-8.96
				c-10.18-3.61-20.23-7.84-30.01-12.75c-19.54-9.85-38.03-22.5-54.14-37.7c-16.18-15.13-29.96-32.63-41.15-51.26
				c-11.26-18.63-19.85-38.41-26.55-58.43c-6.69-20.05-11.42-40.4-14.77-60.74c-3.34-20.3-5.34-41-5.82-61.71
				c-0.49-20.72,0.57-41.51,3.12-62.08c5.09-41.18,16.36-81.4,32.29-119.21c15.96-37.85,36.52-73.27,59.85-106.26
				c23.39-32.97,49.56-63.55,77.45-92.08c27.96-28.48,57.6-55,88.34-79.9c61.5-49.84,127.29-93.28,194.91-132.81
				c33.82-19.78,68.22-38.43,102.98-56.27c34.76-17.83,69.88-34.87,105.33-51.11c70.91-32.45,142.93-62.14,215.73-89.49
				c18.2-6.85,36.44-13.56,54.72-20.15c18.29-6.56,36.63-12.99,55-19.29c36.75-12.61,73.64-24.77,110.69-36.36
				c37.05-11.61,74.21-22.83,111.52-33.49c18.65-5.35,37.33-10.59,56.03-15.72c18.71-5.12,37.45-10.11,56.22-15.01
				c37.53-9.81,75.19-19.1,112.95-27.93c18.89-4.39,37.8-8.7,56.76-12.8c9.48-2.05,18.97-4.08,28.47-6.05l14.27-2.9l7.15-1.42
				l3.62-0.71c1.99-0.43,4.39-0.59,6.73-0.24C1612.87,800.85,1615,801.66,1616.63,802.48z"/>
		</g>
		<path class="st0" d="M3390.39,810.48c0,0,1615.22,344.41,1520.45,1018.14c-94.77,673.72-1469.18-376.03-1469.18-376.03
			L3390.39,810.48z"/>
		<path class="st1" d="M3672.92,1217.9c0,0,1007.77,266.03,957,485.38s-962.24-305.53-962.24-305.53L3672.92,1217.9z"/>
		<g>
			<path class="st2" d="M3383.37,802.48c1.63-0.82,3.77-1.63,6.11-1.96c2.34-0.35,4.74-0.19,6.73,0.24l3.62,0.71l7.15,1.42
				l14.27,2.9c9.51,1.97,18.99,3.99,28.47,6.05c18.96,4.1,37.87,8.41,56.76,12.8c37.77,8.83,75.42,18.12,112.95,27.93
				c18.77,4.9,37.51,9.89,56.22,15.01c18.71,5.13,37.38,10.38,56.03,15.72c37.31,10.66,74.47,21.88,111.52,33.49
				c37.05,11.6,73.94,23.76,110.69,36.36c18.37,6.31,36.71,12.73,55,19.29c18.28,6.59,36.53,13.3,54.72,20.15
				c72.8,27.35,144.82,57.04,215.73,89.49c35.45,16.24,70.56,33.28,105.33,51.11c34.75,17.85,69.15,36.5,102.98,56.27
				c67.63,39.53,133.42,82.97,194.91,132.81c30.74,24.91,60.38,51.42,88.34,79.9c27.9,28.54,54.07,59.11,77.45,92.08
				c23.33,32.98,43.89,68.41,59.85,106.26c15.93,37.81,27.19,78.03,32.29,119.21c2.55,20.58,3.61,41.36,3.12,62.08
				c-0.48,20.71-2.48,41.41-5.82,61.71c-3.35,20.34-8.08,40.69-14.77,60.74c-6.71,20.02-15.3,39.8-26.55,58.43
				c-11.18,18.63-24.97,36.13-41.15,51.26c-16.11,15.2-34.6,27.85-54.14,37.7c-9.78,4.91-19.83,9.15-30.01,12.75
				c-10.19,3.57-20.51,6.56-30.87,8.96c-20.74,4.8-41.63,7.42-62.32,8.49c-20.7,1.09-41.23,0.64-61.5-0.88
				c-20.28-1.53-40.31-4.11-60.1-7.45c-39.59-6.71-78.21-16.45-116.07-27.89c-37.85-11.5-74.94-24.79-111.45-39.19
				c-36.52-14.4-72.43-30.04-107.87-46.54c-70.9-32.94-139.88-69.33-207.61-107.64c-33.83-19.23-67.33-38.97-100.55-59.12
				c-33.22-20.17-66.1-40.85-98.76-61.84c-32.65-21.01-64.98-42.48-97.12-64.22c-32.09-21.81-63.96-43.91-95.55-66.42
				c-15.79-11.25-31.53-22.57-47.2-33.99c-15.66-11.43-31.26-22.95-46.79-34.54c-15.52-11.62-30.98-23.32-46.36-35.13
				c-15.38-11.84-30.63-23.72-45.85-35.95l0,0l-3.77-2.86l-0.38-4.76c-8.67-108.42-17.03-217.23-24.89-325.9
				C3398.28,1018.85,3390.85,910.42,3383.37,802.48z M3397.41,818.49c9.61,106.09,19.27,211.7,28.48,317.05
				c9.23,105.36,17.96,210.59,26.38,316.2l-4.15-7.61l0,0c7.76,5.56,15.68,11.13,23.56,16.65l23.73,16.54
				c15.85,10.99,31.76,21.9,47.73,32.72c15.95,10.85,31.96,21.61,48.02,32.3c16.04,10.71,32.13,21.34,48.28,31.89
				c32.29,21.1,64.71,41.97,97.36,62.46c32.6,20.56,65.44,40.74,98.43,60.62c32.98,19.9,66.2,39.37,99.6,58.48
				c33.39,19.12,67.02,37.8,100.9,55.94c33.84,18.2,67.95,35.87,102.33,52.87c34.4,16.97,69.01,33.43,103.98,48.93
				c69.94,30.9,141.09,58.92,213.71,79.95c36.27,10.54,72.91,19.26,109.63,25.16c18.36,2.93,36.74,5.13,55.03,6.34
				c18.29,1.21,36.5,1.48,54.41,0.4c8.95-0.53,17.83-1.38,26.59-2.61c8.75-1.24,17.38-2.85,25.84-4.84
				c8.46-2.01,16.72-4.46,24.76-7.32c8.02-2.89,15.81-6.23,23.29-10.03c7.45-3.84,14.64-8.07,21.4-12.86
				c3.42-2.34,6.67-4.9,9.91-7.47c3.17-2.65,6.33-5.32,9.31-8.18c12.04-11.33,22.41-24.5,31.08-39.03
				c8.7-14.51,15.66-30.39,21.21-47.02c5.54-16.64,9.61-34.07,12.52-51.88c2.93-17.85,4.68-35.73,5.11-53.68
				c0.44-17.93-0.46-35.87-2.65-53.67c-4.34-35.6-13.96-70.6-27.96-104.07c-13.95-33.51-32.2-65.5-53.35-95.74
				c-10.6-15.11-21.93-29.8-33.85-44.07c-11.93-14.27-24.47-28.1-37.44-41.58c-25.98-26.94-53.84-52.33-82.97-76.36
				c-29.13-24.05-59.56-46.71-90.76-68.39c-31.23-21.66-63.32-42.21-96.03-61.85c-32.73-19.61-66.02-38.42-99.79-56.42
				c-33.76-18.02-68.01-35.22-102.57-51.83c-69.12-33.24-139.64-63.83-210.97-92.59c-17.84-7.18-35.73-14.22-53.68-21.15
				c-17.94-6.95-35.92-13.78-53.96-20.5c-36.07-13.44-72.34-26.37-108.73-38.99c-36.4-12.6-72.97-24.74-109.65-36.57
				c-18.34-5.91-36.72-11.71-55.13-17.42c-18.41-5.72-36.84-11.36-55.31-16.88c-36.94-11.03-73.99-21.77-111.16-32.04
				c-18.58-5.17-37.2-10.18-55.83-15.12c-9.32-2.47-18.65-4.89-27.98-7.29l-14-3.57l-7-1.75l-3.46-0.86
				c0.81,0.17,2.03,0.08,3.19-0.53C3396.01,820.63,3396.96,819.56,3397.41,818.49z"/>
		</g>
		<path class="st0" d="M3690.44,1186.23c0,0-186.16-778.18-1197.66-799.07c-904.17-18.67-1216.74,799.07-1216.74,799.07
			c-135.39,417.81-30.64,2553.89,1226.51,2553.89C3459.16,3740.12,3910.46,2397.09,3690.44,1186.23z"/>
		<path class="st3" d="M3163.35,3475.68c-42.54-356.99-161.46-912.37-646.83-921.04v-0.08c-1.67-0.02-3.3-0.01-4.96-0.02
			c-2.24-0.02-4.5-0.02-6.76-0.03c-2.26,0-4.52,0-6.76,0.03c-1.66,0.01-3.3-0.01-4.96,0.02v0.08
			c-511.07,9.13-611.14,572.06-648.77,929.17c172.52,158.19,388.92,256.3,658.26,256.3
			C2756.63,3740.12,2981.29,3667.6,3163.35,3475.68z"/>
		<path class="st2" d="M2513.97,2927.99c0,0-277.58-182.56-320.09-94.01C2126.18,2975,2513.97,2927.99,2513.97,2927.99z"/>
		<path class="st2" d="M2513.97,2927.99c0,0,261.18-176.62,297.61-120.33C2904.66,2951.49,2513.97,2927.99,2513.97,2927.99z"/>
		<line class="st4" x1="2513.97" y1="2927.99" x2="2519.24" y2="3091.84"/>
		<path class="st5" d="M2223.34,3147.32l299.05-15.64l282.21,15.64c0,0-48.18,325.77-303.48,323.93
			C2298.79,3469.78,2223.34,3147.32,2223.34,3147.32z"/>
		<ellipse class="st2" cx="1879.65" cy="2071.47" rx="163.59" ry="250.69"/>
		<ellipse class="st2" cx="3159.11" cy="2071.47" rx="163.59" ry="250.69"/>
		<path class="st3" d="M2146.95,424c0,0.02-95.32,746.57,346.13,746.57c382.78,0,345.63-589.22,328.99-745.85
			c-98.64-21.63-208.01-35.04-329.28-37.55C2366.16,384.55,2251.14,398.35,2146.95,424z"/>
		<g>
			<path class="st6" d="M2000.17,1497.22c-0.56,0.15-1.27,0.2-1.91,0.28l-1.99,0.23l-3.94,0.38c-2.63,0.26-5.2,0.45-7.77,0.66
				c-5.13,0.41-10.16,0.76-15.1,1.07c-9.9,0.65-19.49,1.19-28.83,1.7c-18.69,1.07-36.41,2-53.35,3.24
				c-16.94,1.21-33.08,2.71-48.54,4.67c-15.46,1.98-30.28,4.31-44.65,7.6c-28.77,6.49-55.79,16.63-84.34,32.13
				c-7.05,3.96-14.32,8.09-21.59,12.67c-1.88,1.07-3.62,2.34-5.46,3.5c-1.83,1.19-3.75,2.31-5.55,3.57l-5.57,3.72
				c-0.92,0.64-1.9,1.22-2.82,1.88l-2.79,1.96c-1.85,1.32-3.8,2.6-5.71,3.91c-1.85,1.38-3.79,2.71-5.7,4.09
				c-3.92,2.68-7.7,5.58-11.7,8.4c-2.02,1.4-3.97,2.88-5.97,4.35s-4.04,2.94-6.13,4.4c-4.12,2.97-8.24,6.03-12.8,8.96l-0.39,0.25
				c-4.91,3.15-11.44,1.73-14.59-3.18c-1.14-1.77-1.68-3.74-1.67-5.7c0-2.77,0.12-5.51,0.29-8.24c0.07-1.38,0.16-2.74,0.28-4.1
				c0.11-1.37,0.22-2.73,0.41-4.07c0.34-2.69,0.72-5.38,1.15-8.07l0.66-4.04c0.23-1.34,0.54-2.65,0.81-3.99
				c0.56-2.66,1.19-5.3,1.81-7.96c0.63-2.65,1.39-5.27,2.17-7.88c0.8-2.6,1.56-5.25,2.43-7.85c0.93-2.56,1.84-5.17,2.84-7.72
				c7.79-20.61,19.2-40.23,33.6-58.2c7.31-8.88,15.21-17.49,24.01-25.29c8.77-7.81,18.16-15.11,28.19-21.55
				c10.03-6.43,20.58-12.13,31.5-17.01c10.93-4.87,22.23-8.81,33.69-11.97c11.46-3.13,23.09-5.49,34.73-6.88s23.28-1.92,34.79-1.63
				c23.03,0.57,45.48,4.43,66.65,11.1c21.18,6.69,41.13,16.15,59.33,28.23c9.09,6.08,17.77,12.75,25.85,20.27
				c4.05,3.74,7.96,7.68,11.68,11.87c1.86,2.09,3.68,4.25,5.44,6.49l2.6,3.43l2.59,3.69c3.28,4.67,2.15,11.11-2.52,14.38
				c-1.02,0.71-2.12,1.22-3.26,1.52L2000.17,1497.22z"/>
		</g>
		<g>
			<path class="st6" d="M2991.19,1480.56l2.59-3.69l2.6-3.43c1.76-2.24,3.58-4.4,5.44-6.49c3.72-4.19,7.63-8.13,11.68-11.87
				c8.09-7.52,16.77-14.19,25.85-20.27c18.21-12.08,38.15-21.53,59.33-28.23c21.18-6.67,43.63-10.53,66.65-11.1
				c11.51-0.29,23.15,0.24,34.79,1.63c11.64,1.39,23.27,3.75,34.73,6.88c11.46,3.16,22.76,7.1,33.69,11.97
				c10.92,4.88,21.47,10.58,31.5,17.01c10.03,6.44,19.42,13.74,28.19,21.55c8.8,7.8,16.7,16.41,24.01,25.29
				c14.4,17.97,25.82,37.6,33.6,58.2c1,2.56,1.91,5.16,2.84,7.72c0.87,2.6,1.63,5.24,2.43,7.85c0.78,2.61,1.55,5.22,2.17,7.88
				c0.62,2.67,1.25,5.3,1.81,7.96c0.27,1.33,0.58,2.64,0.81,3.99l0.66,4.04c0.43,2.69,0.81,5.38,1.15,8.07
				c0.19,1.34,0.3,2.71,0.41,4.07c0.12,1.36,0.21,2.73,0.28,4.1c0.17,2.73,0.29,5.47,0.29,8.24c0,5.83-4.73,10.56-10.56,10.56
				c-2.1,0-4.07-0.62-5.71-1.68l-0.38-0.25c-4.56-2.93-8.68-5.99-12.8-8.96c-2.09-1.46-4.13-2.93-6.13-4.4s-3.95-2.95-5.97-4.35
				c-4-2.83-7.79-5.72-11.7-8.4c-1.91-1.38-3.85-2.71-5.7-4.09c-1.92-1.32-3.86-2.59-5.71-3.91l-2.79-1.96
				c-0.92-0.66-1.9-1.24-2.82-1.88l-5.57-3.72c-1.8-1.27-3.72-2.39-5.55-3.57c-1.85-1.16-3.58-2.43-5.46-3.5
				c-7.26-4.58-14.53-8.71-21.59-12.67c-28.55-15.5-55.57-25.63-84.34-32.13c-14.37-3.29-29.19-5.62-44.65-7.6
				c-15.46-1.95-31.6-3.45-48.54-4.67c-16.95-1.24-34.66-2.17-53.35-3.24c-9.34-0.51-18.93-1.04-28.83-1.7
				c-4.95-0.31-9.98-0.66-15.1-1.07c-2.57-0.21-5.15-0.41-7.77-0.66l-3.94-0.38l-1.99-0.23c-0.64-0.08-1.35-0.13-1.91-0.28
				l-2.82-0.74c-5.51-1.45-8.8-7.1-7.35-12.62C2989.98,1482.66,2990.52,1481.53,2991.19,1480.56z"/>
		</g>
		<ellipse class="st7" cx="1924.4" cy="2032.29" rx="80.09" ry="138.18"/>
		<ellipse class="st7" cx="3112.86" cy="2032.29" rx="80.09" ry="138.18"/>
		<path class="st1" d="M2755.28,3297.13c-85.34-62.85-427.66-54.51-481.13-11.97c43.11,87.81,115.93,185.29,226.98,186.09
			C2635.51,3472.22,2712.49,3382.41,2755.28,3297.13z"/>
		<ellipse class="st1" cx="1625.31" cy="2545.7" rx="181.73" ry="148.61"/>
		<ellipse class="st1" cx="3390.39" cy="2545.7" rx="181.73" ry="148.61"/>
		<g>
			<path class="st2" d="M1293.66,1191.94c-4.67,15.02-8.53,30.55-11.9,46.27c-3.35,15.73-6.25,31.64-8.77,47.66
				c-5.01,32.06-8.72,64.47-11.63,96.99c-5.68,65.09-8.25,130.62-8.79,196.19c-0.53,65.58,0.99,131.22,4.21,196.79
				c3.17,65.57,8.09,131.07,14.6,196.4c6.47,65.34,14.5,130.52,24.26,195.43c9.76,64.91,21.04,129.58,34.17,193.85
				c26.25,128.52,59.39,255.62,101.27,379.62c41.9,123.93,92.6,244.88,155.02,359.2c31.28,57.09,65.51,112.47,103.17,165.27
				c18.83,26.39,38.5,52.15,59.1,77.09c20.61,24.93,42.13,49.06,64.58,72.23c44.88,46.34,93.55,88.85,145.85,126.07
				c52.28,37.24,108.17,69.21,166.87,94.7c29.34,12.76,59.37,23.92,89.91,33.45l11.49,3.45l5.75,1.73c1.92,0.57,3.82,1.17,5.76,1.66
				l23.18,6.22l23.35,5.57c7.82,1.71,15.67,3.28,23.5,4.95c62.85,12.4,127.01,18.35,191.32,18.47
				c64.19,0.17,128.22-6.19,190.91-18.95c62.63-12.99,123.91-32.43,182.37-58.46c58.56-25.81,114.24-58.14,166.6-95.26
				c52.26-37.29,101.24-79.38,146.41-125.4c45.24-45.96,86.95-95.57,125.14-147.87c38.23-52.28,73.16-107.1,104.98-163.76
				c31.82-56.67,60.57-115.15,86.59-174.88c26.02-59.74,49.27-120.75,70.11-182.62c41.57-123.8,73.34-251.02,96.86-379.79
				c23.4-128.81,38.58-259.21,46.14-390.1c15.02-261.81,0.26-525.57-43.8-784.55v-0.02c-1.71-10.08,5.06-19.63,15.14-21.35
				c9.94-1.69,19.38,4.9,21.28,14.75c25.08,130.44,42.29,262.44,51.65,395.03c2.34,33.15,4.21,66.33,5.62,99.54
				c1.43,33.21,2.33,66.44,2.72,99.69c0.4,33.24,0.34,66.5-0.2,99.75s-1.63,66.5-3.18,99.72c-6.17,132.91-20.36,265.54-43.1,396.84
				c-22.91,131.25-54.4,261.22-96.27,388.1c-20.92,63.43-44.52,126.05-70.98,187.52s-55.81,121.79-88.53,180.37
				c-32.7,58.58-68.65,115.49-108.32,169.89c-39.63,54.41-83.07,106.24-130.43,154.47c-47.29,48.29-98.79,92.7-154.01,132.19
				c-55.34,39.29-114.51,73.56-176.84,101.02c-62.23,27.67-127.57,48.38-194.27,62.17c-33.37,6.8-67.09,11.78-100.95,15.06
				c-33.85,3.26-67.86,4.89-101.8,4.69c-67.76-0.27-135.7-6.69-202.42-20.01c-33.36-6.66-66.37-15.17-98.83-25.43
				c-32.47-10.25-64.38-22.25-95.55-35.95c-62.34-27.37-121.62-61.52-176.71-101.19c-55.11-39.66-106.09-84.69-152.83-133.45
				c-23.38-24.38-45.71-49.7-67.05-75.78c-21.32-26.09-41.62-52.96-61-80.43c-38.76-54.95-73.78-112.3-105.66-171.2
				c-31.86-58.92-60.43-119.46-86.44-180.97c-3.2-7.71-6.49-15.39-9.62-23.12l-9.38-23.21l-9.11-23.31
				c-3.01-7.78-5.91-15.6-8.87-23.39c-11.68-31.24-22.75-62.7-33.26-94.32c-41.97-126.53-74.89-255.74-100.8-386.14
				c-25.82-130.44-44.64-262.15-56.9-394.43c-12.12-132.29-17.89-265.19-15.46-398.18c1.36-66.49,4.68-133.01,11.47-199.43
				c1.75-16.6,3.63-33.2,5.84-49.79c2.24-16.58,4.74-33.16,7.6-49.71c2.88-16.55,6.14-33.09,9.98-49.6
				c3.85-16.5,8.24-32.98,13.67-49.4c3.21-9.7,13.68-14.97,23.38-11.76c9.59,3.17,14.85,13.44,11.87,23.04L1293.66,1191.94z"/>
		</g>
		<g>
			<path class="st2" d="M1876.17,508.15l4.59-2.56l4.44-2.41c2.96-1.58,5.92-3.12,8.88-4.64c5.92-3.05,11.86-6.01,17.81-8.91
				c11.94-5.75,23.97-11.24,36.07-16.58c24.19-10.66,48.76-20.38,73.55-29.49c49.61-18.12,100.25-33.46,151.61-46.06l19.29-4.6
				l19.35-4.36l19.42-4.06l19.47-3.81c25.99-4.96,52.16-9.06,78.4-12.62c26.25-3.49,52.61-6.31,79.04-8.34
				c26.43-1.95,52.92-3.31,79.44-3.89c26.52-0.43,53.06-0.23,79.58,0.72c13.25,0.66,26.51,1.19,39.75,2.19
				c13.25,0.78,26.46,2.08,39.68,3.26c26.4,2.77,52.75,6.03,78.95,10.34c26.18,4.36,52.28,9.23,78.12,15.28l9.71,2.18l9.65,2.41
				l19.29,4.85l19.18,5.27l9.58,2.67l9.52,2.88l19.02,5.77l18.88,6.22l9.43,3.13l9.36,3.34l18.7,6.7
				c24.73,9.46,49.35,19.19,73.36,30.28l9.03,4.09l4.51,2.04l4.47,2.15l17.84,8.61c5.96,2.84,11.79,5.94,17.65,8.98
				c5.86,3.03,11.7,6.1,17.53,9.18c8.63,4.56,11.92,15.25,7.36,23.88c-4.28,8.09-13.95,11.49-22.25,8.12l-0.49-0.2
				c-5.94-2.44-11.87-4.89-17.78-7.38c-5.92-2.47-11.81-5-17.81-7.26l-17.86-7.08l-4.46-1.77l-4.51-1.66l-9.01-3.33
				c-23.95-9.04-48.23-17.09-72.55-24.88l-18.34-5.53l-9.16-2.77l-9.23-2.56l-18.43-5.15l-18.53-4.75l-9.26-2.37l-9.31-2.18
				l-18.61-4.39l-18.7-3.97l-9.35-1.98l-9.38-1.81c-6.26-1.19-12.5-2.44-18.76-3.59l-18.83-3.21c-6.27-1.12-12.57-2.04-18.86-3
				l-9.44-1.44c-3.15-0.48-6.29-0.97-9.45-1.36l-18.94-2.48c-3.15-0.44-6.32-0.78-9.48-1.12l-9.49-1.08l-9.49-1.08
				c-3.16-0.37-6.34-0.61-9.5-0.92l-19.01-1.77c-25.39-1.99-50.8-3.56-76.26-4.34c-25.46-0.7-50.94-0.89-76.41-0.37
				c-25.48,0.54-50.95,1.71-76.38,3.51c-25.45,1.67-50.84,4.2-76.18,7.19c-25.35,2.95-50.63,6.62-75.84,10.72l-18.89,3.22
				l-18.85,3.46l-18.82,3.64l-18.78,3.87c-50.05,10.56-99.66,23.4-148.65,38.34c-12.25,3.73-24.46,7.6-36.61,11.64
				c-12.17,3.99-24.27,8.19-36.33,12.47c-12.06,4.29-24.04,8.77-35.93,13.44c-5.95,2.3-11.89,4.65-17.76,7.07
				c-2.94,1.2-5.87,2.43-8.77,3.67l-4.34,1.84l-4.13,1.8l-0.58,0.25c-8.94,3.9-19.35-0.18-23.26-9.13
				C1864.92,522.25,1868.36,512.53,1876.17,508.15z"/>
		</g>
		<g>
			<path class="st3" d="M1460.75,912.81c0,0-66.18-588.42,221.52-797.33c0,0,107.18,443.93,304.62,485.71
				C1986.89,601.19,1748.45,923.26,1460.75,912.81z"/>
			<g>
				<path class="st2" d="M1449.64,926.54c-1.39-1.24-2.77-2.84-3.87-4.67c-1.1-1.83-1.9-3.86-2.35-5.78
					c-0.29-1.3-0.26-1.29-0.26-1.3l-0.04-0.22l-0.08-0.44l-0.3-1.75l-0.57-3.46l-1.07-6.88c-0.69-4.57-1.33-9.14-1.95-13.7
					c-1.23-9.12-2.34-18.24-3.35-27.36c-2.02-18.24-3.63-36.5-4.9-54.78c-2.52-36.56-3.65-73.21-3.29-109.88
					c0.36-36.66,2.22-73.35,5.81-109.93c3.59-36.57,8.96-73.04,16.44-109.15s17.12-71.88,29.43-106.86
					c12.3-34.96,27.27-69.14,45.41-101.75c18.13-32.59,39.45-63.6,64.11-91.88c24.63-28.29,52.58-53.82,83.17-75.66
					c7.94-5.67,18.97-3.83,24.64,4.11c1.77,2.48,2.81,5.26,3.16,8.08l0.04,0.37l0.5,4.19l0.59,4.42c0.41,2.96,0.86,5.94,1.33,8.92
					c0.94,5.96,1.97,11.93,3.08,17.89c2.22,11.93,4.74,23.83,7.52,35.68c5.57,23.7,12.17,47.17,19.79,70.28
					c15.24,46.22,34.55,91.06,58.56,133.06c24.01,41.96,52.85,81.05,86.9,114.78c17.01,16.86,35.3,32.35,54.76,46.17
					c19.46,13.81,40.08,25.92,61.6,36.17l0.08,0.04c8.77,4.18,12.5,14.68,8.32,23.46c-0.42,0.88-0.96,1.79-1.5,2.57l0,0l-2.92,4.52
					l-2.87,4.27c-1.92,2.82-3.85,5.61-5.81,8.38c-3.94,5.51-7.95,10.95-12.02,16.33c-8.15,10.75-16.63,21.22-25.34,31.49
					c-17.44,20.52-35.89,40.18-55.26,58.94c-38.72,37.53-81.16,71.52-127.04,100.6c-45.85,29.06-95.27,53.2-147.39,69.85
					c-26.05,8.31-52.74,14.74-79.77,18.99c-13.52,2.09-27.11,3.71-40.75,4.65c-6.81,0.49-13.64,0.85-20.46,1.04l-5.12,0.12
					l-5.12,0.05l-2.56,0.02c-2.06,0.05-4.4-0.03-6.66-0.33C1457.72,929.66,1453.24,928.2,1449.64,926.54z M1471.86,899.08
					c-0.31-1.78-1.51-3.36-2.79-4.04c-0.61-0.36-1.31-0.5-1.72-0.51l2.37-0.23l4.74-0.47l4.73-0.54c3.15-0.34,6.3-0.75,9.45-1.13
					c3.14-0.44,6.28-0.83,9.42-1.32c6.27-0.92,12.51-1.99,18.74-3.1c6.22-1.15,12.43-2.38,18.61-3.72
					c24.72-5.39,49.05-12.46,72.85-21.05c47.63-17.14,93.11-40.31,136.06-67.73c42.97-27.43,83.44-59.05,121.61-93.4
					c19.06-17.2,37.55-35.11,55.41-53.64c8.93-9.26,17.69-18.69,26.29-28.25c4.3-4.77,8.54-9.59,12.7-14.46
					c2.09-2.42,4.17-4.85,6.21-7.28l5.89-7.13l0,0l6.9,26.06c-23.37-11.14-45.78-24.3-66.88-39.27
					c-21.09-14.97-40.86-31.73-59.17-49.88c-36.65-36.3-67.34-78.02-92.7-122.33c-25.35-44.37-45.55-91.34-61.45-139.55
					c-7.95-24.11-14.83-48.55-20.63-73.27c-2.9-12.36-5.53-24.78-7.86-37.3c-1.16-6.26-2.25-12.54-3.25-18.86
					c-0.5-3.16-0.97-6.33-1.42-9.53l-0.65-4.82l-0.3-2.45l-0.3-2.62l27.83,12.56c-28.32,20.22-54.18,43.82-77.06,70.11
					c-22.91,26.28-42.84,55.22-59.88,85.86c-17.05,30.65-31.24,62.99-42.95,96.29c-11.72,33.3-20.96,67.57-28.16,102.31
					c-7.2,34.75-12.39,69.99-15.87,105.44c-3.49,35.45-5.29,71.11-5.65,106.81c-0.35,35.7,0.75,71.45,3.21,107.08
					c1.24,17.82,2.81,35.61,4.77,53.34c0.98,8.86,2.06,17.71,3.25,26.52c0.6,4.4,1.22,8.8,1.87,13.17l1.01,6.53l0.53,3.23l0.27,1.6
					l0.07,0.39l0.03,0.2c0.02,0.14,0.07,0.29-0.19-0.88c-0.4-1.64-1.14-3.4-2.2-4.95C1474.54,901.36,1473.2,900.04,1471.86,899.08z"
					/>
			</g>
			<path class="st8" d="M1445.23,681.26c0,0,246.13,23.77,397.75-187.96"/>
			<path class="st8" d="M1507.64,345.38c0,0,82.73,55.88,243.05-25.58"/>
		</g>
		<g>
			<path class="st3" d="M3497.36,912.69c0,0,66.18-588.42-221.52-797.33c0,0-107.18,443.93-304.62,485.71
				C2971.22,601.07,3209.66,923.13,3497.36,912.69z"/>
			<g>
				<path class="st2" d="M3486.25,898.96c-1.34,0.96-2.67,2.28-3.72,3.84c-1.06,1.55-1.8,3.31-2.2,4.95
					c-0.26,1.16-0.2,1.02-0.19,0.88l0.03-0.2l0.07-0.39l0.27-1.6l0.53-3.23l1.01-6.53c0.66-4.37,1.28-8.77,1.87-13.17
					c1.19-8.81,2.26-17.66,3.25-26.52c1.96-17.73,3.53-35.52,4.77-53.34c2.46-35.64,3.56-71.38,3.21-107.08s-2.16-71.36-5.65-106.81
					c-3.48-35.45-8.67-70.69-15.87-105.44c-7.2-34.75-16.44-69.01-28.16-102.31c-11.71-33.29-25.9-65.64-42.95-96.29
					c-17.04-30.64-36.97-59.58-59.88-85.86c-22.89-26.29-48.75-49.89-77.06-70.11l27.83-12.56l-0.3,2.62l-0.3,2.45l-0.65,4.82
					c-0.45,3.19-0.92,6.36-1.42,9.53c-1,6.32-2.08,12.6-3.25,18.86c-2.33,12.51-4.96,24.94-7.86,37.3
					c-5.8,24.71-12.69,49.15-20.63,73.27c-15.9,48.21-36.09,95.18-61.45,139.55c-25.36,44.31-56.04,86.02-92.7,122.33
					c-18.31,18.14-38.08,34.9-59.17,49.88c-21.1,14.97-43.51,28.13-66.88,39.27l6.9-26.06l0,0l5.89,7.13
					c2.04,2.43,4.12,4.86,6.21,7.28c4.15,4.86,8.4,9.68,12.7,14.46c8.59,9.56,17.35,18.99,26.29,28.25
					c17.86,18.52,36.35,36.43,55.41,53.64c38.17,34.35,78.64,65.97,121.61,93.4c42.95,27.42,88.43,50.59,136.06,67.73
					c23.8,8.59,48.13,15.65,72.85,21.05c6.18,1.34,12.39,2.57,18.61,3.72c6.23,1.11,12.47,2.18,18.74,3.1
					c3.13,0.49,6.27,0.88,9.42,1.32c3.15,0.38,6.29,0.79,9.45,1.13l4.73,0.54l4.74,0.47l2.37,0.23c-0.41,0.01-1.11,0.15-1.72,0.51
					C3487.76,895.6,3486.56,897.17,3486.25,898.96z M3508.47,926.42c-3.6,1.66-8.08,3.11-12.66,3.68c-2.26,0.3-4.6,0.38-6.66,0.33
					l-2.56-0.02l-5.12-0.05l-5.12-0.12c-6.82-0.19-13.65-0.55-20.46-1.04c-13.64-0.93-27.23-2.55-40.75-4.65
					c-27.03-4.25-53.72-10.68-79.77-18.99c-52.13-16.65-101.54-40.79-147.39-69.85c-45.88-29.09-88.32-63.07-127.04-100.6
					c-19.37-18.76-37.82-38.42-55.26-58.94c-8.71-10.27-17.19-20.74-25.34-31.49c-4.07-5.38-8.08-10.81-12.02-16.33
					c-1.96-2.77-3.89-5.56-5.81-8.38l-2.87-4.27l-2.92-4.52l0,0c-5.6-7.94-3.7-18.92,4.25-24.52c0.8-0.56,1.63-1.05,2.48-1.46
					l0.17-0.08c21.52-10.25,42.14-22.37,61.6-36.17c19.46-13.81,37.75-29.31,54.76-46.17c34.05-33.72,62.89-72.82,86.9-114.78
					c24-42,43.32-86.85,58.56-133.06c7.62-23.11,14.22-46.58,19.79-70.28c2.78-11.85,5.3-23.75,7.52-35.68
					c1.11-5.96,2.14-11.94,3.08-17.89c0.47-2.98,0.92-5.96,1.33-8.92l0.59-4.42l0.5-4.19l0.03-0.29
					c1.16-9.69,9.96-16.59,19.64-15.43c3.02,0.36,5.84,1.52,8.16,3.16c30.59,21.84,58.54,47.36,83.17,75.66
					c24.66,28.28,45.98,59.29,64.11,91.88c18.14,32.6,33.11,66.78,45.41,101.75c12.31,34.97,21.94,70.75,29.43,106.86
					c7.48,36.12,12.85,72.58,16.44,109.15c3.6,36.57,5.45,73.26,5.81,109.93s-0.77,73.32-3.29,109.88
					c-1.27,18.28-2.89,36.54-4.9,54.78c-1.01,9.12-2.12,18.24-3.35,27.36c-0.62,4.56-1.26,9.12-1.95,13.7l-1.07,6.88l-0.57,3.46
					l-0.3,1.75l-0.08,0.44l-0.04,0.22c0,0.01,0.02-0.01-0.26,1.3c-0.45,1.92-1.24,3.95-2.35,5.78
					C3511.24,923.58,3509.86,925.18,3508.47,926.42z"/>
			</g>
			<path class="st8" d="M3512.88,681.14c0,0-246.13,23.77-397.75-187.96"/>
			<path class="st8" d="M3450.47,345.26c0,0-82.73,55.88-243.05-25.58"/>
		</g>
	</g>
	<g>
		<path class="st3" d="M2165.17,3113.01c91.85,172.18,388.04,117.17,349.54-71.45"/>
		<path class="st2" d="M2174.02,3108.29c5.92,8.08,12.12,15.75,18.78,22.88l2.49,2.67l2.58,2.57c1.72,1.71,3.41,3.44,5.24,5.02
			c3.51,3.31,7.19,6.42,10.93,9.41c14.96,11.98,31.54,21.54,49.09,28.61c17.56,7.03,36.03,11.78,54.82,13.98
			c9.38,1.2,18.85,1.68,28.3,1.63c9.45,0.01,18.88-0.76,28.21-1.97c18.66-2.52,36.9-7.54,53.77-15.13c1.07-0.44,2.11-0.95,3.14-1.46
			l3.11-1.51c2.07-1.02,4.05-2.17,6.09-3.24l5.95-3.46c1.9-1.25,3.85-2.46,5.74-3.74c7.49-5.2,14.52-10.97,20.75-17.5
			c0.77-0.82,1.58-1.61,2.34-2.45l2.23-2.54c1.54-1.66,2.87-3.47,4.28-5.24l1.05-1.33l0.96-1.38l1.95-2.77
			c1.3-1.85,2.43-3.8,3.68-5.7c4.63-7.78,8.36-16.17,11.12-25.04c2.78-8.86,4.55-18.19,5.45-27.8c0.89-9.61,0.85-19.48,0.24-29.52
			l-0.01-0.17c-0.29-4.76,3.34-8.86,8.1-9.15c3.99-0.24,7.51,2.27,8.72,5.89c3.49,10.45,5.88,21.41,6.99,32.69
			c1.13,11.27,0.9,22.87-0.83,34.41c-1.75,11.52-5,23-9.82,33.85c-1.28,2.67-2.48,5.4-3.86,8.03l-2.15,3.91l-1.09,1.95l-1.17,1.89
			c-1.59,2.51-3.12,5.08-4.88,7.47l-2.58,3.65c-0.88,1.2-1.82,2.34-2.75,3.51c-7.43,9.27-15.88,17.71-25.12,25.01
			c-2.31,1.82-4.69,3.55-7.04,5.32c-2.42,1.64-4.82,3.34-7.29,4.93c-2.5,1.51-4.97,3.09-7.52,4.52l-3.83,2.12
			c-1.28,0.71-2.55,1.42-3.86,2.05c-20.74,10.64-43.12,17.35-65.81,20.68c-11.35,1.7-22.81,2.39-34.25,2.4
			c-11.44-0.04-22.86-1-34.17-2.69c-22.58-3.56-44.72-10.35-65.16-20.7c-20.44-10.27-39.23-23.99-54.75-40.62
			c-3.85-4.18-7.57-8.45-11.03-12.93c-1.78-2.19-3.39-4.52-5.02-6.81c-0.81-1.15-1.64-2.29-2.43-3.45l-2.26-3.56
			c-6.03-9.47-11.13-19.44-15.12-29.76c-2.01-5.21,0.58-11.05,5.78-13.07c4.35-1.68,9.16-0.15,11.79,3.45L2174.02,3108.29z"/>
	</g>
	<g>
		<path class="st3" d="M2864.25,3057.82c-43.12,187.84-329.46,191.58-342.42,0"/>
		<path class="st2" d="M2874.03,3060.06c-1.09,10.71-3.29,21.39-6.5,31.87l-1.21,3.94c-0.42,1.31-0.93,2.58-1.39,3.88
			c-0.96,2.58-1.85,5.19-2.97,7.72c-2.1,5.11-4.52,10.1-7.09,15.04c-10.42,19.67-24.9,37.44-42.09,52.02
			c-17.16,14.66-37.05,26.02-58.11,33.99c-10.57,3.89-21.43,7.03-32.48,9.19c-11.06,2.12-22.28,3.51-33.56,3.82
			c-22.54,0.71-45.33-2.21-67.02-9.27c-1.35-0.45-2.72-0.85-4.06-1.35l-4.02-1.49c-2.69-0.95-5.31-2.1-7.95-3.2
			c-5.25-2.27-10.36-4.87-15.38-7.65c-10.04-5.55-19.45-12.31-28.04-19.96c-4.27-3.85-8.35-7.92-12.15-12.23
			c-1.89-2.17-3.81-4.29-5.53-6.59l-2.62-3.4c-0.87-1.13-1.65-2.34-2.47-3.51c-6.55-9.37-11.9-19.5-16-29.96
			c-4.09-10.47-6.93-21.28-8.56-32.13c-1.64-10.84-2.15-21.71-1.54-32.4c0.27-4.77,4.36-8.41,9.12-8.14
			c3.97,0.23,7.16,3.1,7.96,6.81l0.04,0.18c2.06,9.6,4.55,18.91,7.76,27.82c3.22,8.9,7.1,17.38,11.73,25.28
			c9.23,15.82,21.38,29.26,35.69,39.69c7.1,5.28,14.82,9.71,22.84,13.5c4.03,1.86,8.13,3.58,12.33,5.07
			c2.1,0.75,4.17,1.55,6.32,2.16l3.19,1c1.06,0.33,2.16,0.58,3.24,0.88c17.28,4.63,35.42,6.51,53.51,5.73
			c9.04-0.43,18.08-1.36,27-3.07c8.92-1.67,17.74-3.89,26.32-6.84c17.23-5.72,33.54-14.04,48.36-24.54
			c14.81-10.53,27.97-23.44,38.98-38.34c2.76-3.72,5.41-7.56,7.87-11.53c1.32-1.94,2.44-4,3.64-6.03c0.58-1.02,1.21-2.03,1.76-3.07
			l1.67-3.13c4.44-8.37,8.31-17.15,11.86-26.24l0.08-0.2c2.03-5.2,7.89-7.77,13.09-5.75
			C2871.97,3051.31,2874.47,3055.65,2874.03,3060.06z"/>
	</g>
</g>
</svg>
