<svg xmlns="http://www.w3.org/2000/svg" width="98" height="98" viewBox="0 0 98 98">
    <style>
        <![CDATA[.B{fill:#38140f}.C{fill:#e0e0e0}.D{fill:#a2a2a2}.E{stroke:#38140f}.F{fill:#c1c1c1}.G{stroke-width:.5}.H{fill:#838383}]]>
    </style>
    <g>
        <path d="M.5 48.4999231898C.5 21.9079245724 21.9079245724.5 48.4999231898.5S96.5 21.9079245724 96.5 48.4999231898 75.0919218072 96.5 48.4999231898 96.5.5 75.0919218072.5 48.4999231898z" fill="#66ff80"/>
        <path d="M.5 48.4999231898C.5 21.9079245724 21.9079245724.5 48.4999231898.5S96.5 21.9079245724 96.5 48.4999231898 75.0919218072 96.5 48.4999231898 96.5.5 75.0919218072.5 48.4999231898z" class="H"/>
        <g fill="#fff">
            <path d="M33.497936398 27.9689063068S7.1713116113 34.6151398589 8.715980173 47.6164478783s23.9463328642-7.2564361696 23.9463328642-7.2564361696l.8356233608-12.3911054019z" class="F"/>
            <path d="M28.8929814381 35.831092181s-16.4257485549 5.1336865204-15.5982697724 9.3665948237 15.6836581541-5.8959637913 15.6836581541-5.8959637913l-.0853883817-3.4706310324z" class="D"/>
            <path d="M33.3835491674 28.1234684494c.0073145576.0208519163.0229811987.041304606.0418641701.0526979211s.0388034687.0134815777.0518244188.0102263448l-.0563895327.0165832619-.1140759729.0337807186-.2282038219.0688819563-.4560445099.1406813382-.9099620917.2917732798-1.8118314812.6182792802-.9015062556.3257689666-.8985493067.3361488601-1.7871902411.705709922-1.7721979919.752419443-.8795107064.3956029249-.8749455925.4081325006-3.4386218392 1.7867543377-1.6718173609 1.0001856593-1.626477479 1.0887525615-1.5652115746 1.1935649186-1.4793044299 1.3197512575c-.4747718524.4637171376-.9288450631.9536911065-1.3523112597 1.4735456565l-.6102467969.8023841968-.5517303361.8504449465c-.3447179807.5835772692-.6421766566 1.2008738376-.8695504578 1.8475596313s-.3849739856 1.3212867447-.455707314 2.0082637227c-.0357168291.3435191988-.0503718825.6895258868-.0432129537 1.0357168333s.0355352621.6914298909.0832873917 1.035870382.1137906532.6798524373.2040813447 1.001168491.2038997778.6273693046.3457036303.9073500725.3103239971.53456451.5065720213.7531871866l.151738163.1578480852.1615168447.1441515094c.1101852507.0924363301.2275553683.1738785717.3489718369.248165443s.2487208966.1376104238.3796047891.1935635777.2658660122.1024784164.4035456993.1412648234.2785757044.0694654414.4211836395.0933883321l.4334264453.0503639805c.2919079123.0208519164.5886921963.0154470014.886825264-.0077081458s.5976667954-.0656267233.8969411416-.1223476209c.598652445-.1138410218 1.1956967249-.2821304801 1.7868271071-.485521116 1.1836614244-.4058292397 2.3433560004-.9465357211 3.4832857081-1.5428268394l1.6948001807-.9442324454 1.6680303914-1.0202699519 1.644582306-1.0794782188 1.6234167776-1.1285216803 1.604326301-1.1698262863 1.5868439896-1.2053267505.7869633961-.6153925643.7826576636-.6233156783.7779369207-.631392341.3867896559-.3191970813.3839883361-.321285344-.0675948125.1468539969.4299507335-6.1018726263.4647078511-6.1182716296zm.2288263375-.3089400268l-.3714861489 6.2726495138-.4056726274 6.2890485172-.0061732791.091852845-.0614734096.0551854103-.7472780304.6937331218-.7556301138.6779176034-.7626334137.6665549982-.7693254557.6559294266-1.557378254 1.2817325942-1.5830051438 1.2392610179-1.6096695594 1.1933806601-1.6388759136 1.1408671174-3.3838404716 2.0771763513-1.7581913921.898106447-1.8165522242.7562582209c-.6170685297.2207723512-1.246535494.4087158658-1.8918247282.5382188571-.3225668027.0644597531-.6491799564.114424507-.9795800796.1437523127s-.6650022264.0380186633-1.0024056495.0169824885-.6777119186-.0710009286-1.0157378573-.1638364853c-.1690129693-.0464945528-.3370662271-.1040139037-.5031741239-.1728958599s-.3297257314-.1513067898-.489115648-.2460463507c-.3184945135-.1900933167-.6198698496-.4342050734-.8824417171-.7275138404s-.4883115654-.6296726253-.6707086188-.9891916158-.3235265142-.7412104013-.4327261153-1.1275389835-.1861580848-.7796282163-.2407578853-1.172129577-.087022485-.7912058499-.0948558056-1.1908624611.0092858569-.801032968.0508647073-1.1979871217c.0829501959-.794676051.2666441567-1.5708034165.5262850134-2.3004362292s.5952545477-1.413938043.9755077905-2.0505510405.8077917285-1.2263629254 1.262357764-1.7769272196.9388312498-1.0613594697 1.4398525075-1.5418748374c1.0024056495-.9617677693 2.0747405447-1.800051657 3.1768524332-2.5628817033l1.678509403-1.0858658456 1.7167941087-.9863048548 3.5161769003-1.726931756.891909141-.3888467812.8964223786-.3722635194 1.8041537896-.7016562357 1.8176935026-.6462558572.9132302983-.3033508534.9163428759-.2896543074 1.8409859591-.5389867206.9251099698-.2469984727.4640334593-.1167584475.2326133071-.055953154.1165141587-.0274238016.0590352238-.0136965459c.0324226844-.0082916309.0715374108-.0113933151.1096664877-.0046371714s.0730418235.0218039184.0996024865.0376501464z" class="B"/>
            <path d="M62.5230347419 27.9689063068s26.3266474826 6.6462335521 24.7819789209 19.6475415715-23.9463036838-7.2564361696-23.9463036838-7.2564361696l-.8356752371-12.3911054019z" class="F"/>
            <path d="M67.1280415782 35.831092181s16.4257453126 5.1336865204 15.5982146538 9.3665948237-15.6836549118-5.8959637913-15.6836549118-5.8959637913l.085440258-3.4706310324z" class="D"/>
            <path d="M62.4086475113 27.8145284226c.0265606631-.015846228.0614215334-.0314774878.0995506102-.0378344049s.0772956797-.0036544595.1097183641.0046371714l.0589833475.0136965459.116566035.0273930919.2325614307.0559838637.4640334593.1167277377.9251618461.2470291825 1.8409859591.5389560109.9162909997.2896543074.9132821745.3033815631 1.8176416263.6462558572 1.8041537896.7016562357.896474255.3722635194.8918572646.3888467812 3.5162255344 1.726931756 1.7167941087.9862741451 1.6784575267 1.0858658456c1.1023193937.7628300462 2.1746024126 1.601113934 3.1768524331 2.562912413.5010212577.4806996261.9841451936.9922625452 1.4398784457 1.5418748374s.8812745005 1.1406520292 1.262357764 1.7768965098.7153741089 1.3201504842.9754818523 2.0505510406.4431791887 1.5057908879.5263368897 2.3004669389c.0415529124.3971384121.0588277186.7981462521.0508387692 1.1979871217s-.0404116339.7990982541-.0948817437 1.1908317513-.1317139132.7852175697-.2407060091 1.1721295771-.2493693503.7680507177-.4327520534 1.1275696932-.407021411.6972033079-.6707086188.9891916158-.5639472036.5374205237-.882415779.7275138404c-.1594158547.0947395609-.3232411945.1765501995-.4891415861.2460463507s-.3342908454.1265855656-.5032000621.1728958599c-.3380259386.0926205885-.6784900631.1431995372-1.0157378573.1638364853s-.6720055262.0123453172-1.0024056494-.0169824885-.6570132769-.0793232693-.9795800796-.1437830224c-.645237358-.1294722816-1.2747561985-.3174157962-1.8918247283-.5381881474l-1.8165522241-.7562582209-1.7581395159-.898106447-3.3838891056-2.077207061-1.6388759136-1.1408671175-1.6096695594-1.1933499503-1.5829532674-1.2392917277-1.557378254-1.2817325942-.7693254558-.6559294266-.7626334137-.6665242884-.7556301138-.6779176034-.7473299066-.6937331218-.0614215334-.0551854103-.0062251554-.0918835547-.4056726274-6.2890485172-.3714342726-6.2724345456zm.2288263375.3089400268l.4641890882 6.1182716296.4299507335 6.1018726262-.0676466888-.1468539968.3840402123.321285344.386789656.3191970813.7779369207.631392341.7826576636.6233156783.7869633961.6153925642 1.5868439896 1.2053267506 1.604326301 1.1698262863 1.6234167776 1.1285216803 1.644582306 1.0794782188 1.6678747625 1.0202699519 1.6947450622.9442324453c1.1399815839.5962911184 2.29967616 1.1369975997 3.4832857081 1.5428268395.5911822585.2033906359 1.1883821672.3716800942 1.7868789833.485521116.2992743462.0565366391.5988599502.0990082153.8969411416.1223476209s.5949173517.0285600621.8868252641.0077081458l.4334264452-.0503639805c.1426079351-.0239228907.283244571-.0550011519.4211317633-.0933883322s.2725580542-.086079413.4035975755-.1412648233.2576695576-.1202287086.379578851-.1935635778.2386309573-.1557291129.348816208-.248165443l.1614909065-.1441515093.1517900394-.1578480852c.1962480242-.2186226766.3652609935-.4727765272.5065720212-.7531871866s.2552313717-.5864332455.3457036303-.9073500725.1566145348-.6574649138.2040294685-1.001168491.07631003-.6894951771.0833133298-1.035870382-.0075220627-.6921976346-.0432129538-1.0357168333c-.0707073901-.6869769781-.2275294301-1.3623763825-.4556813758-2.0082637228s-.5248843534-1.263982362-.8696023341-1.8475596313l-.5517043979-.8504449464-.6102208588-.8023841968c-.4234661966-.51985455-.8775394072-1.0098285189-1.3523631359-1.4735456565l-1.47930443-1.3197512576-1.5652115745-1.1935649185-1.626477479-1.0887525615-1.6717654846-1.0001856593-3.438618597-1.7867543377-.8749455925-.4081325006-.8795107064-.395602925-1.7721979919-.7524194429-1.7871902411-.705709922-.8985493067-.3361488601-.9015062556-.3257689666-1.8118314812-.6182792803-.9099620917-.2917732797-.4560445099-.1406813383-.2282038219-.0688819562-.1140759729-.0337807187-.0563895327-.0165832618c.013176579.0032552329.0330452.0015354872.0519800477-.0102263449s.035172128-.0320609729.0425385619-.052697921z" class="B"/>
            <path d="M67.4135687062 35.2199375615s-3.0342444981-15.016911371-19.5207387507-15.4200381833c-14.7371733522-.3602867191-19.8317886612 15.4200381833-19.8317886612 15.4200381833-2.2067138393 8.0626590844-.4994130925 49.2836443355 19.9909970076 49.2836443355 15.5918875475 0 22.9476868055-25.9170913205 19.3615304043-49.2836443355z" class="F"/>
            <path d="M58.8224911102 79.4005417819c-.6933785598-6.8889940801-2.6316325721-17.6064184224-10.5427158698-17.7737558186v-.0015354872l-.080875144-.000368517-.1101852507-.0005834851-.1101852539.0005834851c-.0270275466.0001842585-.0537438385-.0002149682-.0808232645.000368517v.0015354872c-8.3299840257.1762125123-9.9610266187 11.0393238811-10.5743600552 17.9306519018 2.8119026974 3.052673333 6.3390238749 4.9459597735 10.7290551639 4.9459597735 4.140921681.0001842584 7.8026618441-1.3992587853 10.7700896742-5.1028558567z" class="C"/>
            <path d="M48.2381704517 68.8315069236s-4.5242871438-3.5229297268-5.2171469406-1.8141474296c-1.1034606722 2.7213439834 5.2171469406 1.8141474296 5.2171469406 1.8141474296z" class="B"/>
            <path d="M48.2381704517 68.8315069237s4.2570208262-3.4083209614 4.8507968995-2.3220558892c1.517122249 2.7755466819-4.8507968995 2.3220558892-4.8507968995 2.3220558892z" class="B"/>
            <path d="M48.2381704517 68.8315069236l.0859071446 3.1619059738" fill="none" stroke-width=".1" class="E"/>
            <path d="M43.5011904982 73.0640467099l4.8742446302-.3018153661 4.5997675077.3018153661s-.7853033546 6.2865303182-4.9464567907 6.2510298539c-3.2977760991-.0283758037-4.5275553472-6.2510298539-4.5275553472-6.2510298539z" class="D"/>
            <path d="M35.2329909626 52.3028469743c0-2.6801007069 1.189212188-4.8377060057 2.6663378135-4.8377060057s2.6663896898 2.1576052988 2.6663896898 4.8377060057-1.189212188 4.837675296-2.6663896898 4.837675296-2.6663378135-2.1576052088-2.6663378135-4.837675296z" class="B"/>
            <path d="M56.0870021953 52.3028469743c0-2.6801007069 1.189212188-4.8377060057 2.6663896898-4.8377060057s2.6663896898 2.1576052988 2.6663896898 4.8377060057-1.189212188 4.837675296-2.6663896898 4.837675296-2.6663896898-2.1576052088-2.6663896898-4.837675296z" class="B"/>
            <path d="M42.2561075405 20.5107992469c0 .0003992267-1.5536431608 14.4069237217 5.6415987867 14.4069237217 6.2389546791 0 5.6334545631-11.370467053 5.3622452925-14.3930122075-1.6077501365-.4174068434-3.3903754663-.6761978578-5.3669660353-.7246271245-2.0639503006-.0505482389-3.9387075251.2157359531-5.6368780439.7107156103z" class="C"/>
            <path d="M39.8637284411 41.2212664851c-.0091302279.002886716-.0206986417.0038387181-.031125777.0053742053l-.0324745607.0044529129-.064170977.0073396288-.1266819126.0127445439-.2461011437.0206369481-.4698954807.0327980068-.8695504578.0625250392-.7911653759.0901330993-.7277725434.1466390286c-.4689098311.1252650467-.9093395761.320916827-1.3746699428.6200297357l-.3518769094.2445109834c-.0306588904.0206369481-.0589833475.045143324-.0890197224.0675307275l-.0904203822.068912666-.0907835164.0717686722-.0459623974.0362989177-.0454955108.0378036951-.0930660733.0754538415-.0929104445.0789240427-.1906972606.1621167397-.0973199296.0839297309-.0999137442.0849124427-.2085945825.17289586-.0063807843.0048214298c-.0800451232.0608052935-.1864434044.0334122017-.2378009365-.0613580689-.0185717137-.0341492356-.0273906838-.0721678989-.0272350549-.1100023038l.0047207428-.1590150555.004565114-.0791083011.006692042-.078524816.0187792189-.1557291129.010738393-.0779720405.013176579-.0769893288.0295176119-.1536101405.0353796332-.1520746534.0395816131-.1514911682.0463255315-.1489729691c.126941294-.3977218973.3129178118-.7763423337.547658047-1.1231167654.1191079734-.1713603727.2478649378-.3375000888.3913028936-.488039255s.2960061396-.2915583115.4594683454-.4158406463.3354321238-.2341003802.5134196922-.3282564559.362355921-.170009144.5491624595-.230998696.3763106443-.1059486175.5660222554-.1327582242.3794750983-.0370666613.5670597813-.0314467781c.375376871.0109940884.7413122564.0854652181 1.0863414948.2142004659s.6703973611.3116424842.9670260162.5447601526c.1481586987.1173419326.2896253554.2460464706.4213392685.391150012l.1903860029.2290639821.0886565883.1252343369.042382933.0662102085.0421754279.0712158968c.0534844602.0901023895.0350683755.2143847244-.0410341494.2774932487-.0166522907.0136965459-.0345496125.0235236641-.0531732024.0293278057l-.046584913.0140957726z" class="H"/>
            <path d="M56.016450434 40.899766173l.0422273042-.0712158969.042382933-.0661794987.0886565883-.1252650467.1903860029-.229063982c.1318176657-.1451035415.2733361986-.2738080794.4212873921-.3911500121.2968361604-.2331176683.6218411489-.4154721294.9670260163-.5447601526s.7111721289-.2032063774 1.0863414948-.2142004658c.1876365592-.0055891735.3773481703.0046371713.5670597813.031446778s.3792675932.0723828671.5660741317.1327582243.370967386.1370268786.5491105832.2309986959.3499574865.2041583796.5134196922.3282564559.3165491525.2651479315.4594683454.4158713561.2721949202.3166481726.3913547699.4880085453c.2346883589.3467744316.4208205055.7256098362.547658047 1.1231167653l.0462736552.1489729692.0395816131.1514911682.0353796332.1520746533.0295176119.1536101406.013176579.0769893287.0107902693.0779720406.0187273425.1557291129.0066920421.0785248159.004565114.0791390109.0047207428.1590150555c0 .112489793-.0770881744.2037591528-.172125547.2037591528-.0342383547 0-.0663497814-.0119460905-.0930660733-.0323987801l-.0061732791-.0048214298-.2086464588-.1729265697-.0999137443-.0849124427-.0973199295-.083929731-.1906972606-.1621167397-.0929104445-.0789240426-.0930660733-.0754538415-.0454436345-.0378036952-.0459623974-.0362989176-.0907835164-.0717686722-.0904722586-.068912666-.0890197223-.0675307276-.3518769094-.2445109834c-.4653303667-.2990821989-.9057601117-.4945804305-1.3746699428-.6199990259-.2342214722-.063507751-.475757502-.1084668165-.7277725434-.1466697383l-.7911134996-.0901330993-.8695504578-.0625250392-.469947357-.0327980068-.2461011437-.0206369481-.1266300363-.0127445439-.0642228533-.0073396289-.0324226844-.0044222031c-.0104271353-.001566197-.0220474254-.0025181991-.031125777-.005404915l-.0459623974-.0142800311c-.0898497431-.0279765769-.1434379559-.1370268786-.1198342416-.2435589813.0052395058-.022571662.0140065996-.0443755804.0249524979-.0630778146z" class="H"/>
            <path d="M37.3233462721 51.5467731917c0-1.4772615754.5822076595-2.6665270899 1.3054150889-2.6665270899s1.3053632126 1.1892655145 1.3053632126 2.6665270899-.5822076595 2.6664962603-1.3053632126 2.6664962603-1.3054150889-1.1892655544-1.3054150889-2.6664962603z"/>
            <path d="M56.6941623527 51.5467731917c0-1.4772615754.5822076595-2.6665270899 1.3054150889-2.6665270899s1.3053632126 1.1892655145 1.3053632126 2.6665270899-.5822076595 2.6664962603-1.3053632126 2.6664962603-1.3054150889-1.1892655544-1.3054150889-2.6664962603z"/>
            <path d="M52.1713275679 75.9549699008c-1.3909593021-1.2128199282-6.970462341-1.0519008685-7.8419838954-.2309679862.7026642139 1.6945022661 1.8895419686 3.5756276478 3.6995578017 3.5910746491 2.1902690316.0187022343 3.4450011829-1.7144021803 4.1424260937-3.3601066629z" class="F"/>
            <path d="M30.7918094662 61.45428933c0-1.5887686168 1.32108173-2.8677987535 2.9620326953-2.8677987535s2.9620326954 1.2790301367 2.9620326954 2.8677987535-1.32108173 2.8677987535-2.9620326954 2.8677987535-2.9620326953-1.2790608464-2.9620326953-2.8677987535z" class="D"/>
            <path d="M59.5610020466 61.45428933c0-1.5887686168 1.32108173-2.8677987535 2.9620326953-2.8677987535s2.9620326954 1.2790301367 2.9620326954 2.8677987535-1.32108173 2.8677987535-2.9620326954 2.8677987535-2.9620326953-1.2790608464-2.9620326953-2.8677987535z" class="D"/>
            <path d="M28.3482284637 35.3301241237l-.1939654672.8928858129-.1429191929.9197261294-.1895559821 1.8716667805-.143282327 3.785958686.0686323384 3.7975669692.2379565654 3.7900124622.395401121 3.771310048.5569439037 3.740815362c.4278756817 2.4801189425.9680116659 4.9328140835 1.6506518326 7.3257173525s1.5092889284 4.7255540199 2.5266349509 6.9316499149c.5098402278 1.1016813638 1.0677697812 2.1703804624 1.6816219806 3.1892990656l.9632390467 1.4876414291 1.0526219031 1.3938538703c.7315076366.8942370418 1.5247480644 1.7145864389 2.3772312211 2.4328259365s1.7630677639 1.3355974856 2.7198222737 1.827477378c.4781956879.2462307291.9676485318.4615981652 1.4654534592.6455188233l.1872734251.0665787254.0936885889.033381492.0938960941.0320302632.3778150569.1200136804.3806163768.1074841047.3830024838.0955380143c1.0244011986.2392903269 2.0701754307.3541140605 3.1183359949.3564172913s2.0898884003-.119460905 3.1116957841-.3656916341 2.0195962456-.6258031675 2.9724600333-1.1281224536 1.8619958586-1.1219517144 2.7154127886-1.8382872079 1.6501330696-1.531832751 2.3863614491-2.4198971342 1.4172085047-1.8442736886 2.0396721691-2.8535187224 1.1924285183-2.0667657855 1.71103584-3.1601555184l1.4113464834-3.374755211 1.1427310276-3.524096697c.6775562898-2.3890338413 1.1953854671-4.8440629228 1.5787512876-7.3290032952s.6287925724-5.0020952665.7520506494-7.5279409282c.2448042364-5.0522750786.0042019799-10.1421695038-.7139215726-15.1398425671v-.0003685169c-.0278575704-.1945155199.0824833092-.3788354046.2467755356-.4120019284s.3158747607.0945553025.3468449088.2846179094c.4087852051 2.5171856038.6892803325 5.0644360472.8418485162 7.6230798058l.0916135371 1.9208945004.044302356 1.9237505067-.0032682066 1.9249175969-.0518244188 1.9243646716c-.1005362598 2.5648163271-.3318526595 5.124258539-.7024569114 7.657996695s-.8866696351 5.0409123831-1.5691541729 7.4893695794c-.3409310112 1.2240289848-.7255937391 2.4324267098-1.1568932562 3.6186519995s-.9096508339 2.3502474343-1.4429391471 3.4807038285-1.1189716844 2.228667557-1.7655059498 3.2784494531-1.353971301 2.0501518139-2.1259424478 2.9808720317-1.6101364461 1.7888733101-2.5101901654 2.5509356127-1.8664053437 1.4195291358-2.8823507061 1.9494257722-2.0792537823.9336069338-3.1664255005 1.1997375772c-.5438710775.131222737-1.0935004236.2273135266-1.6453604505.2906063094s-1.1060544869.094371044-1.6592632749.0905016162c-1.1044463444-.0051899467-2.2117977387-.1290730549-3.2992805121-.3861443237-.5437152459-.1285202795-1.0817761782-.2927252818-1.6108106353-.4907110028s-1.0493536964-.4293836435-1.557378254-.6937638315c-1.0161009913-.5281768907-1.9822969868-1.1871772917-2.880223778-1.9527117148s-1.7291925432-1.6343111675-2.4909959362-2.5752577301c-.3810832635-.4704425716-.7450473496-.9590653118-1.092877908-1.4623365999s-.6783344342-1.0220202874-.9942091949-1.5521011822c-.6317495212-1.0604074677-1.2025443957-2.1671252296-1.7221892434-3.3037235726s-.984923338-2.3052883688-1.4088564212-3.4922814021l-.15682204-.4461511639-.1528794415-.4479016193-.1484699565-.4498363332-.1445792343-.4513411107c-.1903860029-.6028629887-.3708117571-1.209963922-.5421072834-1.8201358297-.6840927029-2.4417317623-1.2206492227-4.9351480242-1.6429741408-7.4515351746s-.7275650383-5.0588468738-.9273925268-7.6115021423-.2915966546-5.1175025752-.2520150414-7.6838851893c.0222030543-1.2830838229.07631003-2.5667511309.1869621674-3.8484837251l.0951930014-.9608464769.1238805926-.95928028c.046948047-.31935063.1000693732-.6385477114.1626840613-.9571305978s.1342558516-.6364287391.222756811-.9532918799c.0523431817-.1872066007.2230161925-.2888865638.3810832635-.2269450097s.2420547928.2593437899.1934985806.4446156767l-.000518763.0021189724z" class="B"/>
            <path d="M37.8426279856 22.1346998111l.0748056175-.0494119784.0723674316-.0464945527.1447348632-.0895496142.2902997472-.1719438578.5879140519-.319964825 1.1988093025-.5690822699c.8085958111-.3496611476 1.6339476655-.6456723721 2.4710754389-.8888321268l.3144222244-.0887511608.3154078739-.0841446991.3164972762-.0783405575.3173272969-.0735498374 1.2778685736-.2435282716 1.2882959115-.1609497694 1.2947804737-.0750546148 1.2971148564.0139115141.647883049.042256608.6467417705.0628935562 1.2867917016.1995519179 1.2733036623.2948442541.1582745762.0420723496.1572889266.0465252625.3143703481.0935725906.3126584303.1017106728.1561476481.0515309508.1551619986.0555539273.3100127392.1113535325.307678306.1200443901.1537094623.0604060669.1525681838.0644290434.3047732334.1293187328 1.1957486012.5843143032.1471730491.0789240426.0735087101.0393698921.0728343182.0414888644.2907666338.1661397162.2877059325.1732950866.2857346331.1771645143c.140636636.0879834172.194276725.2942914788.1199379942.4608304217-.0697736168.1560976298-.2273738012.2217243532-.3626671787.156681115l-.0079889495-.0038694278-.2897809842-.1424010839-.2902997471-.1400978531-.2910778916-.136627652-.0726786894-.0341492356-.0735087101-.0320302632-.1468617913-.0642754946-1.1825201459-.480116141-.2989112122-.1067163612-.1492999771-.0534656647-.1504412557-.0493812686-.3004156247-.0994074421-.3020237898-.0916378767-.1509081424-.0457575189-.151738163-.0420723495-.3033206972-.0846974746-.3048251098-.0766208118-.1523606786-.0382029218-.1529313178-.0349169792-.3057588831-.0692811829-.3069001616-.0619415541-.3074189245-.0579185776-.1538650912-.0277616087-.15402072-.0262568313-.3087160346-.0478457815-.1544876066-.0216196599-.1546951119-.0208519164-.1546432356-.0208212065-.1548507407-.0177809419-.3098571104-.0341492356-1.2429560297-.0837454725-1.2454460665-.0071553704-1.2449273541.0677456958-1.2416591223.1387466243-1.2361081561.206860837-.3078858111.0621565223-.3072632957.0667629839-.3067445327.0702331851-.3060701408.0746860979c-.8157547398.2037898626-1.6243505509.4515560789-2.4228823608.7398591575l-.5966811458.2246417789-.5921679081.2406415557-.5856314949.2593437899-.2894697265.1364433935-.1429191929.0708166701-.0707592664.0355004644-.0672835547.0347327207-.009493362.0048214298c-.1457205128.0752695831-.3153559977-.0034702011-.3791119643-.1761818025-.0606433889-.1607348012-.004565114-.3483099189.1227393141-.432823135z" class="B"/>
            <path d="M31.0716820781 29.9436042791s-1.0787156795-11.3550200517 3.6105382599-15.3864705135c0 0 1.7469342361 8.5667576163 4.9650283239 9.3729805311 0 0-3.8863645208 6.2151608726-8.5755665838 6.0134899824z" class="C"/>
            <path d="M30.890581932 30.2085679522c-.0226699409-.0239228907-.0451323767-.0548168934-.0630815747-.0901330992s-.0309701482-.0744711297-.0382847058-.111537791l-.0042538562-.025089861-.0006743918-.0042379447-.0012969074-.0084758894-.0048763717-.0337807187-.0092858569-.0667629839-.0174304351-.132788934-.0318001689-.2643494781-.0545738624-.5279926323-.0798894944-1.057121525-.0536400891-2.1203849989.0947261148-2.1213984204.267941064-2.106319936c.1219092934-.6968348059.2790425911-1.3870977266.4797001004-2.0621286141s.4444760961-1.334215547.7401191016-1.9635177061.6430066773-1.2273149274 1.0449442114-1.7730270821.8569963944-1.0386035492 1.3555794663-1.4600640788c.1294313561-.1094188186.3091827185-.0739183543.4016262763.0793232693.0288432201.0478457815.0458067686.1014957046.051513161.1559133714l.0006225155.0071553704.0081445784.0808280467.0096489909.0853116695.0216842913.1721281163.0501643773.3452389444.1225836852.688543175.3225668027 1.3562037239c.2483837008.8919318915.5631171829 1.7572403542.9544719528 2.5677319234s.8614058795 1.5640472728 1.4163784841 2.2149710111c.2772787971.3253390302.5753599885.6242676803.8925316565.8909510991s.6532781837.5002003137 1.0040656909.6980017762l.0012969073.0007677436c.1429191929.080674498.2037182107.2832973903.1356046353.4527230491-.0068476709.0169824886-.0156666411.0345484623-.0244337349.0495962369h0l-.0476224389.0872156736-.0467924182.0823942437-.0946742384.161717513-.1959367665.3151433951-.412987185.6076537088-.9006762348 1.1373967964c-.6311270057.7242586074-1.322845524 1.3801573243-2.0706423173 1.9413471901s-1.5528131401 1.026626749-2.402339348 1.3479120929c-.424607475.1603662843-.8596420854.2844643607-1.300175583.3664593777l-.6641722057.0897338726-.3335127009.0200841727-.0834170825.0023032308-.0834689588.0009827118-.0417085412.000368517c-.0336158392.0009827118-.0717449161-.0005834852-.1085770855-.0063569171-.0739755968-.010441313-.1470174202-.0386021485-.20568951-.0706324117zm.3621484159-.5299273461c-.0050320007-.034333494-.0245893639-.06482827-.0454436345-.0779413308-.0099602487-.0069404022-.0213730336-.0096428597-.0280650756-.0098578279l.0386478398-.0044222032.0772438033-.0090900843.0770881745-.0104106032.15402072-.0218039184.1535538334-.025458378.3054476253-.0598225817.3033206972-.071799382c.4029231838-.1040139036.7994655832-.2404572972 1.1873965177-.4061977867.7763287555-.3307746549 1.5175891356-.7779085306 2.2176597375-1.3070374234s1.3599889513-1.1395157687 1.9821413579-1.8023855975l.9031144207-1.0351026384.4284981972-.5451593793.2069864173-.2790594457.101262528-.14046637.0959711458-.1375796541.1124678077.5028720615c-.3809276346-.2149682095-.7461886281-.4689377941-1.0900765881-.7577936482s-.665987876-.6123215898-.9644322014-.9625662225c-.5973555376-.7005199753-1.0975467746-1.5056066295-1.5108970937-2.3606580376s-.7424535349-1.7626471886-1.0015756287-2.6929662604l-.3362621446-1.413938043-.1281344488-.7197749848-.0529656972-.3639718884-.0231368276-.1838899484-.0105827642-.0930198152-.0048763717-.0472930061-.0049282481-.0505482389.453606324.242392011c-.4615952734.3901673002-.8830901708.8455928069-1.2559769797 1.3529177813s-.6982549315 1.0656281241-.9760006152 1.6568828295-.5092177123 1.215551176-.7000706019 1.8581525736-.3416054029 1.3039357393-.4589495824 1.9743294554l-.2587070834 2.0347355223-.0920804238 2.061176612.0523431818 2.0663665588.07771069 1.0293292065.0530175735.5117778873.0304513852.2541231334.0164447855.1260327902.0086633413.062310071.0044094851.0308940027.0011412785.0075238873.0004668866.0038694278c.0003631341.0027024575.0011412785.0055891735-.0030607014-.0169824885-.0065364131-.0316617463-.0186235899-.0656267234-.0358983961-.0955380143s-.0391147265-.0546019252-.0609546467-.0731506107z" class="B"/>
            <path d="M30.8186813871 25.4752750767s4.0116976496.4587114493 6.4829805937-3.6271585986" fill="none" class="E G"/>
            <path d="M31.8359236569 18.9936457537s1.3484205375 1.0783419582 3.961481396-.4936284285" fill="none" class="E G"/>
            <path d="M64.2665451426 29.9413010483s1.0786638032-11.3550200517-3.6105382599-15.3864705135c0 0-1.7469861124 8.5667269066-4.9650802002 9.3729805311 0 0 3.8863645207 6.2149459044 8.5756184601 6.0134899824z" class="C"/>
            <path d="M64.0854968728 29.6763373752c-.0218399202.0185179758-.0435242115.0440070635-.0606433889.0741026128s-.029361983.063876268-.0358465199.0955380143l-.0031125777.0169824885.0004668867-.0038694277.0011412785-.0075238874.004409485-.0308940027.0086633413-.062310071.0164447855-.1260327902.0304513852-.2541231334.0530175736-.5117778873.07771069-1.0293292065.0523431817-2.0663665588-.0920804237-2.061176612-.2587070835-2.0347355222c-.1173441794-.6705779747-.267941064-1.3316973481-.4589495824-1.9743294554s-.4221692892-1.2666848196-.7000706018-1.8581525737-.6025431671-1.1497421136-.9760006153-1.6568828295-.7945373351-.9627504811-1.2559769797-1.3529177813l.453606324-.242392011-.0048763717.0505482389-.004928248.0472930061-.0105827642.0930198152-.0231368276.1838899484-.0529656973.3639718884-.1281344488.7197749848-.3362102683 1.413938043c-.2591739701.9303190718-.588277186 1.8367171723-1.001627505 2.6929662604s-.9133859271 1.6599538039-1.5108970936 2.3606580376c-.2984443255.3500603742-.6206479941.6734646905-.9644322015.9625662226s-.7091489535.5428254387-1.0900765881.7577936481l.1124678077-.5028720614.0960230222.137579654.1012106516.1404663701.2069864173.2790594456.4284981972.5451593793.9031144207 1.0351026384c.6221524067.6628698288 1.2817594984 1.2730724463 1.982141358 1.8023855975s1.4413309819.9762627685 2.2176597375 1.3070374234c.3879309345.1657404896.7844733339.3019996246 1.1873965176.4061977867l.3033206972.071799382.3054476254.0598225817.1535538333.025458378.1540207201.0218039184.0770881744.0104106033.0772438034.0090900842.0386478398.0044222032c-.0066920421.0002149682-.018104827.0029174257-.0280650756.0098578279-.0211655284.0121610587-.0407228917.0424408665-.0457548923.0769893287zm.3621484158.5298966364c-.0586720897.032060973-.1317139131.06003755-.2063639017.0710316384-.0368321695.0057734319-.0749612464.0073396289-.1085252093.006356917l-.0417604175-.0003685169-.0834170825-.0009827118-.0834689587-.0023032308-.3334608247-.0200841727c-.2223418006-.0179344907-.4438535805-.0491970103-.6642240819-.0897338726-.4405334977-.0819950171-.875568108-.2060930934-1.3001755831-.3664593777-.8496299605-.321285344-1.6550094413-.7871214539-2.4022874716-1.347912093s-1.439567188-1.2170885826-2.0706423174-1.9413471901l-.9006762348-1.1373660866-.4130390613-.6076844185-.1959367664-.3151433951-.0946742385-.161717513-.0467924181-.0823942437-.0475705626-.0872156736c-.0913022793-.1532109139-.0603321312-.3651081489.0692548539-.4731757388.0130209501-.01080983.0265606631-.0202684312.0404116338-.0281608355l.00280132-.0015661969c.3507356309-.1978014625.6868421466-.4316868744 1.0040138146-.6979710665s.6153047357-.5656120689.8925316565-.8909818088c.5549726045-.6507087701 1.0250755904-1.4052471854 1.416378484-2.214971011s.7060882521-1.6759842904.9544719528-2.5677012137l.3225668027-1.3562344337.1225836852-.688543175.0502162536-.3452082346.0216324151-.1721588261.0096489909-.0852809597.0081445783-.0808587565.0004668867-.0055891734c.0189348476-.1869916325.1623728035-.3201490834.3201286168-.2977616799.049230604.0069404022.0951930014.0293278057.1330108205.060989552.4985830718.4214298198.954160695.9139219877 1.3555794662 1.4600333691s.7494568348 1.1441529401 1.0449442114 1.7730577918.5396690975 1.288671077.7401191016 1.9635177061.3576351782 1.3652938082.4797001005 2.0621286141l.2679410639 2.106319936.0947261148 2.1213677107-.0536400891 2.1204157086-.0798376181 1.057121525-.0546257387.5279619225-.0318001688.2643801879-.0174304352.1327582242-.0092858568.066762984-.0048763717.0337807186-.0012969074.0085065991-.0006743918.0042379447c0 .0001842585.0003112577-.0001842584-.0042538562.0250898611-.0073145576.0370359515-.0201798788.0762215851-.0382847058.1115377909s-.0395816131.0655960137-.0622515541.0895189044z" class="B"/>
            <path d="M64.5194939574 25.4729718459s-4.0116457733.4586807396-6.4829287174-3.6271585986" fill="none" class="E G"/>
            <path d="M63.5023035638 18.9913118131s-1.3484205375 1.0783419582-3.961481396-.4936284285" fill="none" class="E G"/>
            <path d="M42.5530474534 72.4019446247c1.4970979991 3.3226407751 6.3247058148 2.2610663371 5.6972101751-1.3788060956" class="C"/>
            <path d="M42.69731543 72.3108595234c.0964899088.1559133714.1975449315.3039343385.3061220171.4415139925l.0405672627.0515309508.0420716753.0495962369.0853883817.0968585333.1781431972.1815867175c.2438185868.2311829544.5140940841.4156870977.800139975.5520997815s.5872394575.2273442364.8935171035.2697851029c.1528794416.0231551471.3072114194.0324294898.4612321394.0314774878s.3077301823-.0146792578.4598314794-.0380186634c.3040988417-.0486442348.6014018886-.145502768.8763981288-.2919882479.0174304351-.0084758894.0343939836-.0183337173.0511500269-.0281608355l.0506831403-.0291435472.0992912287-.0625250392.0969567955-.066762984.0935848363-.0721678989c.1220649222-.100359444.236659658-.2117129766.3381815675-.3377150571l.0381291022-.047293006.0363652828-.0490127518c.0251081268-.0320302632.0467924181-.0669472424.0697736169-.101096478l.0171191773-.0256733461.0156147648-.0266253483.0318001689-.0534656646.0599689971-.1100023038c.0754800093-.1501399394.136279024-.3120417109.1812557726-.4832178252s.0741831043-.3510123763.0888122195-.5364685216.0138509708-.3758872692.0039425984-.5696350454l-.0001556289-.0032859426c-.0047726191-.091852845.0544182335-.1709918558.1319732947-.1765810293.065052874-.0046371713.1224280563.0437920953.1421410484.1136567634.0569082704.2016708902.095867368.4131688986.1139721949.6308395656s.0146291152.4413297341-.013539713.6640367991-.0814976342.4438172233-.1600902212.6531962594l-.0628740696.1549613693-.0350683755.0754538415-.0177416929.0376501464-.0190904766.0364524664-.0795263603.1441515393-.0420716753.0704481532-.0448211221.0677456958c-.1210792695.17888426-.2588108329.3417380336-.4094077174.4826036303l-.11475039.1026626749-.118848592.0951387875-.1225836852.0872463833-.062407183.0409053793-.0629259459.0395541506c-.3380259386.2053253498-.7028200455.3347976314-1.072646153.399073126-.1849908682.0327980068-.3717455304.0461260358-.5582408111.0463102943s-.3725755511-.0192857194-.5569439038-.0518994677c-.3680102345-.0686976978-.7288617429-.1997361764-1.0620113098-.3994723527s-.6394272129-.462949394-.8923760276-.7838662211l-.1798032387-.2495166717-.0818089173-.1314069955-.0396334894-.0665787254-.0368321695-.0686976978c-.0982537029-.1827536878-.1814114039-.3751502353-.2464124016-.5743029265-.0327858185-.1005437026.0094414857-.2132177541.0942073519-.2522191292.0709148953-.0323987802.1492999771-.002886716.1921497969.0665787254l.0021269281.0036851693z" class="B"/>
            <path d="M53.9474162819 71.3368999857c-.7028200455 3.6248553678-5.3698711332 3.6970232667-5.5811113814 0" class="C"/>
            <path d="M54.1068321366 71.3801393055c-.0177416929.2066765785-.0535882128.4127696719-.1059313945.6149933376l-.0197129921.0760373266-.022669941.0748703564-.0484005833.1489729692-.1155803854.2902377926c-.16984299.3796031482-.4058282562.722508152-.6860121258 1.0038708285s-.6038919508.5021043179-.9471573952.6559294266c-.1722811759.0750546149-.3492830947.1356449402-.5293975911.1773180631s-.3631342681.0677456957-.5469838578.0737340959c-.3673879216.0136965459-.7388221942-.0426558347-1.0923591451-.1788842601l-.0661941525-.0260725728-.0655197606-.0287443206-.1295351088-.0617572956c-.0855958868-.0437920952-.1689092167-.0939718173-.250718134-.1476217404-.1636178346-.1070848781-.3170160391-.2375398715-.4570301595-.3851616119-.0695661117-.074317581-.1360715219-.152842397-.1980118182-.2360350941l-.0901610009-.1271690507-.0426941908-.0655960137-.040256005-.0677456957c-.1067614152-.1808189739-.1939654672-.3762864958-.2607821099-.5781416445s-.1129346943-.4106506996-.1394953574-.6200297357-.0350683755-.4189423305-.0251081268-.6252503921c.0044094851-.0920371034.0710705242-.1622702885.1486255853-.1570803417.0646897146.0044529129.1167216386.0598225817.1297425886.1314377052l.0006743919.0034702011c.0335639629.1852411771.0741312256.3648931808.1264744073.5368370386s.1157360143.3354118263.1911641473.4878549966c.1504412557.3052855672.3485049502.564629357.5817407728.7659010206.1157360143.1018949313.2415360298.1873908592.3722642934.2605414699l.2009687671.0978412451.1030263219.0416731229.0519800477.0192857193.0528100684.0169824886c.2816364058.0893653556.5773312877.1256335636.8721442725.1105857889.1473805543-.008291631.2947092323-.0262568313.4400668137-.0592390966s.2891584686-.0750853246.4290169601-.1320211904c.2808063852-.1103708207.5466723973-.2709213634.7882084271-.4735442557s.455888881-.4523238225.6353289856-.7398591576l.1282900777-.2224920968c.0215286625-.0374351782.0397891183-.0772042969.0593464816-.1163899306l.0286875911-.0592390965.027235055-.0604060669c.0723155553-.1615025448.1353971301-.3309282036.1932910753-.5063422626l.0012969074-.0038694277c.0330970763-.1003594441.1286013355-.149955681.2133672016-.1109543059.0703961324.0323987802.111119024.1161749624.1039600953.2012716636z" class="B"/>
        </g>
    </g>
</svg>