<svg xmlns="http://www.w3.org/2000/svg" width="230" height="170" viewBox="0 0 242 95">
    <style>
        <![CDATA[.B{fill:#dae59f}.C{fill:#fff}.D{fill:#f9f19b}.E{fill:#9ab233}.F{stroke-width:.2819740214}.G{fill:#b2d2ea}.H{stroke:#9ab233}.I{fill:#afcc50}.J{fill:#bbcd4f}]]>
    </style>
    <g>
        <path d="M73.7547700466 75.6422080994c4.6839599609-4.6840209961 48.9881587028-79.0443077088 57.185180664-73.1889610291s68.3100547791 95.3854942322 68.3100547791 95.3854942322L62.6300141872 90.2800865174l11.1247558594-14.637878418z" class="G"/>
        <path d="M154.554940945 51.6363487244s21.6635742187-18.8754272461 27.5189208984-16.4636840821 37.472896576 58.0355834961 37.472896576 58.0355834961l-21.7476806641 2.5737304688-71.4145474434-1.9732666016 28.1704106331-42.1723632812z" class="G"/>
        <path d="M103.0300386012 85.6110801696S70.8265473903 33.3613243103 59.7017915309 40.4570884704 28.0843560756 88.5387535095 28.0843560756 88.5387535095s43.9135780334 7.0262451172 74.9456825256-2.9276733399z" class="G"/>
        <path d="M45.9133355678 57.0692100525s5.8843994141-6.5072631836 7.93359375-5.3368530274 1.7563476563 10.2463378907 6.4407997131 10.2463378907 3.5131835938-8.4900512696 5.2694091797-8.4900512696 5.2694091797 5.5623779297 7.0262451172 4.683959961-.9243164062-9.9428710938 5.6859130859-6.581237793c0 0-8.8120117187-12.3171386719-16.177734375-11.7967529297s-16.1782264709 17.274597168-16.1782264709 17.274597168z" class="C"/>
        <path d="M114.6593105854 16.3082237244S124.9867031635.5 129.6706636013.5s17.7520751953 22.5399742126 17.7520751953 22.5399742126-2.529296875 10.2489013672-10.1409912109-4.9744262695c-3.2730712891-6.5462646484 0 10.2463378906-3.5130615235 10.5388183594s-5.4003911018-8.7825317383-7.3846440315-9.3684692383-4.3260497451 13.4665527344-8.1315917969 10.8317871094.8782958985-9.6608886719-.29296875-10.8317871094-8.98706007 4.6140136719-8.98706007 4.6140136719l5.6868891716-7.5416870117z" class="C"/>
        <path d="M167.1214692653 41.7878990173s-2.3791503906 7.6051635743 7.7316894531 1.8448486328c0 0 2.7321777344 6.0628051758 6.6357421875 6.3492431641s2.7321777344-5.9588012695 2.7321777344-5.9588012695 3.0241661072 7.465637207 9.9039268494 6.8557128906c0 0-9.5368614197-18.1754760742-13.6240196228-18.1754760742s-13.3795166016 9.0844726562-13.3795166016 9.0844726562z" class="C"/>
        <path d="M84.8055512966 59.4345054627l14.9223632813 21.0076904297-8.0776367188-31.4160766602z" fill="#94c1dd"/>
        <path d="M156.8796479763 36.2290611267l-13.6884765625 32.4199219942 19.7537841797-23.7993775606z" fill="#94c1dd"/>
        <path d="M197.8596246303 95.774471283l21.6871337891-2.5662231445s-14.2784423828-25.119201541-25.4217529297-42.3287963867c-.0004882812-.0005493164-9.5368614197-18.1755371094-13.6240196228-18.1755371094-4.0544433594 0-13.23046875 8.9380493164-13.3784179687 9.0825195312-1.4373779297 1.0108642578-2.8497314454 2.052734375-4.178100586 3.0631713868l-15.5228271484-21.8106079102C147.3077485622 22.8435020447 134.3336274685.5004882813 129.67017532.5004882813c-4.641479969 0-14.8228764534 15.5207481384-15.0089116096 15.803768158-9.6639399529 12.3240966796-21.3756098747 30.1836547851-29.8566889763 43.1302490234-2.1422119141-2.7307128906-4.3470458984-5.3984375-6.5367431641-7.8436889648-.0310058593-.0434570313-8.8250732422-12.3151245118-16.1772460937-11.7962036133-.0020751953 0-.0045166016.0005493164-.0064697266.0005493164-.8709716797-.0029907227-1.669921875.2074584961-2.3823242187.6619262695l-.0985107422.0639648438c-6.6347694397 3.2576293945-13.5074501038 16.2017211914-13.6864051819 16.5407104492-9.1370849609 14.0859375-17.8330078125 31.4769897461-17.8330078125 31.4769897461s20.2216796875 3.235168457 42.9172401428 2.2052612304l55.3834223747 3.0646972657 72.8644986153 4.0315551757c.0004882813-.0015258789-.4904785156-.7319335937-1.3894042969-2.0657958984z" stroke="#94c1dd" fill="none" stroke-width=".6892642752"/>
        <path d="M177.3798921168 92.7568321228l-2.8122558593-.9154052735c-.3994140625-.1300048828-.8908691407-.4119873047-.791381836-.819946289.0965576172-.3964233399.640991211-.435913086 1.0434570313-.3694458008.8298339844.1370239258 1.6467285156.3504638672 2.437133789.6364746094-1.3138427734-1.1524047852-2.0382080078-2.9451904297-1.8942871093-4.6865234375 1.1854248047.5344238281 2.2348632812 1.3688354492 3.0212402343 2.4042358398-.7994384765-2.6176757812-1.5928955078-5.4859008789-.5684814453-8.0241088867.1414794922-.3494873047.3764648438-.7308959961.7524414063-.7659301758 1.0908203125 2.1677856445 1.1118164062 4.6970214844 1.109375 7.124206543.1524658203-.8579101563.5854492187-1.6638183594 1.2158203125-2.2651977539.5489501953 1.1098632812.5654296875 2.4686889648.0435791015 3.5915527343.7193603516-1.4768066406 2.1732177735-2.5726928711 3.791015625-2.8581542968.1870117188-.0330200196.389038086-.0535278321.5574913025.0329589843.4044189453.2080078125.3139648438.8094482422.1329345703 1.2268676758-.5809288024 1.3423461914-1.4803428649 2.5447387696-2.6047325134 3.4806518555.7189941406-.228515625 1.3364257813-.7439575195 2.0798339844-.8739013672s1.6922569275.4469604492 1.4863243103 1.1733398438c-.0784912109.2779541015-.3044433594.485961914-.5203857422.6779174804l-1.9058799744 1.6978149414" class="E"/>
        <path d="M177.6983735622 92.6558189392c.2769775391-.4874267578.4428710938-1.0373535157.4819335938-1.5968017578.0069580078-.1040039063.0064697265-.2189941407-.058959961-.299987793-.1080322265-.1319580078-.3165283203-.0974731445-.4775390625-.04296875-.6029052734.2044677734-1.1657714843.5239257812-1.6512451171.9353637695.0184326171-1.1643676758-.3525390625-2.3317260742-1.0404052735-3.271118164-.109008789-.1489868165-.2729492187-.3094482422-.4504394531-.258972168-.1235351563.0349731445-.1960449219.1594848633-.2504882813.2754516601-.3294677734.6964111329-.4699707031 1.4818725586-.4029541015 2.2492675782-.2490234375-1.3143310547-.7708740235-2.5767211914-1.523803711-3.6831054688-.0985107421-.1449584961-.2690429687-.305480957-.4229736328-.2209472656-.0775146484.04296875-.1130371093.1334838867-.1390380859.2189331055-.4089355469 1.3573608398.1710205078 2.7952270507.7399902344 4.0930786132-.7164306641-.4384765625-1.4538574219-1.6248168945-2.2697753907-1.0858764648-.2344970703.6889038086-.0720214843 1.4978027344.4094238282 2.0432739258-.3524169922-.4834594727-.7133789063-.9749145508-1.1958007813-1.3288574219s-1.1143798828-.5559692383-1.6883544922-.3864746094c-.2404785156.4689331055-.0889892578 1.0618896485.2330322266 1.4793701172s.7868652344.6953735352 1.2397460937.9643554688" class="E"/>
        <path d="M28.0848443569 88.5387535095s-62.064201355 19.6953735352 0 36.6754760742 279.8751296997 7.4196815491 191.462890625-32.0064697265l-191.462890625-4.6690063477z" stroke="#bbcd4f" fill="#c0d563" class="F"/>
        <path d="M206.7456109584 72.5145225525c-.0399169922 1.0474243164.7130126953 2.0717773437 1.7233886719 2.347290039s2.1796875-.2255249023 2.6766357422-1.1478881836c.6434326172 1.9412841797 2.5977783203 3.369140625 4.6430664062 3.3931274414s4.0314941406-1.3583374023 4.7204589844-3.2836303711c1.4018554687.6339111328 3.162109375.3759155274 4.3234863281-.6329345703s1.6623535156-2.7156980037 1.2303466797-4.1925656795c2.3198242188.4634399414 5.01953125-.0039672852 6.4703369141-1.8728028089s.7868652343-5.2189332694-1.5089111328-5.7878419608c2.1468505859-1.0053710937 3.3731689453-3.6516113281 2.7532958984-5.9393310547s-3.0152587891-3.9530639648-5.3754882813-3.7366333008c-.214477539-2.3032226562-1.6717529296-4.4525146484-3.732055664-5.5038452148s-4.6560058594-.9694213867-6.6462402344.2084350586c-.7639160156.451965332-1.5133056641 1.075378418-2.4012451172 1.0534057617-.5119628906-.0130004883-.9884033203-.2439575195-1.4598388672-.4429321289-1.7072753906-.7204589844-3.6356201172-1.06640625-5.427368164-.5939331055s-3.3996582032 1.8782958985-3.7670898438 3.6945800782c-1.6213378906-1.9232788086-5.0885009765-.9544067383-6.2778320312 1.2618408203s-.6684570313 4.9684448242.3039550781 7.2882080078c.4154052734.9909057617.986328125 2.0263061523 1.9813232422 2.433227539-1.6268310547.0059814454-3.1317138672 1.3918457032-3.2712402344 3.012695551-.1929931641 2.2422484755 2.4508056641 3.7390746474 3.181640625 5.7588500976.8714599609 2.4132077694 3.1951904297 4.8104856014 5.859375 2.6826779843z" class="E"/>
        <path d="M223.5507867397 71.1321983337c-.7858886718 2.763671875-2.2357177734 3.8225708008-3.4946289062 3.6721191407 1.1243896484-2.1557617188 1.1153564453-4.2130734921 1.1153564453-4.2130734921l-.5383300781.0015258789c-.6694335938 4.7239377499-2.6267089844 5.4838864804-3.5216064453 5.5783689022l.0794677734-5.567382574-1.9713134766.005493164-.2385253906 6.8862302303c-.8839111328-.6884155273-3.0236816406-2.6591796875-2.7341308594-7.4576413631l-.630493164.001953125s-.0224609375 1.5903317928.3005371093 3.503661871c-.5360107421-.1875-1.5249023437-.81640625-1.6223144531-2.9202268124l-.3780517578.0010375977s.125 2.5202023983 2.1163330078 3.5421140193c.412475586 2.025756836 1.2318115235 4.251525879 2.8591308594 5.2958984375h0c-.3024902344 6.3132934571-.8359375 13.9994506836-1.6877441406 15.8572387696l4.396484375-.0134887696c-.4404296875-.9793701171-.6304931641-5.4464111328-.5109863282-17.2510986328 1.1439208985-.7264404297 1.9663085938-1.6278076172 2.5587158204-2.5507202148h0s3.2142333984.6224365234 4.253540039-4.4295043945l-.3514404297.0574951171z" stroke="#5c3e32" fill="#6a4a39" class="F"/>
        <path d="M231.0234429897 61.3372764587c2.1468505859-1.0053710937 3.3731689453-3.6516113281 2.7532958984-5.9393310547s-3.0152587891-3.9530639648-5.3754882812-3.7366333008c-.2144775391-2.3032226562-1.6717529297-4.4525146484-3.7320556641-5.5038452148s-4.6560058594-.9694213867-6.6462402344.2084350586c-.7639160156.451965332-1.5139160156 1.075378418-2.4012451172 1.0534057617-.5119628906-.0130004883-.9884033203-.2439575195-1.4598388672-.4429321289-1.7073974609-.7204589844-3.6351318359-1.06640625-5.4274902343-.5939331055s-3.3995361328 1.8782958985-3.7670898438 3.6945800782c-1.6212158203-1.9232788086-5.0883789062-.9544067383-6.2777099609 1.2618408203s-.6684570313 4.9684448242.3039550781 7.2882080078c.4154052734.9909057617.986328125 2.0263061523 1.9812011719 2.433227539-.3123779297.0009765625-.6203613281.0535278321-.9147949219.1480102539-1.4473876953.3474121094-4.0571289062 1.4913330079-3.6057128906 5.2023927272.6190185547 5.0909422338 5.1774902344 5.5678709447 6.302368164 3.1636353433 1.144897461 1.2573852539 3.2095947266 2.7457273006 4.6804199219.9829101562.2730712891 1.1889035702 1.5759277344 1.8187863827 2.7282714844 1.6363523007 1.1778564453-.1865234375 2.1552734375-.9794311524 3.0706787109-1.7433469296.4624023438 1.2083737851 2.4132080078 1.4288327694 3.1336669922.3544921875.0559082031.5629270077.5588378906 1.0468747616 1.1232910156 1.0823361874s1.123413086-.3824462891 1.2493896485-.9333496094c1.1823730469 1.0973510742 3.2346191406 1.062866211 4.3800048828-.0729980468.0374755859.2324829101.1325683594.4369506835.26953125.6113891601.6353759766 1.2174072266 2.4866943359 3.6741333008 6.4997558594 1.811340332 3.4356689453-1.595336914 3.0531005859-4.2640378475 2.3986816406-5.8908689618l.2430419922-.2874756008c1.4498291015-1.8682861775.7858886719-5.2189332694-1.5098876953-5.7878419608z" class="F H I"/>
        <path d="M26.1070611537 107.9986534119c-1.6633300781-2.0482788086.101928711-3.7971191406 1.361328125-3.5786132812 1.0814208985.1875 1.6788330079 2.1022338867.6799316407 3.3475952148.739868164-.5999145508.9063720703-.6998901367 1.2124023437-.7833862305 2.7016601563-.732421875 2.7281494141 2.51171875-.4914550781 2.6141967774.7613525391.9059448242 1.1337890625 2.7827148437-.3385009766 3.181640625-1.3713378906.3714599609-1.6397705078-1.1768188477-1.806274414-2.2147216797-.1065673828.7758789062-1.6673583985 2.5802001953-2.6307373047 1.5208129883-1.3419189453-1.4753417969 1.7697753906-2.7776489258 1.429321289-2.7696533203-.87890625.021484375-2.7927246093-.2075195313-2.3167724609-1.5463867188.4114990234-1.1543579102 2.2762451172-.2334594727 2.9007568359.228515625z" class="C"/>
        <path d="M26.8189752163 108.8505210877c.0024414062.6474609375.3944091797.7454223633.7133789062.6014404297.7653808594-.3459472657.2049560547-1.1858520508-.1224365234-1.1783447266-.2370605469.0059814453-.5930175781.0444946289-.5909423828.5769042969h0z" class="D"/>
        <path d="M183.4766938747 100.5289878845c-1.6633300781-2.0482788086.1020507813-3.7971191406 1.361328125-3.5786132812 1.0814170838.1874389648 1.6788291931 2.1022338867.679927826 3.3475952148.7399902343-.5999145508.9063720703-.6998901367 1.2124023437-.7833862305 2.7016601563-.732421875 2.7281494141 2.51171875-.4914550781 2.6141967774.7614746094.905883789 1.1339111328 2.7827148437-.3385009766 3.181640625-1.3713340759.3714599609-1.6397666931-1.1768798828-1.8062705993-2.2147216797-.1064453125.7758789062-1.6673583985 2.5802001953-2.6307373047 1.5208129883-1.341796875-1.4753417969 1.7698974609-2.777709961 1.4294433593-2.7697143555-.87890625.0215454102-2.7927246093-.2074584961-2.3167724609-1.5463256836.4118652344-1.1543579102 2.2762451172-.2339477539 2.9006347656.228515625z" class="C"/>
        <path d="M184.1890962184 101.3803672791c.0025634766.6473999023.39453125.7454223633.7135009766.6014404297.7653770447-.3459472657.2049560547-1.1858520508-.1225585938-1.1784057618-.2374267578.0060424805-.593383789.0455322266-.5909423828.5769653321h0z" class="D"/>
        <path d="M133.2412202418 103.1321983337c-1.0764160156-1.3258666992.0665283204-2.4572753906.8814697266-2.3157958984.6993408203.1215209961 1.0863037109 1.3603515625.4399414063 2.1663208008.4783935546-.3884887696.5864257812-.4530029297.7849121093-.5069580079 1.7482910157-.473449707 1.7652587891 1.6253051758-.317993164 1.691772461.4929199218.5864868164.7338867187 1.8003540039-.2189941407 2.0587768555-.8873291015.2404785156-1.0609130859-.7614135743-1.1693115234-1.432800293-.0695800781.5014038086-1.0789794922 1.6697998047-1.7019042969.9838867187-.8679199218-.9548950195 1.1453857422-1.7973022461.9254150391-1.7922973632-.5689697266.0139770507-1.8072509766-.1340332032-1.4992675781-1.0009155274.2653808593-.7474365234 1.4718017578-.1519775391 1.8757324218.1480102539z" class="C"/>
        <path d="M133.7021577419 103.683101654c.001586914.4189453125.2550048828.4829711915.4620361328.3894653321.4948730469-.2234497071.1324462891-.7673950196-.0791015625-.7623901367-.1539306641.0029907226-.3843994141.0284423828-.3829345703.3729248046h0z" class="D"/>
        <path d="M57.6366059841 96.3094444275c-1.1584510803-1.4268798828.0709228516-2.6452026367.9488525391-2.4927368164.7534179687.1304931641 1.169921875 1.46484375.4733886718 2.3322143555.5155029297-.4179077149.6314697266-.4879150391.8444824219-.5454101563 1.8817138672-.5099487304 1.9002685547 1.7492675782-.3425292969 1.8208007813.5305175782.6314086914.7899169922 1.938293457-.235961914 2.2162475586-.9553222656.258972168-1.1418457031-.8193969727-1.2583007813-1.5428466797-.0744628906.5404663086-1.1613807678 1.7973022461-1.8322792053 1.059387207-.9344482422-1.0278930664 1.2323036194-1.9352416992.9953651428-1.9287719726-.6124305725.0150146484-1.9458045959-.1444702149-1.6143836975-1.0773925782.287475586-.8049316406 1.586303711-.1640014648 2.0213661194.1585083008z" class="C"/>
        <path d="M58.1324555934 96.9023399353c.0020751953.4509887695.2745361328.5194702148.4969482422.4190063477.5334472656-.2410278321.1430664063-.8264160157-.0849609375-.8204345704-.1654052734.0039672852-.4134521484.0310058594-.4119873047.4014282227h0z" class="D"/>
        <path d="M89.6340425075 120.4667930603c-1.1583251953-1.4268798828.0710449219-2.6447143554.9488525391-2.4927368164.7534179687.1304931641 1.169921875 1.46484375.4735107422 2.3322143555.5153808593-.41796875.6313476562-.4879150391.8443603515-.5454101563 1.8818359375-.5099487304 1.9002685547 1.7492675782-.3424072265 1.8208007813.5303955078.6314086914.7899169921 1.938293457-.2359619141 2.2162475586-.9554443359.2589721679-1.1419677734-.8193969727-1.2584228516-1.5428466797-.0744628906.5404663086-1.1613769531 1.7973022461-1.8322753906 1.059387207-.9344482422-1.0278930664 1.2322998047-1.9353027344.9953613281-1.9287719726-.6124267578.0150146484-1.9458007812-.1444702149-1.6142578125-1.0773925782.287475586-.8049316406 1.5858154297-.1634521484 2.0212402344.1585083008z" class="C"/>
        <path d="M90.1300141872 121.0601768494c.001953125.4509887695.2744140625.5194702148.4969482422.4190063477.5334472656-.2410278321.1429443359-.8264160157-.0850830078-.8204345704-.1654052735.0034790039-.4134521485.0305175782-.4118652344.4014282227h0z" class="D"/>
        <path d="M184.9565522731 120.2263145447c-1.1583251953-1.4268798828.0710449219-2.6447143554.9488487244-2.4927368164.7534179687.1304931641 1.169921875 1.46484375.4735107422 2.3322143555.5153808593-.41796875.6313476562-.4879150391.8443603515-.5454101563 1.8818359375-.5099487304 1.9002685547 1.7493286133-.3424072265 1.8208007813.5303955078.6314086914.7899169921 1.938293457-.2359619141 2.2162475586-.9554443359.2584838867-1.1419677734-.8193969727-1.2584228516-1.5428466797-.0744628906.5404663086-1.1613731384 1.7973022461-1.8322715759 1.059387207-.9344482422-1.0278930664 1.2322998047-1.9353027344.9953613281-1.9287719726-.6124267578.0150146484-1.9458007812-.1444702149-1.6142578125-1.0773925782.2868652344-.8049316406 1.586303711-.1634521484 2.0212402344.1585083008z" class="C"/>
        <path d="M185.4525201381 120.8197593689c.001953125.4509277343.2744140625.5194091796.4969482422.4189453125.5334472656-.2410278321.1429443359-.8264160157-.0850830078-.8204345704-.1654052735.0034790039-.4134521485.0305175782-.4118652344.4014892579h0z" class="D"/>
        <path d="M72.824838406 82.1295127869l.1040039062-1.4303588867.1745605469-1.4198608399c.1444091797-.834411621.3588867187-1.6608276367.6833496094-2.4442138671.2994384765-.7229614258.6729736328-1.4158325196 1.1124267578-2.0632934571.4423828125-.6528930664.9519042968-1.2588500976 1.5178222656-1.8082885742.5609130859-.5434570312 1.1873779297-1.018371582 1.8642578125-1.4078369141l.2524414062-.137512207c.0435791016-.0219726562.0910644532.0435180664.0485839844.0725097656-.6354980469.439453125-1.2518310547.9044189454-1.8148193359 1.4353637696s-1.0754394531 1.1018676758-1.52734375 1.7272949218-.8409423828 1.293334961-1.1568603516 1.9952392579c-.337524414.7504272461-.5959472656 1.5293579101-.7724609375 2.3332519531l-.255493164 1.400390625-.1684570313 1.3988037109-.0379638672.349975586c-.0009765625.0164794921-.025024414.0145263671-.0240478515-.0014648438h0z" class="B"/>
        <path d="M78.3413178981 71.5461387634c.0928955078-.1399536133.1629638672-.2939453125.2534179688-.4349365234.2214355468-.3449704647.5694580078-.6064450741.9624023437-.7219235897.1884765625-.0554809571.4005126953-.0759887696.5729980469.0175170898s.2734375.3329467773.1644287109.4959104061c-.0360107422.0540161133-.0899658203.0939941406-.1440429687.1304931641-.4943847657.3369750976-1.0938720703.5169677734-1.6922607422.5079345703" class="B"/>
        <path d="M76.5200288356 72.9634971619c.1639404297-.0369873047.3204345703-.099975586.4838867188-.1394653321.3979492187-.096496582.8309326171-.0444946289 1.1948242187.142944336.1745605469.0900268554.3420410156.221496582.4019775391.4084472656s-.0319824219.4295043945-.2239990235.4719848633c-.0639648437.014465332-.1298828125.005493164-.1944580078-.0050048828-.58984375-.098022461-1.1478271484-.3824462891-1.5743408203-.8024291993" class="B"/>
        <path d="M74.4437348903 75.820186615c.1219482422-.1154785156.2239990234-.25.3439941406-.367980957.2923583985-.2869262695.689819336-.4644165039 1.0993652344-.4899291992.1959228516-.0125122071.4074707031.0150146484.5549316406.1439819336s.1923828125.3854370117.0499267578.5199584961c-.0474853515.0449829101-.1083984375.0714721679-.1694335937.0954589843-.5570068359.2185058594-1.1813964844.2609863282-1.7628173828.1190185547" class="B"/>
        <path d="M73.0878999294 79.4797935486c.1219482422-.1154785156.2238769531-.25.3438720703-.367980957.2924804688-.2869873047.6899414063-.4644775391 1.0993652344-.4899291992.1960449219-.0125122071.4074707031.0150146484.5550537109.1439819336s.1923828125.3854370117.0499267578.5199584961c-.0474853515.0449829101-.1085205078.0714721679-.1694335937.0954589843-.5570068359.2185058594-1.1813964844.2609863282-1.7628173828.1190185547" class="B"/>
        <path d="M76.4814546168 73.03698349c-.0939941406-.1389770508-.2104492187-.2619628906-.3063964843-.3989257812-.2354736328-.3355102539-.3454589844-.7569580079-.3039550782-1.1638793946.019897461-.1950073242.0809326172-.3994750976.232421875-.5239868164s.4119873047-.1269528866.521484375.035522461c.0360107422.0540161132.0524902344.1189575195.06640625.1824951171.1245117188.5853881836.0645751954 1.2083740235-.1704101562 1.7583007813" class="B"/>
        <path d="M74.3532807888 75.8056602478c-.0939941407-.1389770508-.2105712891-.2619628907-.3065185547-.3989257813-.2354736328-.3354492187-.3454589844-.7569580078-.3039550782-1.1643676758.0200195313-.1950073242.0809326172-.3994750976.232421875-.5239868164s.4119873047-.126953125.521484375.035522461c.0360107422.0540161133.0524902344.1190185547.0665283204.1824951172.1243896484.5854492187.064453125 1.2083740234-.1705322266 1.7583007812" class="B"/>
        <path d="M73.2233979762 79.5747642518c-.1510009765-.0734863282-.3129882812-.121459961-.4654541015-.1919555664-.371459961-.1724853516-.6779785156-.4824829102-.8459472656-.8558959961-.080444336-.1785278321-.1295166016-.3864746094-.060546875-.5699462891s.29296875-.3159790039.4689941406-.2299804688c.0584716797.028503418.1049804687.0764770508.1489257812.125.4005126953.4439086915.660522461 1.0133666993.7330322266 1.6072998047" class="B"/>
        <path d="M69.5122163357 82.4634361267l-.3214111328-.8743896484-.2755126953-.8768920898c-.140991211-.537475586-.2364501954-1.0888671875-.2554931641-1.6448364258-.0179443359-.5099487305.017578125-1.0219116211.103515625-1.5248413086s.2235107422-1.0008544922.4114990234-1.4783325195.4313964844-.9298706055.7293701172-1.3453369141l.1164550781-.153503418c.0230712891-.0285034179.0670166016 0 .0476074219.0319824219-.2590332031.4324951172-.5.8739624023-.691040039 1.3403930664s-.3438720704.9488525391-.443359375 1.4443359375-.1495361329.9989013672-.1474609375 1.5028076172c.001953125.5379638672.0599365234 1.0709228516.1729736328 1.596862793l.2224121093.8878784179.2760009766.8743896485.0704345703.2139892578c.0020751953.0084838867-.0129394531.0134887695-.0159912109.005493164h0z" class="B"/>
        <path d="M69.9411714138 74.6907920837c.0180664063-.1079711914.0180664063-.2184448242.0335693359-.3264770508.0389404297-.264465332.1749267579-.5134277343.3774414063-.6879272461.0969238281-.0834350586.2174072266-.1529541015.3449707031-.1439819336s.251953125.1240234375.2309570313.2504882813c-.0069580078.0419921875-.0279541016.0800170898-.0505371094.1165161133-.2030029297.3334350586-.5108642578.6008911133-.8684082031.7568969726" class="B"/>
        <path d="M69.2402436794 76.0231285095c.0875244141-.0659790039.1640625-.1454467774.25-.2129516602.2109375-.1644897461.4814453125-.25.7479248047-.2369995117.1274414062.0065307617.2629394531.0400390625.3489990234.1340332031s.0964355469.2639770508-.0059814453.3409423829c-.0340576172.0255126953-.0755615234.0385131835-.1170654297.0494995117-.376953125.1004638672-.7849121093.0814819336-1.1508789062-.0529785157" class="B"/>
        <path d="M68.7752778591 78.2789268494c.0415039063-.1015014649.0660400391-.2084960938.1051025391-.3109741211.0964355468-.2489624023.2849121093-.4614868164.5208740234-.5869750977.1130371094-.0599365234.2459716797-.1009521484.3684082031-.0639648437s.2180175782.1770019531.1700439453.2954711914c-.0164794921.0394897461-.0455322265.0719604492-.0749511718.1019897461-.2719726563.2794799805-.6319580078.4724731445-1.0148925782.544921875" class="B"/>
        <path d="M68.95533157 80.8176231384c.0415039063-.1015014649.0659179688-.2084960938.1049804688-.3109741211.0964355468-.2489624024.2849121093-.4614257813.5209960937-.5869140625.1129150391-.0599975586.2458496094-.1010131836.3684082031-.0640258789s.2180175782.1770019531.169921875.2954711914c-.0164794922.0394897461-.0454101562.0720214844-.0749511718.1019897461-.2719726563.2794799804-.6319580079.4729614258-1.0148925782.5449829101" class="B"/>
        <path d="M69.2373139918 76.0766563415c-.0935058593-.0570068359-.1955566406-.0989990234-.2895507812-.1544799805-.2299804688-.1359863281-.4089355469-.3569946289-.4938964844-.6099243164-.041015625-.1215209961-.0589599609-.2594604492-.0024414062-.3734741211s.2104492187-.1864624023.3188476562-.1190185546c.0360107422.0225219726.0635986328.0560302734.0891113281.0905151367.2314453125.3139648437.3634033204.7004394531.3719482422 1.0903930664" class="B"/>
        <path d="M68.7183930934 78.2938804627c-.0935058594-.0569458008-.1955566406-.0989379883-.2895507812-.1544799805-.2299804688-.1359863281-.4089355469-.3569335937-.4938964844-.6099243164-.041015625-.1214599609-.0589599609-.2594604492-.0025634766-.3734741211s.2105712891-.1864624023.3189697266-.1194458008c.0360107422.0224609375.0634765625.0564575196.0889892578.091003418.2315673828.3139648438.3635253906.700378418.3719482422 1.0903320313" class="B"/>
        <path d="M69.0612886013 80.8376426697c-.1090087891-.0029907226-.2185058594.0125122071-.3280029297.0109863282-.2674560547-.0025024415-.5323486328-.1040039063-.7329101562-.280456543-.0959472657-.0845336914-.1809082032-.194519043-.189453125-.3219604492s.0889892578-.2664794922.2170410156-.2630004883c.0424804687.0009765625.0828857422.0170288086.1219482422.033996582.3579101562.1560058594.6649169922.4244384766.8679199218.7579345703" class="B"/>
        <path d="M74.4597261012 90.3405723571c.3354492188.0844726563.3184814454-.6384277343.271484375-.9804077148s-.3969726562-.6749267578-.751953125-.5899047852c.6754150391-.4264526367 1.359375-.8599243164 1.8918457032-1.436340332s.9038085937-1.3243408203.83984375-2.0922851563c-.0344238282-.4154663085-.2064208985-.8358764648-.539428711-1.1178588867s-.8393554687-.3974609375-1.239868164-.2239990234c.0040283203-.6039428711.1920166015-1.1898803711.2495117187-1.7907714844s-.0450439453-1.2673950195-.5119628906-1.6923217773-1.3723144531-.4264526367-1.6563720703.1104736328c.0355224609-.6763916016-.0089111328-1.4993286133-.642944336-1.8388061524-.5318603515-.2844848632-1.202758789-.0545043945-1.6953125.2699584961-1.0092773437.6654663086-1.704711914 1.7293090821-1.8826904296 2.8801879883-.4770507813-.4764404297-1.0074462891-.9803466797-1.6918945313-1.0848388672-.8958740234-.1370239258-1.7637939453.517944336-2.0247802734 1.3248291016-.1314697266.4079589844-.1364746094.837890625-.0529785157 1.2608642578-.1904296875-.0474853516-.3874511718-.0659790039-.5799560546-.0529785156-.734375.0494995117-1.4112548829.4434204101-2.0596923829.8283691406.7708740235-1.1518554687 1.2838134766-2.4971923828 1.482788086-3.8900756836.0379638672-.2654418945.0634765625-.5458984375-.0305175781-.7918701172-.2049560547-.5404663086-.9213867188-.6659545898-1.4063720704-.3829956054s-.7728271484.8409423828-.9772949218 1.3903808593c.3829345703-.9913940429.6268310547-2.041809082.7208251953-3.1046752929.0495605469-.5574340821.0495605469-1.1528930664-.2214355469-1.6238403321-.5969238281-1.0383911133-2.1947021484-.8153686523-2.9631347656.1145019532-.7004394531.8474121093-.8994140625 2.013305664-1.0268554688 3.1411743164.0389404297-1.0244140625-.5885009765-2.0888061524-1.531375885-2.2037963868-.7174072265-.0874633789-1.4053955078.5764770508-1.5618896484 1.2908935547-.3364257813-1.2523803711-1.1268310547-2.3577270508-2.1832275391-2.9981689453-.3779296875-.2290039062-.837890625-.4029541015-1.2482910156-.2294921875-.3155517578.1329956055-.5345458984.4444580078-.70703125.7584228516-.8118896484 1.4803466797-.9268798828 3.3656616211-.2989501953 4.9169921875-.310913086-.2890014649-.6943359375-.4814453125-1.1003417969-.5664672852-.7199707031-.1514892578-1.3583984375.4884643555-1.2203369141 1.2113647461.0904541016.4719238281.3079833985.914428711.6318359375 1.2453613281-.4454345703-.3099365234-.9233398437-.56640625-1.4222412109-.7644042968-1.169921875-.4644775391-2.3397216797.6763916015-1.9018554687 1.856262207.1385498046.3724975586.3599853515.7054443359.6584472656.9494018555-.9624023438-.8193969727-2.5677490235-.5619506836-3.2980957031.5284423828s-.8209228516 3.6386108398.2194824218 4.3405151367" class="F H I"/>
        <path d="M36.9758355678 88.9922447205l-2.8122558593-.9154052735c-.3994140625-.1300048828-.8908691407-.4119873047-.791381836-.819946289.0965576172-.3964233399.640991211-.435913086 1.0434570313-.3694458008.8298339844.1370239258 1.6467285156.3504638672 2.437133789.6369628906-1.3138427734-1.1524047851-2.0382080078-2.9451904297-1.8942871093-4.6865234375 1.1854248047.5344848633 2.2347412109 1.3688964844 3.0212402343 2.4042358399-.7994384765-2.6176757813-1.5928955078-5.485900879-.5684814453-8.024597168.1414794922-.3494873047.3764648438-.7308959961.7524414063-.7659301758 1.0908203125 2.1677856445 1.1118164062 4.6970214844 1.109375 7.124206543.1524658203-.8579101563.5854492187-1.6638183594 1.2158203125-2.2652587891.5489501953 1.1099243164.5654296875 2.46875.0435791015 3.5916137695.7198486329-1.4768066406 2.1732177735-2.5726928711 3.791015625-2.8581542968.1870117188-.0330200196.389038086-.0535278321.5574951172.0330200195.4044189453.2079467773.3139648438.809387207.1329345703 1.2268066406-.5809326171 1.3423461914-1.4803466796 2.5447387696-2.6047363281 3.4806518555.7189941406-.2284545899 1.3364257813-.7439575195 2.0798339844-.8739013672s1.6922607422.4469604492 1.486328125 1.1733398438c-.0784912109.2780151367-.3044433594.485961914-.5205078125.6779174804l-1.9057617188 1.6978149414" class="E"/>
        <path d="M37.2943170131 88.8907432556c.276977539-.4874267578.4428710937-1.0374145508.4819335937-1.5968017578.0069580078-.1040039062.0064697266-.2189941406-.0589599609-.299987793-.1080322266-.1320190429-.3165283203-.0974731445-.4775390625-.04296875-.6024169922.2044677735-1.1657714844.5239257813-1.6512451172.9353637696.0189208984-1.1643676758-.3525390625-2.3317260743-1.0404052734-3.2711181641-.1090087891-.1489868164-.2729492188-.3095092773-.4504394532-.2584838867-.1235351562.0349731445-.1960449218.1594848633-.2504882812.2754516601-.3294677734.6964111329-.4699707031 1.4818725586-.4029541016 2.2492675782-.2490234375-1.3143310547-.7708740234-2.5767211914-1.5238037109-3.6831054688-.0985107422-.1449584961-.2690429688-.305480957-.4229736328-.2209472656-.0775146485.04296875-.1130371094.1334838867-.139038086.2189331055-.4089355468 1.3573608398.1710205079 2.7952270507.7399902344 4.0930786132-.716430664-.4384765625-1.4538574219-1.6248168945-2.2692871094-1.0858764648-.2344970703.6889038086-.0720214843 1.4978027344.4094238282 2.0432739258-.3524169922-.4834594727-.7133789063-.9749145508-1.1958007813-1.3288574219s-1.1143798828-.5559692383-1.6883544922-.3864746094c-.2404785156.4689331055-.0889892578 1.0623779297.2330322266 1.4793701172s.7868652344.6953735352 1.2398681641.9643554688" class="E"/>
        <path d="M190.9168756068 88.7227745056l-.151977539-1.4258422852-.2219238282-1.4128417969c-.1724853515-.828918457-.4145507812-1.6478271484-.7650146484-2.4197387695-.3233642578-.7124633789-.7203369141-1.3923339844-1.1807861328-2.0247802734-.4639892578-.6374511719-.9929199219-1.2263793946-1.5773925781-1.7557983399-.5788574219-.5244750976-1.2208251953-.9783935547-1.9107627869-1.3448486328l-.2569580078-.128540039c-.0439453125-.0204467774-.0894775391.046508789-.0465087891.0740356445.6494102478.41796875 1.2813682556.8618774414 1.8618125916 1.373840332s1.111328125 1.0648803711 1.5843505859 1.6748046875.8839111328 1.2638549805 1.2233886719 1.9553222656c.3624267578.7384033204.6468505859 1.5083007813.8508300781 2.306213379l.3020019531 1.3908691406.2149658204 1.3923339844.0494384765.348449707c.0025634766.0150146484.0260009766.012512207.0245361328-.0034790039h0z" class="B"/>
        <path d="M185.0495698512 78.3298912049c-.0975341797-.1369628906-.1724853515-.2884521485-.2679443359-.4259643555-.2325439453-.3374633789-.5894775391-.5869140625-.9864501953-.6893920898-.1899414063-.0490112305-.4024658203-.0629882813-.5718994141.0360107422s-.2624511719.3419189453-.1474609375.5009155273c.0379638672.0529785156.0928955078.091003418.1479492188.1254882812.5053710937.3199462891 1.1108398437.4794311524 1.7077636718.4504394532" class="B"/>
        <path d="M186.9173638881 79.6857261658c-.1650390625-.0309448242-.3234863281-.0894775391-.4885253906-.1229858399-.4008789062-.0829467773-.8319091797-.0169677734-1.1893310547.1829833985-.1715049743.0955200195-.3344688415.2329711914-.3884239197.4214477539s.0469970704.4279785156.2395019532.464477539c.0639648437.0125122071.1298828125.0015258789.1939659118-.0114746093.5864257813-.1179809571 1.1342773438-.4204711914 1.5462646485-.8544311524" class="B"/>
        <path d="M189.0881402553 82.4709434509c-.1254882813-.1115112305-.2320556641-.2424926758-.35546875-.3559570313-.3020019531-.276977539-.705444336-.4409790039-1.1148681641-.4529418945-.1960449219-.0054931641-.4069824219.028503418-.5494384765.1629638672s-.1795654297.3914794922-.0325927735.5214233398c.0490722656.0435180664.1105957031.0680541993.1724853516.0900268555.5639648437.1994628906 1.189453125.2209472656 1.7658691406.0595092773" class="B"/>
        <path d="M190.5659234584 86.0835533142c-.1254882812-.1115112305-.2319335937-.2424926758-.35546875-.3559570313-.3020019531-.276977539-.7054443359-.4409790039-1.1148681641-.4529418945-.1959228515-.0054931641-.4069824218.028503418-.5494384765.1629638672s-.1794433594.3914794922-.0324707031.5214233398c.0489501953.0435180664.1104736328.0679931641.1724853515.0900268555.5639648438.1994628906 1.1893310547.2209472656 1.7657470703.0594482422" class="B"/>
        <path d="M186.9583795131 79.7577476502c.0894775391-.1419677735.2014160156-.2689819336.29296875-.4094848633.2238769531-.342956543.3199462891-.7678833008.2648925781-1.173828125-.0264892578-.194519043-.0944824218-.396484375-.25-.5159301758s-.4158935547-.1135253906-.5198974609.0529785156c-.0345458984.0549926758-.0489501953.1204833985-.0599365234.1849975586-.1049804688.5889282227-.0235595704 1.209350586.2288818359 1.7517700196" class="B"/>
        <path d="M189.1776177944 82.4534263611c.0894775391-.1419677735.2014160156-.2689208985.29296875-.4094238282.2239990234-.3429565429.3199462891-.7679443359.2648925781-1.1738891601-.0264892578-.1944580078-.0944824218-.3964233399-.2498779297-.5159301758s-.416015625-.1134643555-.5200195312.0529785156c-.0344238281.0549926758-.0489501953.1204833985-.0599365234.1849975586-.1049804688.5889282227-.0235595704 1.2098388672.2288818359 1.7518310547" class="B"/>
        <path d="M190.4334771694 86.1830406189c.1484375-.0780029297.3089599609-.1314697266.4588623047-.2074584961.3659667969-.1849975586.6614990234-.5049438477.8170166016-.8834228516.0744628906-.1809692383.1169433593-.3904418945.0419921875-.5714111328s-.3029785157-.3059692383-.4764404297-.2144775391c-.0574951172.030456543-.1025390625.0799560547-.14453125.1294555665-.3859863282.457458496-.6259765625 1.0354003906-.6789550782 1.6313476562" class="B"/>
        <path d="M192.8276422084 85.804561615l.2924804688-.8843994141.2459716797-.8853759765c.123046875-.5419311524.1994628906-1.0963745117.2005615234-1.65234375.0009765625-.5104370117-.0515136719-1.0203857422-.1545410156-1.520324707s-.2569580078-.9928588868-.4604492188-1.4633178711-.4619140625-.9149169922-.7739257812-1.3203735352l-.1214599609-.1494750977c-.0240478516-.0280151367-.0670166016.0020141602-.0465087891.0335083008.2729492187.4229125977.5289306641.8563842774.7354736328 1.3163452149s.3753662109.9364013672.4919433594 1.4283447265.1823730469.9928588868.1978759765 1.4968261719c.015991211.5374145508-.0244140625 1.0723876953-.1193847656 1.6013183594l-.1925048828.8948974609-.2464599609.8829345703-.0634765625.2159423828c-.0035400391.0100097657.0114746093.0145263672.0144042968.0054931641h0z" class="B"/>
        <path d="M192.138799435 78.0509605407c-.021484375-.1069946289-.025024414-.2175292968-.044555664-.325012207-.0474853516-.2629394531-.1925048828-.507446289-.400390625-.6749267578-.0994873047-.0799560547-.2225341797-.1454467773-.3494873047-.1319580078s-.2475585938.1325073242-.2225341797.2574462891c.0080566406.0419921875.0305175781.0790405273.0540771484.1145019531.2144775391.3259887695.5308837891.5839233398.8933105469.7279052734" class="B"/>
        <path d="M192.8831842006 79.3588218689c-.0899658203-.0630493164-.1684570312-.1400146484-.2564697266-.2045288086-.2159423828-.1569824219-.4895019531-.2339477539-.7559814453-.2114868164-.1274414062.0104980469-.2614746093.0485229492-.3438720703.1459960938s-.087524414.2669677734.0174560547.3404541015c.0345458984.0245361328.0770263672.035522461.1185302734.0455322266.3798828125.0879516601.7868652344.055480957 1.148803711-.0914916992" class="B"/>
        <path d="M193.4235894741 81.597530365c-.0444335937-.0999755859-.0725097656-.2064819336-.1159667969-.3069458007-.1044921875-.2459716797-.2999267578-.4514770508-.5404052734-.5689697266-.1149902344-.0559692383-.2490234375-.0924682617-.3704833984-.0514526367s-.2125244141.1839599609-.1595458985.3009643554c.017578125.0390014649.0476074219.0699462891.078491211.0994873047.2810058593.2704467774.6469726562.4509277344 1.0329589843.510925293" class="B"/>
        <path d="M193.3291070522 84.1417808533c-.0444335938-.1000366211-.0725097656-.2064819336-.1159667969-.307006836-.1044921875-.2459716797-.2999267578-.4514160156-.5404052734-.5689086914-.1149902344-.0560302734-.2490234375-.0924682617-.3704833985-.0515136719s-.212524414.1840209961-.1595458984.3009643555c.017578125.0390014648.0474853516.0700073242.0784912109.0994873047.2810058594.2705078125.6469726563.4514770508 1.0329589844.5109863281" class="B"/>
        <path d="M192.8881890834 79.4132652283c.0914306641-.0599975586.1920166016-.10546875.2844238281-.1644897461.2254638672-.1434326172.396484375-.369934082.473022461-.6259155273.0364990234-.1224975586.050415039-.2609863282-.0095214844-.3734741211s-.2165527344-.1789550782-.3229980469-.1079711914c-.0350341797.0234985351-.0610351562.0585327148-.0854492187.0935058593-.2209472657.321472168-.3399658203.7124023438-.3354492188 1.1023559571" class="B"/>
        <path d="M193.4810845913 81.6115684509c.0915527344-.0599975586.1920166016-.1055297852.2845458984-.1644897461.2254638672-.1434936524.3963623047-.3699951172.4729003907-.6259765625.0364990234-.1224365234.0505371093-.260925293-.0095214844-.3734130859s-.2164306641-.1790161133-.3229980469-.1080322266c-.0349121094.0234985351-.0609130859.0585327148-.0854492187.0935058594-.2209472657.3214721679-.3399658203.7124023437-.3354492188 1.102355957" class="B"/>
        <path d="M193.2236383022 84.164730072c.1090087891-.0064697265.2189941406.0045166016.3280029297 0 .2669677734-.0109863281.5284423828-.1214599609.7229003906-.3049316406.0930175781-.0880126953.1744384766-.2005004883.1784667969-.3284912109s-.0975341797-.2634277344-.2254638672-.255432129c-.0424804687.0025024415-.0825195312.0199584961-.1209716797.0384521485-.3520507812.1680297851-.6505126953.446472168-.8419189453.7864379883" class="B"/>
        <path d="M186.1654107631 94.0106773376c-.1145019531-.3264770507-.2299804687-.6749267578-.1379394531-1.0078735351s.484375-.6159667969.8233642578-.4839477539c-.6124267578-.5134277344-1.2318115234-1.0344238282-1.6812705993-1.6773071289s-.7180175782-1.4333496094-.5515136719-2.1862792969c.0900878906-.4074707031.3170166016-.8009033203.6849327087-1.0354003906s.8853759766-.2814331055 1.2589111328-.0554809571c.0769042969-.5989379882-.0305175781-1.2048950195-.0070800781-1.8078002929s.2150878906-1.2498779297.7344970703-1.6083374024 1.4173583985-.2389526367 1.6263427735.3319702149c.0549316406-.6749267578.2104492187-1.4843139649.8839111328-1.7357788086.5649414062-.2105102539 1.1993408203.1069946289 1.6437988281.4944458008.9113769531.7943725585 1.4572753906 1.9422607421 1.4787597656 3.1061401367.5369873047-.4084472657 1.1298828125-.8364257813 1.8218994141-.8483886719.9063720703-.0155029297 1.6782226562.7503662109 1.8287353516 1.5842895508.0760498046.4219360351.0224609375.8483886719-.1164550782 1.2568969726.1949462891-.0215454101.392944336-.0135498047.5819091797.0249633789.7214355469.1475219727 1.3388671875.6289672852 1.9298095703 1.0974121094-.6094970703-1.2448730469-.9373779297-2.6472167969-.9478759765-4.0540771484-.0020751953-.2684936524.0104980468-.5494384766.1364746093-.7808837891.2760009766-.5079956055 1.0028076172-.5364990234 1.4448242188-.1904907226s.6534423828.9368896484.7818603516 1.5083007812c-.246459961-1.0338745117-.3474121094-2.1077270508-.2979736329-3.1736450195.0260009766-.558959961.1055908204-1.1488647461.4375-1.5793457031.7309570313-.9493408204 2.2847900391-.5139160157 2.9211425782.5109863281.5809326172.9338989258.6209716797 2.1157226562.5964355468 3.2501220703.0989990235-1.0198974609.8634033204-1.9907836914 1.8133544922-1.9777832031.7224121094.0095214843 1.314819336.7599487304 1.3748779297 1.4893188476.5008544922-1.1963500976 1.4322509766-2.1857299804 2.5651855469-2.6781616211.4053955078-.1765136718.8843994141-.2869873047 1.2673339844-.0599975586.2944335937.1739501953.4699707031.5124511719.5983886718.8463745118.6064453125 1.5758666992.4670410157 3.4596557617-.362915039 4.9129638671.6799316406-.4789428711 1.5903320312-.5549316406 2.3302001953-.192993164.1105957031.8644409179-.2529296875 1.7808227539-.9108886719 2.2922973633.683959961-.3504638672 1.4189453125-.5854492188 2.1693115235-.696472168.7333984375-.1084594727 1.3608398437.501953125 1.2803955078 1.2388916016-.0815429688.746887207-.4704589844 1.4628295898-1.0814208985 1.8377685546 1.0638427735-.6829223632 2.6207275391-.2124633789 3.1971435547.9664306641s.0565185547 2.8251953125-1.068359375 3.3815917969" class="F H I"/>
        <path d="M74.8881928981 89.9606285095s22.0240478516 8.6030273438 30.0616455078 5.3599243164 36.6844482422 11.0882568359 71.8775634766 0c0 0 4.8449707031-2.8831787109-13.8814697266-3.3091430664l-88.0577392578-2.05078125z" class="J"/>
        <path d="M8.7119195522 97.5133018494h0c-10.9727783203 7.2987060547-16.2777023316 17.9475097656 19.3724365234 27.7009277344 11.2042236328 3.0656738281 27.4854736328 5.2659301758 46.1239051819 6.5813026428l1.5028076172-.1779785156c-85.9584922791-9.8319129944-66.9991493225-34.1042518616-66.9991493225-34.1042518616z" class="J"/>
        <path d="M203.9394586147 127.1845054627h0c36.10546875-6.2962646485 52.4627761841-17.5415649414 15.6072998047-33.9767456055.0004882812 0 32.6329421997 20.2852783203-15.6072998047 33.9767456055z" class="J"/>
    </g>
</svg>