<svg xmlns="http://www.w3.org/2000/svg" width="5000" height="780">
    <path d="M726.7459 237.2116c-54.6854-48.5405-64.2569-120.0394-29.7995-176.7388L639.5174 9.5 59.5 488.9474l60.6512 53.8427c64.9591-21.4963 141.4669-9.1559 193.026 36.4598s63.0601 111.5671 35.6695 166.4074L409.4979 799.5 989.5 320.0257l-57.4291-50.9729c-67.3834 27.4681-150.4326 16.74-205.1495-31.8006z" fill="#66ff80"/>
    <path d="M528.1001 237.3946c-12.4498-10.7367-12.3732-27.959.1723-38.6145s32.6703-10.5892 45.1201.1475 12.374 27.9596-.1723 38.6144-32.6695 10.59-45.1201-.1474z"/>
    <path d="M631.6334 326.6638c-12.4498-10.7367-12.3732-27.959.1723-38.6145s32.6703-10.5892 45.1201.1475 12.374 27.9596-.1723 38.6144-32.6695 10.59-45.1201-.1474z"/>
    <path d="M735.1437 415.9348c-12.4498-10.7366-12.3732-27.9589.1723-38.6144s32.6703-10.5892 45.121.1475 12.3731 27.9597-.1724 38.6144-32.6703 10.5899-45.1209-.1475z"/>
    <path d="M663.5061 413.7106l-16.4545 57.9012-4.9537 21.3908 8.1633 11.177-30.2473 65.4498s-27.2369 2.951-31.3152-4.2726l22.1055-26.1731 3.2526-31.1457 3.1172-43.0451 8.0068-11.2108 38.2542-40.0546zM345.4659 311.6837l23.8207-22.1918 37.3506-2.979 30.4608 20.9766s-48.0401-24.4987-64.9929 8.0523l-26.6392-3.8468zm84.0667 171.4969l32.9162 3.8528 5.7864 47.2506-14.2055 29.975h-24.4971l12.4551-26.4754zm184.6024 24.8461l-28.0196 2.8-10.5619 33.8445-10.9389 15.1529 2.9465 4.4799 16.7747 2.923 19.5721-25.3498z" fill="#6a462f"/>
    <path d="M348.207 307.8756s-28.6094-11.9588-36.5254-2.3168l11.4194 13.9118-28.5881 21.9102-5.23 12.5879 6.9354 9.8461 20.3665-.971 7.8878 6.6306-4.0366 25.705s32.6459 1.3793 19.3289-36.6821h15.861l1.3926 11.8595 4.5621 19.053s6.3389 21.4356 11.0003 20.9392 22.2563 13.2386 22.2563 13.2386l4.8608 21.9433 22.4554 18.9755s24.4167 64.2961 17.5307 80.348-5.3791 18.6005-5.3791 18.6005l18.2625 3.7509 15.3493-24.5082-6.3954-82.1684s49.3877 32.8597 108.3401 7.1985c0 0 3.7806 29.8259 17.1542 35.0056l-8.1719 37.9067-14.2123 19.3285 9.9201 5.4446 12.8762-1.9308 21.5317-33.2898 7.8451-60.4734 8.3711-14.215 38.1955-39.4569s1.9186-14.2097-9.3092-22.2961-46.7865-21.2705-46.7865-21.2705l-90.0348-3.5027-80.8325 8.2742-45.3015-56.5405-18.7036-11.7216s-19.8684-3.2876-24.3456-1.1252z" fill="#a57939"/>
    <path d="M703.9259 362.6619s13.9136 57.0534-41.3078 56.3361c0 0-.3981-17.1386-8.4138-25.2473l17.538-14.1488 13.2174-12.814c.7815-.3861 18.9519-4.1371 18.9519-4.1371z" fill="#6a462f"/>
</svg>