<svg xmlns="http://www.w3.org/2000/svg" width="350" height="300" viewBox="0 0 500 800">
    <g>
        <path d="M673.475 237.1377c-47.0412-48.5248-55.2748-120.0005-25.634-176.6814L598.4397 9.5 99.5 488.7918l52.1731 53.8252c55.8788-21.4893 121.6919-9.1529 166.0438 36.448s54.2453 111.5309 30.6835 166.3534l52.1731 53.8252L899.5 319.9249l-49.4013-50.9563c-57.9643 27.4591-129.4045 16.7345-176.4728-31.7903z" stroke="#000" stroke-width="2.0833" fill="#66ff80"/>
        <path d="M673.475 237.0383c-47.0412-48.4978-55.2748-119.9333-25.634-176.5827L598.4397 9.5 99.5 488.553l52.1731 53.796c55.8788-21.4912 121.6919-9.1484 166.0438 36.4278s54.2453 111.4684 30.6835 166.2606l52.1731 53.7959L899.5 319.7803l-49.4013-50.9555c-57.9643 27.4439-129.4045 16.7252-176.4728-31.7727z" fill="none" stroke-width="10" stroke-miterlimit="10" stroke="#000"/>
        <path d="M502.5969 237.3206c-10.7095-10.7332-10.6436-27.9499.1482-38.6019s28.1035-10.5858 38.813.1474 10.6443 27.9506-.1482 38.6019-28.1028 10.5865-38.813-.1474z"/>
        <path d="M591.6578 326.5608c-10.7095-10.7332-10.6436-27.9499.1482-38.6019s28.1035-10.5858 38.813.1474 10.6443 27.9506-.1482 38.6019-28.1028 10.5865-38.813-.1474z"/>
        <path d="M680.6989 415.8029c-10.7095-10.7332-10.6436-27.9499.1482-38.6019s28.1035-10.5858 38.8137.1474 10.6436 27.9506-.1482 38.6019-28.1035 10.5865-38.8137-.1474z"/>
    </g>
    <g>
        <path d="M619.0752 413.5794l-14.1544 57.8824-4.2613 21.3839 7.0222 11.1733-26.0192 65.4286s-23.4296 2.9501-26.9378-4.2712l19.0155-26.1646 2.7979-31.1356 2.6815-43.0311 6.8876-11.2072 32.9068-40.0416zm-273.583-101.9938l20.491-22.1846 32.1295-2.978 26.2028 20.9698s-41.3248-24.4908-55.9079 8.0497l-22.9154-3.8456zm72.3154 171.4413l28.3151 3.8515 4.9775 47.2353-12.2198 29.9653h-21.0728l10.7141-26.4669zm158.7978 24.838l-24.1029 2.7991-9.0855 33.8335-9.4098 15.148 2.5346 4.4784 14.4299 2.9221 16.8362-25.3416z" fill="#6a462f"/>
        <path d="M347.8501 307.7787s-24.6102-11.9549-31.4197-2.316l9.8232 13.9073-24.592 21.903-4.4989 12.5838 5.966 9.843 17.5195-.9707 6.7852 6.6284-3.4723 25.6967s28.0825 1.3788 16.627-36.6702h13.6438l1.198 11.8557 3.9244 19.0467s5.4528 21.4287 9.4626 20.9324 19.1453 13.2344 19.1453 13.2344l4.1812 21.9361 19.3166 18.9694s21.0035 64.2752 15.0801 80.3219-4.6272 18.5944-4.6272 18.5944l15.7097 3.7498 13.2037-24.5003-5.5015-82.1417s42.4841 32.849 93.1958 7.1961c0 0 3.2522 29.8162 14.7564 34.9943l-7.0296 37.8944-12.2257 19.3222 8.5334 5.4428 11.0764-1.9301 18.5218-33.279 6.7485-60.4538 7.201-14.2104 32.8563-39.4441s1.6504-14.2051-8.0079-22.2889-40.2465-21.2635-40.2465-21.2635l-77.4492-3.5016-69.5334 8.2715-38.969-56.5221-16.0891-11.7178s-17.0911-3.2866-20.9424-1.1249z" fill="#a57939"/>
        <path d="M653.8449 362.5473s11.9687 57.0349-35.5336 56.3178c0 0-.3425-17.133-7.2377-25.2391l15.0865-14.1442 11.3698-12.8098c.6722-.386 16.3027-4.1358 16.3027-4.1358z" fill="#6a462f"/>
    </g>
</svg>